<svg width="20" height="26" viewBox="0 0 20 26" fill="none" xmlns="http://www.w3.org/2000/svg"><g clip-path="url(#a)"><path fill-rule="evenodd" clip-rule="evenodd" d="M10 .094C7.17 1.4 4.083 2.417.086 2.394.51 12.858-1.809 21.814 10 25.907c11.81-4.093 9.491-13.049 9.914-23.511C15.918 2.417 12.831 1.4 10 .094z" fill="#FCEE1F"/><path d="M5.454 1.66C7.079 1.247 8.56.666 9.976.01L10 0l.024.01c1.416.655 2.897 1.236 4.522 1.65 1.626.416 3.397.664 5.395.654H20l-.002.058c-.07 1.707-.065 3.373-.062 4.985.02 8.32.035 15.192-9.918 18.642h-.037C.03 22.55.045 15.677.064 7.357c.003-1.61.007-3.274-.061-4.98v-.005L0 2.313h.06c1.997.011 3.768-.237 5.394-.652zM10 .126C8.585.777 7.106 1.357 5.482 1.771a21.207 21.207 0 0 1-5.364.656c.066 1.687.063 3.335.059 4.93C.158 15.627.143 22.46 10 25.886c9.857-3.426 9.842-10.26 9.823-18.53-.004-1.594-.007-3.242.06-4.929a21.23 21.23 0 0 1-5.365-.656C12.894 1.357 11.415.777 10 .125z" fill="url(#b)"/><path fill-rule="evenodd" clip-rule="evenodd" d="M10 .392l-.143.066-.271.12-.273.12-.274.117L8.76.93l-.279.112-.28.11-.285.108-.287.104-.289.102-.292.099-.295.095-.298.092-.301.088-.305.085-.308.081-.312.077-.315.073-.319.07-.323.063-.326.06-.331.055-.335.05-.34.046-.343.04-.349.036-.353.03-.358.024-.362.019-.368.013-.373.007H.368l.023.672.019.974.002.183h19.177l.002-.183.02-.974.021-.672h-.067l-.373-.007-.367-.013-.363-.02-.357-.023-.354-.03-.348-.035-.344-.04-.34-.046-.334-.05-.331-.056-.327-.06-.323-.064-.319-.069-.315-.073-.311-.077-.308-.08-.305-.086-.301-.088-.298-.092-.296-.095-.292-.099-.289-.102-.287-.104-.283-.107-.282-.11L11.24.93l-.277-.115-.275-.117-.272-.12-.271-.12L10 .392z" fill="#EB2127"/><path d="M10 .392l-.143.066-.271.12-.273.12-.274.117L8.76.93l-.279.112-.28.11-.285.108-.287.104-.289.102-.292.099-.295.095-.298.092-.301.088-.305.085-.308.081-.312.077-.315.073-.319.07-.323.063-.326.06-.331.055-.335.05-.34.046-.343.04-.349.036-.353.03-.358.024-.362.019-.368.013-.373.007H.368l.023.672.019.974.002.183h19.177l.002-.183.02-.974.021-.672h-.067l-.373-.007-.367-.013-.363-.02-.357-.023-.354-.03-.348-.035-.344-.04-.34-.046-.334-.05-.331-.056-.327-.06-.323-.064-.319-.069-.315-.073-.311-.077-.308-.08-.305-.086-.301-.088-.298-.092-.296-.095-.292-.099-.289-.102-.287-.104-.283-.107-.282-.11L11.24.93l-.277-.115-.275-.117-.272-.12-.271-.12L10 .392z" stroke="#EB2127" stroke-width=".22" stroke-miterlimit="2.61"/><path fill-rule="evenodd" clip-rule="evenodd" d="M10 .392l-.042.02v1.595L9.296.705l-.074.031.61 1.201-1.273-.925-.077.03-.012.005 1.278.929-2.143-.603-.133.047 2.056.578-2.982-.274-.09.028-.116.034 3.163.29-9.13.75.003.08 8.922-.732L.403 3.98l.002.082 8.898-1.807-6.856 2.243h.26l6.83-2.235-4.25 2.235h.174l4.155-2.185-2.77 2.185h.13l2.753-2.172-1.763 2.172h.104l1.793-2.21L9 4.498h.086l.87-2.23v2.23h.083v-2.23l.87 2.23h.087l-.862-2.21 1.793 2.21h.104L10.27 2.326l2.753 2.172h.13l-2.77-2.185 4.155 2.185h.174l-4.25-2.235 6.83 2.235h.26l-6.856-2.243 8.9 1.807.003-.082L10.7 2.174l8.924.733.003-.081-9.132-.75 3.165-.29-.115-.034-.092-.028-2.983.274 2.057-.578-.133-.047-2.144.603 1.278-.93-.01-.004-.078-.03-1.274.925.61-1.201-.074-.032-.662 1.303V.41L10 .392z" fill="#FCEE1F"/><path d="M1.214 5.271l-.006-.539v-.053H18.792v.053l-.005.54-.002.954.001.94.002.925v.907l-.007.89-.014.874-.027.854-.04.834v.002l-.057.813-.077.792v.002l-.1.77v.001l-.125.746v.002l-.152.723v.002l-.182.699v.002l-.214.674v.003l-.248.65-.001.003-.285.627-.002.003-.323.604-.002.003-.366.582-.003.003-.412.562-.002.003-.463.541-.002.004-.517.522-.002.003-.575.504-.003.002-.639.485-.002.003-.707.466-.002.002-.779.446-.003.001-.854.425-.002.002-.934.403-.003.001-.641.24h-.037l-.641-.24h-.003l-.934-.404-.002-.002-.855-.425-.002-.001-.779-.446-.002-.002-.706-.466-.003-.003-.638-.485-.003-.002-.575-.504-.003-.003-.517-.522-.002-.003-.462-.542-.002-.003-.413-.561-.002-.004-.366-.581-.002-.004-.323-.604-.002-.003-.284-.627-.002-.002-.247-.65v-.003l-.214-.674v-.003l-.182-.698V16.3l-.153-.722v-.002l-.125-.746v-.002l-.1-.77v-.001l-.077-.792v-.001l-.058-.813v-.001l-.04-.834-.027-.854-.015-.873L1.216 9V8.09l.002-.924v-.94l-.001-.955h-.003zm.1-.487l.005.487.002.956-.001.94-.002.924V9l.007.89.014.871.027.853.04.832.058.813.077.79.1.766.124.745.151.721.18.694.213.673.247.647.282.623.323.601.363.578.41.56.46.536.516.523.572.5.634.483.702.464.777.445.852.424.933.403.62.232.621-.232.933-.403.852-.424.776-.445.703-.464.634-.482.572-.501.516-.523.458-.537.411-.559.365-.579.32-.598.284-.625.247-.647.213-.673.18-.694.151-.72.125-.746.1-.766.077-.79.057-.813.04-.832.026-.852.015-.872.006-.89V8.09l-.001-.924-.002-.94.003-.956.004-.487H1.314z" fill="url(#c)"/><path fill-rule="evenodd" clip-rule="evenodd" d="M3.84 14.474l.111.663.132.627.154.592.177.557.2.525.224.495.251.468.281.447.315.429.355.416.401.406.456.399.517.393.586.387.661.379.744.37.595.257.596-.257.743-.37.662-.38.586-.387.517-.393.455-.399.402-.406.354-.416.316-.429.28-.446.251-.469.225-.494.2-.525.176-.557.154-.593.132-.627.11-.662.09-.697.072-.731.054-.764.038-.795.026-.825.014-.854.006-.881v-1.53H3.542l-.002.623v.907l.007.88.014.855.026.825.039.795.054.764.071.73.09.698zm-.098.014l.111.667.133.631.155.597.178.563.202.53.227.5.254.475.284.452.32.435.359.421.406.411.461.404.523.397.591.39.667.383.748.372.638.276.637-.276.749-.372.667-.383.591-.39.522-.397.461-.404.407-.411.36-.422.319-.435.284-.452.254-.475.227-.5.202-.53.178-.564.155-.596.133-.632.11-.666.091-.701.072-.734.054-.766.038-.797.026-.826.014-.855.006-.882v-1.63H3.442l-.002.723v.907l.007.881.015.855.025.827.039.796.054.767.072.734.09.7v.002z" fill="url(#d)"/><path d="M9.976.977a1.022 1.022 0 1 1-.001 2.043 1.022 1.022 0 0 1 0-2.043z" stroke="#FCEE1F" stroke-width="1.97" stroke-miterlimit="2.61"/><path fill-rule="evenodd" clip-rule="evenodd" d="M9.976.977a1.022 1.022 0 1 1-.001 2.043 1.022 1.022 0 0 1 0-2.043z" fill="#EB2127"/><path fill-rule="evenodd" clip-rule="evenodd" d="M9.976.977h.017v.745l.097-.739a.909.909 0 0 1 .035.005l-.097.739.192-.72a.964.964 0 0 1 .035.008l-.193.722.284-.69.033.013-.285.692.372-.65.03.018-.371.65.453-.596.028.021-.453.597.527-.533.025.025-.528.533.593-.46a.624.624 0 0 1 .021.028l-.594.46.65-.38.017.03-.65.382.694-.294.014.033-.694.293.727-.2.01.034-.729.2.748-.105a.85.85 0 0 1 .005.036l-.749.105.757-.007v.035l-.757.007.752.091-.005.036-.752-.092.734.188-.008.035-.735-.189.705.283a1.13 1.13 0 0 1-.013.033l-.705-.283.662.371a.416.416 0 0 1-.018.03l-.662-.371.608.454-.021.029-.61-.455.545.53a.616.616 0 0 1-.025.025l-.544-.53.47.596-.027.022-.472-.597.39.652a.65.65 0 0 1-.03.019l-.39-.653.302.697-.033.014-.302-.698.21.73a3.63 3.63 0 0 1-.035.01l-.21-.73.113.75-.035.005-.112-.751.014.758h-.036l-.014-.759-.084.753c-.011 0-.023-.002-.035-.004l.085-.754-.181.735a.76.76 0 0 1-.035-.009l.181-.735-.274.705a1.025 1.025 0 0 1-.033-.013l.274-.705-.362.662-.03-.018.362-.662-.445.608a1.139 1.139 0 0 1-.028-.021l.445-.609-.519.545-.025-.025.52-.544-.585.472a.664.664 0 0 1-.022-.028l.585-.472-.64.391-.018-.03.64-.392-.684.305a.73.73 0 0 1-.014-.033l.685-.305-.718.214-.009-.035.718-.213-.738.118a.945.945 0 0 1-.005-.035l.737-.117-.745.02v-.035l.745-.02-.74-.076.003-.036.741.077-.724-.172a.765.765 0 0 1 .009-.034l.724.172-.695-.264a.73.73 0 0 1 .013-.033l.696.264-.655-.351.017-.031.656.352-.604-.434.02-.029.605.435-.542-.509.024-.025.542.508-.472-.574a.668.668 0 0 1 .028-.023l.49.597-.399-.66a.69.69 0 0 1 .03-.019l.403.668-.298-.72.033-.013.283.684-.194-.714a.964.964 0 0 1 .034-.01l.195.723L9.823.99a.938.938 0 0 1 .035-.005l.1.744V.977h.017z" fill="#FCEE1F"/><path fill-rule="evenodd" clip-rule="evenodd" d="M2.402 7.162l.113.347h.364l-.295.214.113.347-.295-.214-.294.214.112-.347-.295-.214h.365l.112-.347z" fill="#EB2127"/><path d="M17.251 6.832V5.558h.463l.083.632.086-.632h.462v1.274h-.283v-.99l-.168.99h-.191l-.165-.99-.003.99h-.283zm-.524-.452h.147l-.069-.624-.078.624zm-.354.452l.236-1.274h.388l.24 1.274h-.308l-.027-.226h-.206l-.03.226h-.293zm-.85 0V5.558h.32l.236.752.003-.752h.284v1.274h-.319l-.237-.787-.003.787h-.284zm-1.084-1.028v-.246h.672v.246h-.19v1.028h-.293V5.804h-.19zm-.495 1.151h.275v.189h-.275v-.189zm-.087-1.475l.132-.217h.224l.115.217h-.166l-.07-.121-.08.121h-.156zm-.097.077h.652v.245h-.359v.255h.314v.246h-.314v.284h.372v.245h-.666V5.557zm-.364.001h.293v1.274h-.293V5.558zm-.597 1.274l-.194-1.274h.3l.08.906.1-.906h.294l-.216 1.274h-.364zm-1.08-.503l-.238-.77h.303l.081.43.09-.43h.298l-.24.749v.524h-.293V6.33zm-1.488.503V5.558h.32l.236.752.004-.752h.283v1.274h-.318l-.238-.787-.003.787h-.284zm-.517-.452h.147l-.068-.626-.079.626zm-.158-.9l.133-.216h.225l.114.217h-.165l-.07-.122-.08.122h-.157zm.04.077h.39l.24 1.276h-.309l-.026-.226h-.206l-.03.226H9.36l.236-1.276zm-.997.928v-.927h.293v.93c0 .045.004.077.013.097.008.022.032.032.072.032a.081.081 0 0 0 .064-.025c.014-.016.02-.05.02-.104v-.93h.294v.927a.356.356 0 0 1-.102.268.376.376 0 0 1-.276.1.376.376 0 0 1-.274-.099.355.355 0 0 1-.104-.27m-.816 0v-.578c0-.12.036-.213.107-.278a.387.387 0 0 1 .271-.09.39.39 0 0 1 .274.094c.07.062.103.154.103.274v.579a.346.346 0 0 1-.166.315l.114.184-.238.024-.044-.08-.043-.075a.495.495 0 0 1-.158-.023.326.326 0 0 1-.12-.076.362.362 0 0 1-.1-.27m.293-.603v.63c0 .037.006.067.019.088.012.018.034.028.065.028.035 0 .06-.015.073-.045a.217.217 0 0 0 .011-.071v-.63a.218.218 0 0 0-.01-.074c-.012-.028-.037-.043-.074-.043-.035 0-.06.014-.074.042a.242.242 0 0 0-.01.075zm-1.596.951V5.558h.32l.236.752.004-.752h.283v1.274h-.319l-.237-.787-.003.787H6.48zm-.543.123h.275v.189h-.275v-.189zM5.85 5.48l.133-.217h.224l.115.217h-.166l-.07-.121-.08.121H5.85zm-.097.077h.652v.245h-.359v.255h.314v.246h-.314v.284h.373v.245h-.667V5.557zm-.364.001h.293v1.274H5.39V5.558zm-.597 1.274l-.194-1.274h.3l.08.906.1-.906h.295l-.217 1.274h-.364zm-1.354-.347v-.58c0-.12.036-.212.107-.277a.387.387 0 0 1 .271-.09c.114 0 .204.03.274.093.07.063.103.154.103.274v.118H3.9V5.88a.218.218 0 0 0-.01-.074c-.013-.028-.037-.043-.074-.043s-.06.014-.074.042a.242.242 0 0 0-.01.075v.629c0 .038.005.068.018.09.013.017.034.027.066.027.034 0 .059-.015.073-.045a.218.218 0 0 0 .011-.072v-.187h.293v.162a.356.356 0 0 1-.102.268.376.376 0 0 1-.275.1.376.376 0 0 1-.275-.099.355.355 0 0 1-.103-.27m-.573.471h.275v.188h-.275v-.188zm-.243-1.05c0-.121.036-.214.106-.279A.392.392 0 0 1 3 5.535c.114 0 .203.03.274.092.07.062.105.155.105.276v.58a.357.357 0 0 1-.102.268.378.378 0 0 1-.277.1.375.375 0 0 1-.275-.099.355.355 0 0 1-.103-.27v-.58.001zm.293.605c0 .038.007.068.02.09.012.017.034.027.065.027.035 0 .059-.015.073-.045a.218.218 0 0 0 .011-.072v-.631a.218.218 0 0 0-.01-.074c-.012-.028-.037-.043-.074-.043-.035 0-.06.014-.074.041a.258.258 0 0 0-.01.076v.63zm-1.11.323V5.557H2.1v.477h.169v-.477h.293v1.275h-.293v-.543h-.169v.543h-.293z" fill="#EB2127"/><mask id="e" style="mask-type:luminance" maskUnits="userSpaceOnUse" x="1" y="8" width="9" height="16"><path d="M9.013 23.255l-.18.425.237.111.188-.444.463-.543-.24-.113-.228.33.09-.394-.245-.114-.084.742zm-.897-.723l-.057-.03.112-.241.045.023c.042.021.064.045.066.071 0 .02-.01.05-.029.092l-.029.056-.022.028a.066.066 0 0 1-.04.013.102.102 0 0 1-.047-.013m-.588.49l.234.12.213-.458.043.022c.032.016.052.035.059.056.006.022.003.048-.01.076l-.08.17c-.007.014-.016.034-.026.06a.731.731 0 0 0-.032.08.174.174 0 0 0-.009.074l.231.118a.112.112 0 0 1 .009-.076.223.223 0 0 1 .011-.032l.014-.03.035-.075.087-.187a.19.19 0 0 0 .015-.13.178.178 0 0 0-.07-.11c.067.01.12 0 .16-.032a.43.43 0 0 0 .095-.142c.044-.095.051-.173.023-.235-.03-.062-.095-.12-.2-.172l-.307-.157-.494 1.06zm-.647-.926l.35-.452-.24.524-.11-.072zm-.478.182l.22.143.128-.162.155.101-.086.19.231.152.418-1.118-.292-.19-.774.884zm-.319-1.47l.132.109-.56.75.205.168.56-.75.132.108.134-.18-.469-.383-.134.179zm-1.173.169l.187.189.783-.849-.187-.189-.783.849zm-.778-.875l.363.422.161-.152-.189-.22.676-.637-.174-.202-.837.79zm-.508-.74l.15.222.922-.677-.149-.223-.923.677zm-.782-1.46l.118.233.775-.428-.705.565.079.157.843-.294-.774.43.118.233.995-.554-.192-.378-.53.204.46-.343-.192-.378-.995.554zm-.59-1.943l.069.253.843-.25-.803.4.047.17.883-.104-.842.253.069.252 1.084-.325-.113-.412-.558.084.516-.235-.113-.411-1.083.325zm.21-1.119l.556-.029-.533.163-.023-.134zm-.404.017l.202-.008.032.188-.193.06.047.281 1.074-.423-.06-.354-1.146-.01.045.267zm-.172-1.634l.022.261.694-.06-.675.283.024.294 1.123-.103-.022-.263-.663.058.644-.278-.025-.296-1.123.103zm.854-1.275l.009.175-.909.05.014.271.908-.05.01.176.216-.012-.03-.622-.218.012zm-.952-1.161l.02.616.218-.008-.012-.345.25-.01.01.291.217-.008-.01-.29.224-.008.011.331.217-.008-.02-.604-1.126.042h.001zm-.013-.922l.009.272 1.126-.041-.009-.272-1.126.041zm-.048-1.135l.022.337 1.138.118-.018-.272-.806-.035.794-.132-.018-.277-1.112.262z" fill="#fff"/></mask><path d="M9.721 8.468H1.727v15.323h7.994V8.468z" fill="url(#f)" mask="url(#e)"/><mask id="g" style="mask-type:luminance" maskUnits="userSpaceOnUse" x="10" y="8" width="9" height="16"><path d="M10.894 22.555l.2.56-.343-.489-.39.196.548 1.058.24-.12-.424-.824.565.753.162-.08-.285-.894.427.822.24-.12-.549-1.058-.39.196zm.721-.372l.658.996.53-.338-.127-.192-.296.189-.147-.222.25-.16-.126-.191-.25.16-.13-.199.284-.182-.126-.192-.52.331zm1.23-.559l.035-.025c.063-.045.115-.04.155.014l.348.47c.04.055.028.104-.034.15l-.036.024-.468-.633zm-.01-.242l-.336.24.71.96.336-.24a.294.294 0 0 0 .124-.177.295.295 0 0 0-.062-.244l-.338-.456a.37.37 0 0 0-.186-.15.217.217 0 0 0-.056-.007.337.337 0 0 0-.193.073m.531-.391l.809.882.207-.183-.809-.882-.206.183zm1.02-.856a.377.377 0 0 0-.247.119.36.36 0 0 0-.121.239c-.005.09.034.174.114.253l.388.381c.077.075.16.112.25.11a.36.36 0 0 0 .25-.116.349.349 0 0 0 .119-.248.33.33 0 0 0-.112-.244l-.108-.106-.196.193.125.123c.017.017.03.035.04.055.011.029.004.054-.019.077-.02.02-.041.03-.062.026a.171.171 0 0 1-.072-.046l-.422-.415a.23.23 0 0 1-.043-.057c-.01-.027-.002-.053.021-.076.025-.024.051-.031.079-.02a.213.213 0 0 1 .056.041l.096.094.196-.193-.079-.078a.342.342 0 0 0-.24-.112h-.013m.602-.532l.512.299-.084.11-.428-.409zm-.261.035l.83.89.168-.218-.154-.15.118-.152.186.107.176-.23-1.102-.536-.222.29zm.525-.716l1.036.612.3-.49-.2-.117-.157.254-.836-.494-.143.235zm.757-1.425l.824.31c.047.018.075.036.085.053.01.019.01.04 0 .064-.014.035-.031.053-.052.052a.277.277 0 0 1-.09-.022l-.824-.31-.1.256.82.309c.102.038.193.038.275 0a.355.355 0 0 0 .18-.205c.04-.101.042-.192.006-.274a.337.337 0 0 0-.203-.179l-.82-.31-.1.256zm.368-1.085l.687.185-.746.03-.079.29 1.168.307.07-.256-.721-.192.78-.024.078-.287-1.167-.307-.07.255zm.17-.638l1.19.206.05-.27-1.19-.205-.05.269zm.185-1.082l.84.195-.861-.028-.035.277 1.222-.035.042-.337-1.174-.345-.034.273zm.093-.63l1.205.083.044-.62-.232-.015-.025.346-.268-.018.02-.292-.232-.016-.02.292-.24-.016.024-.333-.233-.016-.043.606zm.302-1.325l.001-.053c.002-.049.015-.08.039-.092a.245.245 0 0 1 .098-.01l.065.005.036.01c.027.015.04.043.038.083l-.002.066-.275-.009zm-.129-.356c-.045.053-.07.14-.074.262l-.013.361 1.208.041.01-.273-.522-.018.002-.05c.002-.038.01-.065.027-.08.018-.015.043-.022.077-.02l.193.006a2.14 2.14 0 0 0 .157-.002.171.171 0 0 0 .073-.021l.01-.27a.111.111 0 0 1-.076.022.222.222 0 0 1-.035.002l-.033-.002-.085-.003-.214-.007a.191.191 0 0 0-.129.039.18.18 0 0 0-.072.113c-.019-.069-.052-.116-.1-.142a.446.446 0 0 0-.173-.033h-.021c-.097 0-.167.025-.21.075m.674-1.188a1.28 1.28 0 0 0-.187.18l-.098.12c-.06.069-.109.103-.147.103a.091.091 0 0 1-.068-.027.1.1 0 0 1-.021-.069c0-.034.016-.058.045-.071a.244.244 0 0 1 .09-.012h.064l.005-.255-.11-.002a.292.292 0 0 0-.224.081c-.055.056-.083.141-.085.255-.003.113.024.2.08.26.055.062.14.094.252.095.04.001.079-.004.114-.014a.365.365 0 0 0 .095-.05c.018-.015.065-.065.139-.15l.09-.115c.059-.065.116-.098.17-.097a.091.091 0 0 1 .092.097c0 .034-.013.06-.039.075a.182.182 0 0 1-.087.015l-.09-.001-.004.264.13.002a.28.28 0 0 0 .198-.072c.07-.062.106-.154.108-.276.002-.128-.033-.226-.105-.295a.285.285 0 0 0-.197-.082h-.012a.422.422 0 0 0-.198.041m-.682-.54l1.208.022.005-.274-1.208-.021-.005.274zm.027-.74l.233.009.007-.177.974.034.01-.274-.974-.034.006-.177-.233-.008-.022.627zm.062-1.303l.403.104-.411.055-.015.281.742-.184.477.024.014-.273-.497-.026-.698-.26-.015.278z" fill="#fff"/></mask><path d="M18.286 8.332H10.36V23.88h7.926V8.332z" fill="url(#h)" mask="url(#g)"/><path d="M9.975 1.228l.22.55.59.039-.455.379.146.574-.5-.316-.502.316.147-.574-.456-.38.591-.038.22-.55z" stroke="#EB2127" stroke-width="1.97" stroke-miterlimit="2.61"/><path fill-rule="evenodd" clip-rule="evenodd" d="M9.975 1.228l.22.55.59.039-.455.379.146.574-.5-.316-.502.316.147-.574-.456-.38.591-.038.22-.55z" fill="#FEDD00"/><path d="M10.47 2.772l-.494-.326.016-.357.478.683zm.307-.941l-.466.366-.334-.13.8-.236zm-.8-.603l.218.55-.219.284v-.834zm-.808.59l.59-.04.204.295-.794-.255zm.307.944l.151-.572.345-.1-.496.672z" stroke="#EB2127" stroke-width=".79" stroke-miterlimit="2.61"/><path fill-rule="evenodd" clip-rule="evenodd" d="M10.47 2.772l-.494-.326.016-.357.478.683zm.307-.941l-.466.366-.334-.13.8-.236zm-.8-.603l.218.55-.219.284v-.834zm-.808.59l.59-.04.204.295-.794-.255zm.307.944l.151-.572.345-.099-.496.671z" fill="#FEDD00"/><path fill-rule="evenodd" clip-rule="evenodd" d="M11.963 18.588c.045-.315.264-1.485 1.077-1.632.161.308.132.77.132.77s.088-.57.205-.708c.118-.617.324-2.019 1.013-2.589l-.014-.123s-.617-.955-.22-2.157c.175.03.22.108.22.108s.152-.463-.592-.97c.03-.153.176-.159.284-.102.11.057.273.184.273.184l.085-.063s-.212-.644-.089-2.005c.01-.068.119-.047.252.088.133.134.712.63.704 2.278.18-.147.27-.19.32-.302.131.405.148 1.596-.074 2.683-.025.078.066.008.066.008s.238-.396.617-.517c-.066.19-.05.198-.05.293 0 .095 0 .147-.173.285-.172.138-.731.526-.838.992-.107.466.329.293.42.302.09.008.328-.052.18.336-.148.388-.56.811-.88 1.14-.14.137-.016.344.123.413.058.052.09-.043.132-.095.04-.051.099-.034.123.053.025.086.041.22.131.25s-.061.134-.16.15c-.098.018-.3.057-.51-.034-.21-.09-.296-.036-.303.05-.007.085-.206.109-.206.109s.413.13.486.38c.042.3-.733.647-.91.707a4.544 4.544 0 0 1-1.077.209c-.1.034-.148.13-.083.18.066.053.195.35-.102.577-.043.033-.12-.177-.15-.35l-.086 1.497s-1.211.093-2.29.805v-2.437l.002-.002c.047-.033.877-.6 1.961-.76" fill="url(#i)"/><path d="M12.967 17.093a.032.032 0 0 1 .035-.03c.018.002.03.019.028.037 0 .001-.046.431-.147.573l-.051.07c-.146.194-.472.63-.538.956a.032.032 0 0 1-.037.025c-.017-.003-.028-.02-.024-.039.068-.341.401-.786.55-.984l.05-.068c.09-.127.134-.54.134-.54z" fill="#FCEE1F"/><path d="M12.193 18.04c0-.018.013-.034.03-.034.018 0 .032.013.033.032 0 .001.019.533.037.617a.033.033 0 0 1-.023.04.032.032 0 0 1-.038-.025c-.02-.09-.04-.629-.04-.63M12.39 17.6a.03.03 0 0 1 .044-.009c.015.01.019.031.01.046 0 0-.085.132-.079.31.003.094.03.154.052.207a.333.333 0 0 1 .038.158.032.032 0 0 1-.033.031c-.018 0-.031-.017-.03-.035a.27.27 0 0 0-.033-.127.595.595 0 0 1-.057-.232.662.662 0 0 1 .089-.348zM12.56 17.443a.03.03 0 0 1 .044-.003.035.035 0 0 1 .003.047s-.061.07-.056.17c.006.109.093.331.093.331a.033.033 0 0 1-.017.044.031.031 0 0 1-.04-.018s-.092-.233-.1-.353c-.007-.128.073-.218.073-.219M12.68 17.35a.032.032 0 0 1 .039-.025.033.033 0 0 1 .023.04s-.041.165.095.326a.034.034 0 0 1-.003.047.03.03 0 0 1-.045-.003.461.461 0 0 1-.109-.385M12.912 17.632a.032.032 0 0 1-.034-.03.033.033 0 0 1 .028-.036s.13-.011.15-.115c.025-.122.02-.184.02-.184a.033.033 0 0 1 .028-.037.032.032 0 0 1 .034.03s.007.072-.02.204c-.03.152-.207.168-.207.168M12.641 18.055a.034.034 0 0 1 .024-.04c.017-.003.034.008.038.026 0 0 .016.077.045.09a.77.77 0 0 1 .018.009c.023.011.036.018.116-.021a.03.03 0 0 1 .042.015.034.034 0 0 1-.015.045c-.108.053-.13.042-.17.02l-.016-.006c-.06-.027-.082-.137-.082-.138M12.51 18.31a.032.032 0 0 1-.035-.03.033.033 0 0 1 .027-.036s.115-.017.158.054l.002.003a.134.134 0 0 0 .028.032c.03.025.073.04.112.026a.031.031 0 0 1 .04.02.034.034 0 0 1-.018.042c-.062.024-.128.002-.174-.037a.231.231 0 0 1-.042-.048v-.002c-.022-.036-.098-.025-.098-.025z" fill="#FCEE1F"/><path d="M12.255 18.665c-.018-.001-.03-.017-.03-.035.001-.019.016-.033.034-.032 0 0 .167.012.191-.07a.031.031 0 0 1 .06 0c.016.05.042.074.067.082.028.01.059.005.078.002a.032.032 0 0 1 .036.028.033.033 0 0 1-.027.038.221.221 0 0 1-.107-.005.153.153 0 0 1-.082-.068c-.074.07-.22.06-.22.06M12.44 18.977a.034.034 0 0 1 .012-.045.03.03 0 0 1 .043.012l.096.174a.034.034 0 0 1-.012.046.03.03 0 0 1-.043-.013l-.095-.174zM12.528 19.284a.035.035 0 0 1 .002-.047.03.03 0 0 1 .044.003s.123.135.026.383a.031.031 0 0 1-.041.018.034.034 0 0 1-.018-.043c.082-.208-.013-.314-.013-.314M12.443 19.33a.032.032 0 0 1 .037-.027c.017.003.028.02.026.038 0 0-.018.115.012.27a.033.033 0 0 1-.024.04.032.032 0 0 1-.037-.027c-.033-.167-.014-.293-.014-.293zM12.76 18.844a.031.031 0 0 1-.04-.02.033.033 0 0 1 .019-.042s.074-.03.113.033a.35.35 0 0 0 .06.074.131.131 0 0 0 .097.039c.018-.002.033.012.034.03.002.019-.012.035-.029.036a.192.192 0 0 1-.142-.054.415.415 0 0 1-.072-.088c-.012-.018-.04-.008-.04-.008" fill="#FCEE1F"/><path d="M12.563 19.038c-.001.017-.017.031-.034.029-.018-.002-.03-.019-.028-.037 0-.001.034-.528 2.097-.874a.032.032 0 0 1 .036.028c.003.018-.009.035-.026.037-2.015.338-2.044.815-2.044.817" fill="#FCEE1F"/><path d="M12.999 18.678a.033.033 0 0 1-.025-.039.031.031 0 0 1 .037-.026s.154.03.178.132a.291.291 0 0 0 .047.109c.022.029.053.05.097.053.018.001.03.017.03.036a.032.032 0 0 1-.034.03.187.187 0 0 1-.142-.078.363.363 0 0 1-.059-.134c-.014-.06-.128-.083-.129-.083M13.334 18.568a.035.035 0 0 1 0-.047.03.03 0 0 1 .045 0s.063.066.13.078c.05.009.076.054.104.101.024.04.05.082.086.087.017.002.029.019.027.037a.032.032 0 0 1-.036.028c-.065-.009-.099-.064-.13-.117-.021-.034-.04-.067-.063-.07-.086-.016-.164-.097-.164-.097M13.645 18.451a.033.033 0 0 1 .024-.04.032.032 0 0 1 .038.026s.04.19.24.202c.017 0 .03.017.03.035-.002.018-.017.032-.034.031-.248-.015-.298-.253-.298-.254M13.961 18.408a.034.034 0 0 1-.001-.047.03.03 0 0 1 .044-.002s.104.102.145.159c.027.038.067.034.067.034a.032.032 0 0 1 .035.03.033.033 0 0 1-.028.036s-.076.008-.125-.06c-.037-.051-.137-.15-.137-.15zM14.16 18.352a.034.034 0 0 1 .012-.045.031.031 0 0 1 .043.014c0 .001.142.286.23.064a.032.032 0 0 1 .042-.019.034.034 0 0 1 .017.044c-.141.354-.344-.057-.345-.058zM14.309 18.206c-.002.018-.018.032-.035.03-.017-.002-.03-.019-.028-.037 0 0 .022-.213.142-.204.018.002.03.017.03.036-.002.018-.017.032-.034.03-.06-.004-.075.145-.075.145zM14.136 18.263a.032.032 0 0 1-.032.033.032.032 0 0 1-.031-.033s0-.205.14-.315a.03.03 0 0 1 .044.007.035.035 0 0 1-.006.047c-.115.09-.115.261-.115.262M13.906 18.32c.002.018-.011.034-.028.036a.032.032 0 0 1-.035-.03s-.021-.192.09-.277c.088-.069.13-.168.13-.168a.031.031 0 0 1 .041-.017.034.034 0 0 1 .017.044s-.049.115-.151.194c-.081.062-.064.217-.064.218zM13.665 18.352a.034.034 0 0 1-.01.046.03.03 0 0 1-.044-.01s-.091-.151.005-.244c.023-.021.043-.038.062-.053.039-.03.065-.052.068-.1.001-.017.017-.032.034-.03.018.001.03.017.03.036-.006.077-.042.105-.094.147-.017.013-.037.03-.058.05-.057.054.006.158.006.158M13.3 18.501a.034.034 0 0 1-.011.045.031.031 0 0 1-.043-.012s-.096-.17.037-.302c.057-.056.087-.086.104-.109a.23.23 0 0 0 .035-.073.031.031 0 0 1 .04-.02.034.034 0 0 1 .02.043.276.276 0 0 1-.045.091c-.021.028-.052.058-.11.116-.097.096-.027.22-.027.22M13.14 18.071a.03.03 0 0 1-.045.007.035.035 0 0 1-.007-.047c.001-.001.324-.459.331-.519a2.072 2.072 0 0 1 .048-.218c.09-.318.337-.993 1.012-2.084.123-.271.234-.503.234-.504a.03.03 0 0 1 .042-.015.034.034 0 0 1 .015.045s-.111.233-.234.504l-.002.004c-.673 1.086-.918 1.754-1.006 2.069a1.96 1.96 0 0 0-.046.207c-.01.078-.342.55-.343.551" fill="#FCEE1F"/><path d="M13.81 16.526c.004.018-.007.036-.025.04a.031.031 0 0 1-.037-.027s-.05-.263-.013-.734a.032.032 0 0 1 .035-.03c.017.002.03.018.029.036-.037.461.011.715.011.715M14.069 16.07a.033.033 0 0 1-.022.041c-.017.006-.034-.005-.04-.022 0-.001-.075-.267-.049-.392a.697.697 0 0 1 .049-.157v-.367c0-.018.014-.033.031-.033.018 0 .032.015.032.033v.376a.036.036 0 0 1-.005.018s-.022.034-.045.144c-.023.108.048.359.048.36M14.23 15.701a.031.031 0 0 1-.04.022.034.034 0 0 1-.021-.041s.06-.2.024-.425v-.002c-.03-.19.018-.385.046-.499a.995.995 0 0 0 .016-.067.032.032 0 0 1 .036-.028c.017.004.029.02.026.039-.002.018-.009.042-.016.073-.027.109-.073.295-.046.471v.001a1.13 1.13 0 0 1-.025.455M14.453 15.318a.032.032 0 0 1-.034.031.033.033 0 0 1-.03-.036l.075-1.01c.001-.017.016-.031.034-.03.017.001.03.017.029.036l-.074 1.009zM14.561 14.888a.031.031 0 0 1-.04.019.034.034 0 0 1-.018-.044s.159-.41.182-.575c.025-.169.05-.437.05-.438.002-.018.017-.032.034-.03.017.002.03.018.028.036 0 .001-.024.275-.05.442-.024.172-.186.589-.186.59M12.951 18.602a.032.032 0 0 1-.037.027c-.017-.004-.028-.021-.025-.04 0 0 .037-.213.22-.405l.018-.018c.172-.182.326-.344.898-.435a.032.032 0 0 1 .037.028.033.033 0 0 1-.027.038c-.552.087-.699.242-.863.415l-.018.019a.788.788 0 0 0-.203.37M13.28 17.907a.032.032 0 0 1-.039-.023.033.033 0 0 1 .023-.041c.001 0 .534-.145.791-.595l.001-.002a6.436 6.436 0 0 1 .275-.43c.274-.391.623-.804.88-.966.124-.078.222-.126.297-.163.127-.063.182-.09.182-.178 0-.019.014-.034.031-.034.018 0 .032.015.032.034 0 .13-.066.162-.218.238-.074.036-.17.084-.291.16-.25.157-.591.563-.861.949a6.407 6.407 0 0 0-.272.424l-.002.002c-.27.474-.828.625-.829.625z" fill="#FCEE1F"/><path d="M13.871 17.625a.035.035 0 0 1-.008-.046.031.031 0 0 1 .043-.01c.001.001.255.184.36-.007a.031.031 0 0 1 .044-.012c.015.009.02.03.012.045-.14.253-.45.03-.45.03zM14.154 17.238a.034.034 0 0 1-.01-.046.03.03 0 0 1 .043-.01c.001 0 .312.206.523-.05a.03.03 0 0 1 .045-.003.034.034 0 0 1 .003.047c-.247.3-.603.063-.604.062M14.34 17.002a.031.031 0 0 1-.042.015.034.034 0 0 1-.015-.044s.115-.26.558-.26c.017 0 .031.016.031.034a.033.033 0 0 1-.031.034c-.403 0-.5.22-.5.221M14.664 16.497a.034.034 0 0 1-.008-.047.03.03 0 0 1 .045-.008s.182.14.397.088a.032.032 0 0 1 .038.024.033.033 0 0 1-.024.04.58.58 0 0 1-.448-.097zM14.875 16.238a.034.034 0 0 1-.007-.046.03.03 0 0 1 .043-.009c.001.001.232.175.375.108a.03.03 0 0 1 .041.017.034.034 0 0 1-.016.044c-.175.081-.436-.114-.436-.115M15.145 15.942a.033.033 0 0 1 .023-.04.031.031 0 0 1 .038.024s.047.197.216.197c.018 0 .032.014.032.033a.033.033 0 0 1-.032.033c-.218 0-.277-.246-.277-.246M15.33 15.796a.033.033 0 0 1-.024.04.032.032 0 0 1-.038-.024s-.042-.18.11-.225c.101-.03.1-.097.1-.097 0-.018.015-.033.033-.033.017 0 .031.014.03.033 0 0 0 .117-.146.161-.093.028-.066.145-.066.145z" fill="#FCEE1F"/><path d="M15.154 15.933a.032.032 0 0 1-.032.033.032.032 0 0 1-.031-.033s0-.306.11-.48c.01-.016.03-.02.045-.01s.019.03.01.046c-.101.158-.101.443-.101.444M14.836 16.243a.033.033 0 0 1-.027.038.032.032 0 0 1-.035-.029s-.04-.284.072-.331a.58.58 0 0 0 .158-.114l.034-.321c.002-.018.017-.032.034-.03.018.002.03.02.029.037l-.036.331a.032.032 0 0 1-.009.022s-.092.097-.187.137c-.065.027-.033.26-.033.26" fill="#FCEE1F"/><path d="M14.59 16.525a.032.032 0 0 1-.031.033c-.018 0-.032-.015-.032-.033 0 0 0-.176.11-.369a.99.99 0 0 0 .12-.356.032.032 0 0 1 .034-.03c.018.002.03.019.028.037 0 0-.018.192-.127.384-.101.177-.101.334-.101.334" fill="#FCEE1F"/><path d="M14.396 16.806c-.001.018-.017.032-.034.03-.018-.002-.03-.02-.028-.037 0-.002.054-.553.227-.654.016-.01.034-.003.043.013a.034.034 0 0 1-.012.045c-.144.084-.195.602-.196.603z" fill="#FCEE1F"/><path d="M14.026 17.402a.032.032 0 0 1-.038.025.033.033 0 0 1-.024-.04c0-.002.123-.572.266-.802a3.297 3.297 0 0 1 .131-.36c.159-.365.421-.808.696-.932a.03.03 0 0 1 .042.018.033.033 0 0 1-.017.043c-.258.116-.51.545-.664.898-.03.069-.056.135-.078.196a2.12 2.12 0 0 0-.055.17c-.137.217-.26.782-.26.784" fill="#FCEE1F"/><path d="M14.728 15.689a.031.031 0 0 1-.043.016.034.034 0 0 1-.014-.045c.001-.003.53-1.167.813-1.576a.03.03 0 0 1 .044-.008c.014.011.018.032.008.047-.28.404-.807 1.563-.808 1.566M14.59 15.867c-.005.018-.021.03-.038.025-.018-.004-.028-.021-.024-.04 0-.003.228-1.048.193-1.487-.002-.018.011-.035.029-.036a.032.032 0 0 1 .034.03c.036.449-.194 1.505-.195 1.508z" fill="#FCEE1F"/><path d="M14.747 15.39a.032.032 0 0 1-.041.02.034.034 0 0 1-.019-.043c0-.001.174-.474.157-.744-.005-.073-.01-.134-.016-.189-.015-.166-.025-.273.019-.364a.031.031 0 0 1 .042-.015.034.034 0 0 1 .014.045c-.035.074-.026.173-.012.328l.015.191c.018.285-.16.77-.16.772M15.06 14.66a.03.03 0 0 1-.045.005.034.034 0 0 1-.006-.046c.001 0 .278-.383.312-.542a.032.032 0 0 1 .038-.025.033.033 0 0 1 .024.04c-.037.173-.322.566-.323.567zM15.504 11.55a.031.031 0 0 1 .038-.026.033.033 0 0 1 .024.04c-.002.006-.432 1.988-.57 2.83-.004.018-.02.03-.037.027a.033.033 0 0 1-.026-.039c.139-.841.57-2.827.571-2.832" fill="#FCEE1F"/><path d="M15.044 14.078a.031.031 0 0 1-.041-.017.034.034 0 0 1 .017-.044s.22-.095.352-.47a.031.031 0 0 1 .04-.02.034.034 0 0 1 .02.043c-.142.402-.387.508-.388.508M15.208 13.48a.03.03 0 0 1-.045.004.035.035 0 0 1-.005-.047s.125-.16.36-.392a.03.03 0 0 1 .044.002.034.034 0 0 1 0 .047c-.232.228-.354.384-.354.385M15.252 13.045a.033.033 0 0 1-.032-.033c0-.018.014-.033.031-.033 0 0 .146 0 .205-.126.067-.139.093-.278.093-.279a.032.032 0 0 1 .038-.026.033.033 0 0 1 .025.04s-.028.147-.1.295c-.077.162-.26.162-.26.162zM15.343 12.618a.03.03 0 0 1-.045 0 .034.034 0 0 1 0-.046c0-.001.213-.224.238-.33.027-.111.027-.28.027-.28 0-.018.014-.033.031-.033s.032.014.032.033c0 0 0 .177-.029.296-.029.123-.254.36-.255.36M15.332 11.648a.031.031 0 0 1 .041-.018.033.033 0 0 1 .017.043c0 .001-.108.266.033.3.017.004.027.022.024.04a.032.032 0 0 1-.038.025c-.216-.052-.077-.39-.077-.39M15.179 11.858a.032.032 0 0 1 .035-.029c.018.002.03.019.028.037 0 .003-.107.91.007.958.017.006.024.026.018.043a.031.031 0 0 1-.041.018c-.16-.067-.048-1.024-.047-1.027" fill="#FCEE1F"/><path d="M15.16 13.428a.034.034 0 0 1-.025.04.031.031 0 0 1-.037-.025c0-.003-.165-.781-.165-.888 0-.106.034-.22.103-.244l-.007-.012c-.035-.061-.093-.162-.053-.281l.246-.734a.032.032 0 0 1 .041-.02.034.034 0 0 1 .02.043l-.247.733c-.03.09.018.174.047.225.015.026.027.046.027.065 0 .028-.014.043-.047.043-.045 0-.067.095-.067.183 0 .1.163.87.164.873" fill="#FCEE1F"/><path d="M15.108 11.668c.018.003.03.02.027.038a.032.032 0 0 1-.036.028s-.195-.023.065-.77a.031.031 0 0 1 .041-.019.034.034 0 0 1 .019.043c-.233.669-.116.68-.116.68z" fill="#FCEE1F"/><path d="M15.054 11.43a.034.034 0 0 1-.004.046.03.03 0 0 1-.045-.005s-.093-.108.118-.841a.032.032 0 0 1 .039-.023.034.034 0 0 1 .021.042c-.2.699-.13.78-.129.78" fill="#FCEE1F"/><path d="M15.023 11.095a.034.034 0 0 1-.009.047.031.031 0 0 1-.044-.01s-.09-.133.078-.752a.032.032 0 0 1 .04-.023.033.033 0 0 1 .021.041c-.16.59-.087.697-.086.697M14.922 10.881a.032.032 0 0 1-.032.033.032.032 0 0 1-.032-.033s0-.186.125-.664a.031.031 0 0 1 .039-.023.034.034 0 0 1 .022.04c-.122.47-.122.647-.122.647z" fill="#FCEE1F"/><path d="M14.336 9.88a.034.034 0 0 1 .012-.046.03.03 0 0 1 .043.013c0 .001.174.332.29.355a.033.033 0 0 1 .026.026l.032.129c.114.454.374 1.481.165 2.636a.032.032 0 0 1-.037.027c-.017-.003-.028-.021-.025-.04.206-1.14-.05-2.157-.165-2.607l-.028-.112c-.142-.055-.313-.38-.313-.382" fill="#FCEE1F"/><path d="M14.34 10.248a.035.035 0 0 1 .002-.047.03.03 0 0 1 .045.002s.186.213.347.322c.015.01.02.031.01.046a.03.03 0 0 1-.044.01 2.383 2.383 0 0 1-.36-.333zM14.36 10.665a.034.034 0 0 1-.005-.046.03.03 0 0 1 .045-.006c.001 0 .247.209.408.209.018 0 .032.015.032.033 0 .019-.014.034-.032.034-.183 0-.446-.223-.447-.224M14.406 10.877a.033.033 0 0 1 .028-.037c.017-.002.033.01.035.029 0 0 .014.125.109.153.122.037.324.222.324.223a.035.035 0 0 1 .004.047.03.03 0 0 1-.045.003s-.193-.176-.3-.209c-.136-.04-.155-.208-.155-.209M14.413 11.135a.034.034 0 0 1 .005-.047.03.03 0 0 1 .044.006s.086.114.177.153c.104.046.272.214.273.214a.035.035 0 0 1 0 .047.03.03 0 0 1-.044.001s-.16-.16-.254-.2c-.106-.047-.2-.174-.201-.174M14.459 11.38a.034.034 0 0 1 .014-.046.03.03 0 0 1 .042.015s.067.14.191.164c.166.03.166.222.166.222a.032.032 0 0 1-.031.034c-.018 0-.032-.015-.032-.033 0 0 0-.137-.114-.158-.156-.028-.237-.198-.237-.199" fill="#FCEE1F"/><path d="M14.607 11.689c-.016-.007-.024-.026-.018-.043a.032.032 0 0 1 .04-.02c.002 0 .28.11.309.285a.033.033 0 0 1-.026.038c-.018.004-.034-.009-.037-.027-.022-.137-.267-.233-.268-.233zM14.66 11.947a.035.035 0 0 1 .004-.047.03.03 0 0 1 .044.003s.143.174.206.154a.031.031 0 0 1 .039.022.034.034 0 0 1-.021.042c-.102.032-.271-.174-.271-.174M14.737 12.251a.034.034 0 0 1-.002-.047.03.03 0 0 1 .045-.001s.139.136.165.258a.033.033 0 0 1-.024.04.032.032 0 0 1-.038-.025c-.022-.102-.146-.224-.147-.225" fill="#FCEE1F"/><path d="M14.428 11.503a.035.035 0 0 1 .008-.046.03.03 0 0 1 .044.01s.226.351.334 1.257a.033.033 0 0 1-.027.037.032.032 0 0 1-.035-.03c-.107-.889-.324-1.226-.324-1.227" fill="#FCEE1F"/><path d="M14.448 12.346a.034.034 0 0 1 0-.047.03.03 0 0 1 .045 0c.001.001.549.549.271 1.44a.031.031 0 0 1-.04.021c-.016-.005-.025-.024-.02-.042.265-.851-.254-1.37-.255-1.372" fill="#FCEE1F"/><path d="M14.81 13.026a.033.033 0 0 1 .026-.038.032.032 0 0 1 .036.029c0 .002.098.764.171.985a.033.033 0 0 1-.02.042.031.031 0 0 1-.04-.02c-.074-.228-.173-.996-.174-.998zM14.165 12.274a.032.032 0 0 1 .036-.028c.017.002.03.02.027.038 0 .001-.066.429.21.719l.002.002a.676.676 0 0 1 .106.152c.03.056.053.118.07.182.093.326.055.73-.006.92a.032.032 0 0 1-.04.022.034.034 0 0 1-.02-.042c.058-.183.095-.569.006-.881a.9.9 0 0 0-.066-.17.592.592 0 0 0-.095-.136s-.002 0-.002-.002c-.3-.314-.229-.775-.228-.776" fill="#FCEE1F"/><path d="M14.292 12.356a.031.031 0 0 1 .04-.023.033.033 0 0 1 .022.04s-.034.129.008.194c.06.095-.024.242-.024.242a.031.031 0 0 1-.043.012.035.035 0 0 1-.012-.046s.064-.111.026-.171c-.057-.09-.017-.247-.017-.248zM14.476 12.501c-.003-.018.008-.036.025-.039a.032.032 0 0 1 .037.026c0 .001.075.397.011.6a.031.031 0 0 1-.04.02.034.034 0 0 1-.02-.041c.06-.186-.013-.565-.013-.566" fill="#FCEE1F"/><path d="M14.69 12.737a.03.03 0 0 1 .043-.012c.015.009.02.029.012.045 0 .001-.228.419.045.522a.034.034 0 0 1 .019.042.031.031 0 0 1-.041.02c-.344-.13-.08-.615-.079-.617M14.069 12.883c0-.018.013-.033.031-.033.018 0 .032.014.032.033 0 0 0 .148.252.148.018 0 .032.015.032.033a.033.033 0 0 1-.032.034c-.315 0-.315-.214-.315-.214M14.13 13.132c0-.018.012-.035.03-.036a.032.032 0 0 1 .034.03s.01.138.116.138c.144 0 .21 0 .304.086a.035.035 0 0 1 .004.047.03.03 0 0 1-.045.003c-.077-.07-.135-.07-.263-.07-.165 0-.18-.197-.18-.198M14.082 13.38a.033.033 0 0 1 .025-.038.031.031 0 0 1 .036.027s.02.128.18.128c.203 0 .335.25.335.25a.034.034 0 0 1-.012.045.03.03 0 0 1-.043-.013s-.114-.216-.28-.216a.228.228 0 0 1-.241-.183M14.195 13.674a.034.034 0 0 1 .015-.044.031.031 0 0 1 .042.015s.104.23.174.24a.162.162 0 0 1 .084.042c.06.054.1.156.091.279-.001.018-.016.032-.034.03-.018-.002-.03-.018-.029-.036.008-.1-.023-.181-.069-.223a.119.119 0 0 0-.026-.017.087.087 0 0 0-.026-.009c-.103-.015-.221-.276-.222-.277M14.39 9.386c.001-.018.016-.032.034-.03.018.001.03.017.029.035 0 .002-.039.459.201.553a.033.033 0 0 1 .019.043.031.031 0 0 1-.04.02c-.287-.113-.244-.62-.243-.622M14.72 9.644a.033.033 0 0 1 .026-.038c.017-.003.033.009.036.027 0 0 .06.353-.018.577a.031.031 0 0 1-.04.02.034.034 0 0 1-.02-.042c.072-.208.016-.543.015-.545M14.867 9.951c-.001-.018.012-.034.03-.035.018 0 .032.013.033.032 0 0 .017.328-.111.57a.03.03 0 0 1-.043.013.034.034 0 0 1-.012-.045c.119-.225.103-.534.103-.535zM13.439 17.575a.033.033 0 0 1-.028-.037c.002-.018.017-.032.035-.03 0 0 .294.04.448-.27a.03.03 0 0 1 .043-.013.034.034 0 0 1 .013.045c-.174.351-.51.305-.511.305M13.538 17.24a.034.034 0 0 1-.015-.044.031.031 0 0 1 .042-.015s.169.088.359-.178a.031.031 0 0 1 .044-.006c.014.01.017.031.006.046-.221.31-.435.198-.436.197M13.708 16.818a.034.034 0 0 1 0-.047.03.03 0 0 1 .044 0s.163.17.293-.08c.009-.015.028-.021.043-.012.015.009.02.029.013.045-.171.326-.392.095-.393.094M13.858 16.428a.034.034 0 0 1 0-.047.03.03 0 0 1 .046.002s.151.172.293-.04a.031.031 0 0 1 .045-.008c.014.01.017.031.007.046-.187.278-.39.048-.391.047zM14.015 16.072a.033.033 0 0 1 .02-.043.031.031 0 0 1 .04.021s.055.175.24.041a.03.03 0 0 1 .045.009.034.034 0 0 1-.009.046c-.253.183-.335-.073-.335-.074M14.166 15.74a.034.034 0 0 1 .02-.042c.017-.006.035.004.04.022 0 0 .065.225.205.033.011-.014.031-.018.045-.006a.034.034 0 0 1 .005.046c-.215.296-.315-.052-.316-.054" fill="#FCEE1F"/><path fill-rule="evenodd" clip-rule="evenodd" d="M8.037 18.588c-.045-.315-.265-1.485-1.077-1.632-.162.308-.133.77-.133.77s-.088-.57-.205-.708c-.117-.617-.323-2.019-1.013-2.589l.014-.123s.617-.955.22-2.157c-.175.03-.22.108-.22.108s-.152-.463.592-.97c-.03-.153-.176-.159-.285-.102a2.42 2.42 0 0 0-.272.184l-.085-.063s.212-.644.089-2.005c-.01-.068-.119-.047-.252.088-.133.134-.712.63-.704 2.278-.181-.147-.271-.19-.32-.302-.132.405-.149 1.596.073 2.683.025.078-.065.008-.065.008s-.239-.396-.617-.517c.066.19.05.198.05.293 0 .095 0 .147.172.285.172.138.731.526.838.992.107.466-.329.293-.42.302-.09.008-.328-.052-.18.336.148.388.56.811.88 1.14.14.137.016.344-.123.413-.058.052-.09-.043-.132-.095-.04-.051-.098-.034-.123.053-.025.086-.041.22-.132.25-.09.03.062.134.16.15.1.018.3.057.51-.034.21-.09.296-.036.303.05.008.085.206.109.206.109s-.412.13-.486.38c-.041.3.733.647.91.707.251.086.603.168 1.078.209.099.034.148.13.082.18-.066.053-.194.35.102.577.043.033.121-.177.15-.35l.086 1.497s1.212.093 2.29.805v-2.437l-.002-.002a5.054 5.054 0 0 0-1.96-.76" fill="url(#j)"/><path d="M7.033 17.093a.032.032 0 0 0-.035-.03c-.017.002-.03.019-.028.037 0 .001.046.431.147.573l.052.07c.145.194.471.63.537.956.003.018.02.029.037.025.017-.003.028-.02.025-.039-.069-.341-.402-.786-.55-.984l-.05-.068c-.091-.127-.134-.54-.135-.54z" fill="#FCEE1F"/><path d="M7.813 17.996c0-.018-.013-.034-.03-.035a.033.033 0 0 0-.034.032 9.4 9.4 0 0 1-.037.618.033.033 0 0 0 .024.04.032.032 0 0 0 .038-.025c.02-.09.039-.629.039-.63M7.61 17.6a.03.03 0 0 0-.044-.009.035.035 0 0 0-.01.046s.084.132.079.31c-.004.094-.03.154-.052.207a.334.334 0 0 0-.038.158c0 .018.016.032.033.031.018 0 .03-.017.03-.035a.272.272 0 0 1 .032-.127.594.594 0 0 0 .058-.232.663.663 0 0 0-.089-.348zM7.44 17.443a.03.03 0 0 0-.044-.003.035.035 0 0 0-.003.047s.062.07.056.17c-.005.109-.093.331-.093.331a.033.033 0 0 0 .017.044.031.031 0 0 0 .041-.018s.092-.233.099-.353c.007-.128-.072-.218-.072-.219M7.32 17.35a.032.032 0 0 0-.038-.025.033.033 0 0 0-.023.04s.04.165-.096.326a.034.034 0 0 0 .003.047.03.03 0 0 0 .045-.003.462.462 0 0 0 .109-.385M7.088 17.632a.032.032 0 0 0 .035-.03.033.033 0 0 0-.029-.036s-.13-.011-.15-.115c-.025-.122-.02-.184-.02-.184a.033.033 0 0 0-.028-.037.032.032 0 0 0-.034.03s-.007.072.02.204c.03.152.207.168.207.168M7.359 18.055a.034.034 0 0 0-.025-.04c-.017-.003-.034.008-.038.026 0 0-.016.077-.045.09a.863.863 0 0 0-.018.009c-.023.011-.035.018-.116-.021a.03.03 0 0 0-.042.015.034.034 0 0 0 .015.045c.108.053.13.042.171.02l.015-.006c.06-.027.083-.137.083-.138zM7.49 18.31a.032.032 0 0 0 .035-.03c.002-.017-.01-.034-.027-.036 0 0-.115-.017-.158.054l-.002.003a.133.133 0 0 1-.028.032c-.031.025-.073.04-.112.026a.031.031 0 0 0-.04.02.034.034 0 0 0 .018.042c.062.024.128.002.173-.037a.236.236 0 0 0 .042-.048l.001-.001v-.001c.022-.036.097-.025.098-.025z" fill="#FCEE1F"/><path d="M7.745 18.665c.018-.001.03-.017.03-.035a.032.032 0 0 0-.034-.032s-.167.012-.191-.07a.031.031 0 0 0-.04-.022.032.032 0 0 0-.02.022c-.016.05-.042.074-.067.082-.028.01-.059.005-.078.002a.032.032 0 0 0-.036.028.033.033 0 0 0 .027.038c.026.003.065.01.107-.005.03-.01.06-.03.082-.068.074.07.22.06.22.06M7.56 18.977a.034.034 0 0 0-.012-.045.03.03 0 0 0-.043.012l-.096.174a.034.034 0 0 0 .012.046.03.03 0 0 0 .043-.013l.095-.174zM7.472 19.284a.035.035 0 0 0-.002-.047.03.03 0 0 0-.044.003s-.123.135-.026.383a.031.031 0 0 0 .041.018.033.033 0 0 0 .017-.043c-.081-.208.014-.314.014-.314M7.557 19.33a.032.032 0 0 0-.036-.027c-.017.003-.029.02-.026.038 0 0 .018.115-.013.27a.033.033 0 0 0 .024.04.032.032 0 0 0 .038-.027c.033-.167.013-.293.013-.293zM7.24 18.844a.031.031 0 0 0 .04-.02.033.033 0 0 0-.018-.042s-.075-.03-.114.033a.352.352 0 0 1-.06.074.132.132 0 0 1-.097.039c-.018-.002-.033.012-.034.03a.032.032 0 0 0 .03.036.193.193 0 0 0 .141-.054.413.413 0 0 0 .072-.088c.012-.018.04-.008.04-.008" fill="#FCEE1F"/><path d="M7.436 19.038c.002.017.018.031.035.029.018-.002.03-.019.028-.037 0-.001-.034-.528-2.097-.874a.032.032 0 0 0-.036.028c-.003.018.009.035.026.037 2.015.338 2.044.815 2.044.817" fill="#FCEE1F"/><path d="M7.001 18.678a.033.033 0 0 0 .025-.039.031.031 0 0 0-.037-.026s-.154.03-.178.132a.292.292 0 0 1-.047.109.127.127 0 0 1-.097.053c-.018.001-.03.017-.03.036.001.018.016.032.034.03a.187.187 0 0 0 .142-.078c.031-.04.049-.09.059-.134.014-.06.128-.083.129-.083M6.666 18.568a.035.035 0 0 0 0-.047.03.03 0 0 0-.045 0s-.063.066-.13.078c-.05.009-.076.054-.105.101-.024.04-.05.082-.085.087a.033.033 0 0 0-.027.037.032.032 0 0 0 .035.028c.066-.009.1-.064.13-.117.022-.034.041-.067.063-.07.087-.016.164-.097.164-.097M6.355 18.451a.033.033 0 0 0-.024-.04.032.032 0 0 0-.038.026s-.04.19-.24.202a.032.032 0 0 0-.029.035c0 .018.016.032.033.031.248-.015.298-.253.298-.254M6.039 18.408a.034.034 0 0 0 0-.047.03.03 0 0 0-.044-.002s-.104.102-.144.159c-.027.038-.067.034-.067.034a.032.032 0 0 0-.035.03.033.033 0 0 0 .028.036s.076.008.125-.06c.036-.051.137-.15.137-.15M5.84 18.352a.034.034 0 0 0-.013-.045.031.031 0 0 0-.042.014c0 .001-.142.286-.23.064a.032.032 0 0 0-.042-.019.034.034 0 0 0-.017.044c.14.354.344-.057.345-.058zM5.691 18.206c.002.018.018.032.035.03.018-.002.03-.019.028-.037 0 0-.022-.213-.142-.204a.033.033 0 0 0-.03.036c.002.018.017.032.034.03.06-.004.075.145.075.145zM5.864 18.263c0 .019.015.033.032.033a.032.032 0 0 0 .031-.033s0-.205-.14-.315a.03.03 0 0 0-.044.007.035.035 0 0 0 .006.047c.115.09.115.261.115.262M6.094 18.32c-.002.018.011.034.028.036a.032.032 0 0 0 .035-.03s.021-.192-.09-.277c-.088-.069-.13-.168-.13-.168a.032.032 0 0 0-.042-.017.034.034 0 0 0-.016.044s.048.115.15.194c.081.062.065.217.065.218M6.335 18.352a.034.034 0 0 0 .01.046c.015.01.035.005.044-.01 0 0 .09-.151-.005-.244-.023-.021-.044-.038-.062-.053-.039-.03-.065-.052-.068-.1-.002-.017-.017-.032-.034-.03a.033.033 0 0 0-.03.036c.006.077.042.105.094.147a.7.7 0 0 1 .057.05c.057.054-.005.158-.005.158M6.7 18.501a.034.034 0 0 0 .011.045.031.031 0 0 0 .044-.012s.095-.17-.038-.302a1.294 1.294 0 0 1-.104-.109.233.233 0 0 1-.035-.073.031.031 0 0 0-.04-.02.034.034 0 0 0-.02.043c.014.04.023.062.046.091.02.028.052.058.11.116.096.096.026.22.026.22M6.861 18.071a.03.03 0 0 0 .044.007.035.035 0 0 0 .007-.047c0-.001-.324-.459-.33-.519a2.08 2.08 0 0 0-.048-.218c-.09-.318-.338-.993-1.013-2.084-.124-.271-.234-.503-.234-.504a.031.031 0 0 0-.043-.015.034.034 0 0 0-.014.045s.11.233.234.504l.002.004c.672 1.086.918 1.754 1.006 2.069a1.94 1.94 0 0 1 .046.207c.01.078.342.55.343.551z" fill="#FCEE1F"/><path d="M6.189 16.526c-.003.018.008.036.025.04a.031.031 0 0 0 .037-.027s.05-.263.013-.734a.032.032 0 0 0-.035-.03c-.017.002-.03.018-.029.036.037.461-.011.715-.011.715M5.931 16.07c-.005.018.005.036.021.041.017.006.035-.005.04-.022 0-.001.076-.267.05-.392a.699.699 0 0 0-.05-.157v-.367a.032.032 0 0 0-.03-.033.032.032 0 0 0-.032.033v.376c0 .006.001.012.005.018 0 0 .021.034.045.144.023.108-.049.359-.049.36zM5.77 15.701a.031.031 0 0 0 .04.022.034.034 0 0 0 .021-.041s-.06-.2-.024-.425v-.002c.03-.19-.018-.385-.046-.499a1.046 1.046 0 0 1-.016-.067.032.032 0 0 0-.036-.028.033.033 0 0 0-.026.039c.002.018.009.042.016.073.027.109.073.295.045.471v.001c-.038.241.026.455.026.455M5.547 15.318a.032.032 0 0 0 .034.031.033.033 0 0 0 .03-.036l-.075-1.01c0-.017-.016-.031-.033-.03a.033.033 0 0 0-.03.036l.074 1.009zM5.438 14.888a.031.031 0 0 0 .042.019.034.034 0 0 0 .017-.044s-.159-.41-.183-.575c-.025-.169-.049-.437-.049-.438-.002-.018-.017-.032-.034-.03a.033.033 0 0 0-.029.036c0 .001.025.275.05.442.025.172.186.589.187.59M7.049 18.602c.003.018.02.03.037.027.017-.004.028-.021.025-.04 0 0-.037-.213-.22-.405l-.018-.018c-.172-.182-.326-.344-.899-.435a.032.032 0 0 0-.036.028.033.033 0 0 0 .027.038c.552.087.699.242.863.415l.018.019c.17.178.203.37.203.37M6.72 17.907a.032.032 0 0 0 .04-.023.034.034 0 0 0-.023-.041c-.002 0-.535-.145-.792-.595v-.002a4.917 4.917 0 0 0-.276-.43c-.274-.391-.622-.804-.88-.966a3.02 3.02 0 0 0-.296-.163c-.128-.063-.182-.09-.182-.178a.033.033 0 0 0-.032-.034.033.033 0 0 0-.031.034c0 .13.065.162.218.238.074.036.17.084.29.16.25.157.592.563.862.949a6.366 6.366 0 0 1 .272.424v.002c.272.474.829.625.83.625z" fill="#FCEE1F"/><path d="M6.129 17.625a.035.035 0 0 0 .009-.046.031.031 0 0 0-.044-.01c-.001.001-.254.184-.36-.007a.031.031 0 0 0-.044-.012.035.035 0 0 0-.012.045c.14.253.45.03.451.03zM5.846 17.238c.015-.01.02-.03.01-.046a.03.03 0 0 0-.043-.01s-.312.206-.523-.05a.03.03 0 0 0-.045-.003.034.034 0 0 0-.003.047c.247.3.604.063.605.062M5.66 17.002a.03.03 0 0 0 .042.015.034.034 0 0 0 .015-.044s-.115-.26-.557-.26c-.018 0-.032.016-.032.034 0 .019.014.034.032.034.402 0 .5.22.5.221M5.337 16.497a.034.034 0 0 0 .007-.047.03.03 0 0 0-.044-.008s-.183.14-.397.088a.032.032 0 0 0-.038.024.033.033 0 0 0 .024.04.58.58 0 0 0 .448-.097zM5.125 16.238a.034.034 0 0 0 .008-.046.03.03 0 0 0-.044-.009c0 .001-.232.175-.374.108a.03.03 0 0 0-.042.017.034.034 0 0 0 .016.044c.176.081.436-.114.437-.115M4.856 15.942a.033.033 0 0 0-.023-.04.031.031 0 0 0-.038.024s-.047.197-.217.197a.032.032 0 0 0-.031.033c0 .018.014.033.031.033.219 0 .278-.246.278-.246M4.67 15.796a.033.033 0 0 0 .024.04.032.032 0 0 0 .038-.024s.042-.18-.11-.225c-.101-.03-.1-.097-.1-.097a.033.033 0 0 0-.033-.033.032.032 0 0 0-.031.033s0 .117.146.161c.094.028.066.145.066.145z" fill="#FCEE1F"/><path d="M4.846 15.933c0 .019.014.033.032.033a.032.032 0 0 0 .031-.033s0-.306-.11-.48a.031.031 0 0 0-.045-.01.035.035 0 0 0-.01.046c.102.158.102.443.102.444M5.163 16.243a.034.034 0 0 0 .027.038.032.032 0 0 0 .036-.029s.039-.284-.072-.331a.58.58 0 0 1-.158-.114l-.034-.321c-.002-.018-.018-.032-.035-.03-.017.002-.03.02-.028.037l.035.331c0 .008.004.016.01.022 0 0 .092.097.186.137.065.027.034.26.034.26" fill="#FCEE1F"/><path d="M5.41 16.525c0 .019.014.033.031.033.018 0 .032-.015.032-.033 0 0 0-.176-.11-.369a.989.989 0 0 1-.12-.356.032.032 0 0 0-.034-.03.033.033 0 0 0-.029.037s.019.192.128.384c.101.177.101.334.101.334" fill="#FCEE1F"/><path d="M5.604 16.806c.002.018.017.032.035.03.017-.002.03-.02.028-.037 0-.002-.055-.553-.228-.654-.015-.01-.034-.003-.043.013a.034.034 0 0 0 .012.045c.144.084.195.602.196.603z" fill="#FCEE1F"/><path d="M5.975 17.402c.003.018.02.028.038.025a.033.033 0 0 0 .023-.04c0-.002-.123-.572-.265-.802a3.285 3.285 0 0 0-.131-.36c-.16-.365-.422-.808-.697-.932a.03.03 0 0 0-.042.018.034.034 0 0 0 .017.043c.258.116.51.545.664.898.03.069.056.135.078.196a2.104 2.104 0 0 1 .055.17c.138.217.26.782.26.784" fill="#FCEE1F"/><path d="M5.272 15.689a.031.031 0 0 0 .042.016.034.034 0 0 0 .015-.045c-.001-.003-.53-1.167-.813-1.576a.03.03 0 0 0-.045-.008.035.035 0 0 0-.007.047c.28.404.807 1.563.808 1.566M5.41 15.867c.004.018.022.03.039.025a.033.033 0 0 0 .024-.04c0-.003-.228-1.048-.194-1.487.002-.018-.011-.035-.029-.036a.032.032 0 0 0-.034.03c-.035.449.194 1.505.195 1.508z" fill="#FCEE1F"/><path d="M5.253 15.39a.032.032 0 0 0 .041.02.034.034 0 0 0 .019-.043c0-.001-.174-.474-.157-.744.005-.073.01-.134.016-.189.015-.166.025-.273-.019-.364a.031.031 0 0 0-.042-.015.034.034 0 0 0-.014.045c.035.074.026.173.012.328l-.015.191c-.018.285.16.77.16.772M4.94 14.66a.03.03 0 0 0 .045.005.034.034 0 0 0 .006-.046c-.001 0-.278-.383-.312-.542a.032.032 0 0 0-.038-.025.033.033 0 0 0-.023.04c.036.173.321.566.322.567zM4.496 11.55a.032.032 0 0 0-.038-.026.033.033 0 0 0-.024.04c.002.006.432 1.988.57 2.83.004.018.02.03.037.027a.033.033 0 0 0 .026-.039c-.139-.841-.57-2.827-.571-2.832" fill="#FCEE1F"/><path d="M4.956 14.078c.016.007.034 0 .041-.017a.034.034 0 0 0-.017-.044s-.22-.095-.352-.47a.031.031 0 0 0-.04-.02.034.034 0 0 0-.02.043c.142.402.387.508.388.508M4.793 13.48a.03.03 0 0 0 .044.004.034.034 0 0 0 .005-.047s-.125-.16-.36-.392a.03.03 0 0 0-.044.002.034.034 0 0 0 .001.047c.231.228.353.384.354.385M4.749 13.045a.033.033 0 0 0 .032-.033.032.032 0 0 0-.032-.033s-.145 0-.205-.126a1.288 1.288 0 0 1-.093-.279c-.003-.018-.02-.03-.037-.026a.033.033 0 0 0-.025.04s.028.147.099.295c.077.162.26.162.26.162zM4.658 12.618a.03.03 0 0 0 .044 0 .034.034 0 0 0 0-.046c0-.001-.213-.224-.238-.33-.027-.111-.027-.28-.027-.28a.033.033 0 0 0-.031-.033.033.033 0 0 0-.032.033s0 .177.028.296c.03.123.255.36.256.36M4.668 11.648a.031.031 0 0 0-.041-.018.033.033 0 0 0-.017.043c0 .001.108.266-.033.3-.017.004-.028.022-.024.04.004.018.02.029.038.025.215-.052.077-.39.077-.39M4.821 11.858c-.002-.018-.017-.031-.035-.029a.033.033 0 0 0-.028.037c0 .003.107.91-.007.958-.016.006-.024.026-.018.043a.031.031 0 0 0 .041.018c.16-.067.048-1.024.047-1.027" fill="#FCEE1F"/><path d="M4.84 13.428c-.003.018.007.036.024.04a.031.031 0 0 0 .038-.025c0-.003.165-.781.165-.888 0-.106-.034-.22-.103-.244l.007-.012c.035-.061.093-.162.053-.281l-.247-.734a.032.032 0 0 0-.04-.02.034.034 0 0 0-.02.043l.247.733c.03.09-.018.174-.047.225-.016.026-.027.046-.027.065 0 .028.014.043.047.043.044 0 .066.095.066.183 0 .1-.163.87-.163.873" fill="#FCEE1F"/><path d="M4.892 11.668a.033.033 0 0 0-.027.038c.003.018.02.03.036.028 0 0 .195-.023-.065-.77a.031.031 0 0 0-.04-.019.034.034 0 0 0-.02.043c.234.669.116.68.116.68z" fill="#FCEE1F"/><path d="M4.946 11.43a.034.034 0 0 0 .004.046.03.03 0 0 0 .045-.005s.093-.108-.118-.841a.032.032 0 0 0-.039-.023.034.034 0 0 0-.021.042c.2.699.13.78.129.78" fill="#FCEE1F"/><path d="M4.977 11.095a.034.034 0 0 0 .009.047c.014.01.034.005.044-.01 0 0 .09-.133-.078-.752a.032.032 0 0 0-.04-.023.033.033 0 0 0-.021.041c.16.59.087.697.086.697zM5.079 10.881c0 .019.014.033.031.033a.032.032 0 0 0 .032-.033s0-.186-.125-.664a.031.031 0 0 0-.039-.023.034.034 0 0 0-.022.04c.123.47.123.647.123.647z" fill="#FCEE1F"/><path d="M5.664 9.88a.034.034 0 0 0-.012-.046.03.03 0 0 0-.043.013c0 .001-.174.332-.29.355a.033.033 0 0 0-.026.026l-.032.129c-.114.454-.374 1.481-.165 2.636.003.018.02.03.037.027.017-.003.028-.021.025-.04-.206-1.14.05-2.157.165-2.607l.028-.112c.142-.055.313-.38.313-.382" fill="#FCEE1F"/><path d="M5.66 10.248a.035.035 0 0 0-.002-.047.03.03 0 0 0-.045.002s-.186.213-.348.322a.035.035 0 0 0-.009.046.03.03 0 0 0 .044.01 2.38 2.38 0 0 0 .36-.333zM5.64 10.665a.034.034 0 0 0 .005-.046.03.03 0 0 0-.045-.006c-.001 0-.247.209-.408.209a.032.032 0 0 0-.032.033c0 .019.014.034.032.034.184 0 .446-.223.447-.224M5.594 10.877a.033.033 0 0 0-.028-.037c-.017-.002-.033.01-.035.029 0 0-.014.125-.109.153-.122.037-.324.222-.324.223a.035.035 0 0 0-.003.047.03.03 0 0 0 .044.003s.193-.176.3-.209c.136-.04.155-.208.155-.209M5.587 11.135a.034.034 0 0 0-.005-.047.03.03 0 0 0-.044.006s-.086.114-.177.153c-.104.046-.272.214-.273.214a.035.035 0 0 0 0 .047.03.03 0 0 0 .044.001s.16-.16.254-.2c.106-.047.2-.174.201-.174zM5.541 11.38a.035.035 0 0 0-.014-.046.03.03 0 0 0-.042.015s-.067.14-.19.164c-.167.03-.167.222-.167.222 0 .019.014.034.031.034a.033.033 0 0 0 .032-.033s0-.137.114-.158c.155-.028.236-.198.236-.199z" fill="#FCEE1F"/><path d="M5.393 11.689c.016-.007.024-.026.018-.043a.031.031 0 0 0-.04-.02c-.002 0-.28.11-.309.285a.033.033 0 0 0 .027.038c.017.004.033-.009.036-.027.022-.137.267-.233.268-.233zM5.34 11.947a.035.035 0 0 0-.004-.047.03.03 0 0 0-.045.003s-.142.174-.205.154a.031.031 0 0 0-.04.022.034.034 0 0 0 .022.042c.102.032.27-.174.271-.174M5.263 12.251a.035.035 0 0 0 .002-.047.03.03 0 0 0-.045-.001s-.139.136-.165.258a.033.033 0 0 0 .023.04.032.032 0 0 0 .038-.025c.023-.102.147-.224.148-.225" fill="#FCEE1F"/><path d="M5.572 11.504a.035.035 0 0 0-.009-.047.03.03 0 0 0-.044.01s-.226.351-.334 1.257a.033.033 0 0 0 .028.037.032.032 0 0 0 .035-.03c.106-.889.323-1.226.324-1.227" fill="#FCEE1F"/><path d="M5.552 12.346a.034.034 0 0 0 0-.047.03.03 0 0 0-.045 0c0 .001-.548.549-.27 1.44a.031.031 0 0 0 .039.021c.017-.005.026-.024.02-.042-.265-.851.254-1.37.255-1.372" fill="#FCEE1F"/><path d="M5.191 13.026a.033.033 0 0 0-.027-.038.032.032 0 0 0-.036.029c0 .002-.098.764-.17.985-.006.018.002.037.019.042a.031.031 0 0 0 .04-.02c.075-.228.174-.996.174-.998zM5.835 12.274a.032.032 0 0 0-.036-.028.033.033 0 0 0-.026.038c0 .001.065.429-.21.719l-.003.002a.676.676 0 0 0-.106.152.959.959 0 0 0-.07.182 1.84 1.84 0 0 0 .006.92.032.032 0 0 0 .04.022.034.034 0 0 0 .02-.042 1.759 1.759 0 0 1-.006-.881.905.905 0 0 1 .066-.17.59.59 0 0 1 .095-.136l.002-.002c.3-.314.229-.775.229-.776" fill="#FCEE1F"/><path d="M5.708 12.356c-.004-.017-.022-.028-.039-.023a.033.033 0 0 0-.022.04s.033.129-.008.194c-.06.095.023.242.024.242.009.016.028.02.043.012.015-.01.02-.03.011-.046 0 0-.063-.111-.026-.171.058-.09.017-.247.017-.248zM5.524 12.501c.003-.018-.008-.036-.026-.039a.031.031 0 0 0-.037.026c0 .001-.075.397-.01.6a.031.031 0 0 0 .039.02.034.034 0 0 0 .02-.041c-.059-.186.013-.565.014-.566z" fill="#FCEE1F"/><path d="M5.31 12.737a.031.031 0 0 0-.043-.012.034.034 0 0 0-.012.045c0 .001.228.419-.045.522a.034.034 0 0 0-.019.042.031.031 0 0 0 .04.02c.345-.13.08-.615.08-.617M5.931 12.883c0-.018-.014-.033-.03-.033a.033.033 0 0 0-.033.033s0 .148-.252.148a.032.032 0 0 0-.032.033c0 .019.014.034.032.034.315 0 .316-.214.316-.214M5.87 13.132c0-.018-.012-.035-.03-.036a.032.032 0 0 0-.034.03s-.01.138-.116.138c-.144 0-.21 0-.304.086a.035.035 0 0 0-.004.047.03.03 0 0 0 .045.003c.077-.07.135-.07.263-.07.165 0 .18-.197.18-.198M5.918 13.38a.033.033 0 0 0-.025-.038.031.031 0 0 0-.037.027s-.02.128-.179.128c-.203 0-.335.25-.336.25a.034.034 0 0 0 .013.045.03.03 0 0 0 .043-.013s.114-.216.28-.216c.212 0 .241-.182.241-.183M5.805 13.674a.034.034 0 0 0-.015-.044.031.031 0 0 0-.042.015s-.104.23-.174.24a.161.161 0 0 0-.084.042c-.06.054-.1.156-.091.279.001.018.017.032.034.03.018-.002.03-.018.029-.036-.008-.1.023-.181.07-.223a.119.119 0 0 1 .025-.017.086.086 0 0 1 .026-.009c.103-.015.221-.276.222-.277M5.61 9.386c-.001-.018-.016-.032-.034-.03-.018.001-.03.017-.029.035 0 .002.039.459-.201.553a.033.033 0 0 0-.019.043.031.031 0 0 0 .04.02c.287-.113.244-.62.243-.622M5.281 9.644a.034.034 0 0 0-.026-.038c-.017-.003-.033.009-.037.027 0 0-.059.353.018.577a.031.031 0 0 0 .041.02.034.034 0 0 0 .02-.042c-.072-.208-.016-.543-.016-.545M5.134 9.951a.033.033 0 0 0-.03-.035c-.018 0-.033.013-.033.032 0 0-.018.328.11.57a.03.03 0 0 0 .044.013.034.034 0 0 0 .012-.045c-.119-.225-.103-.534-.103-.535zM6.561 17.575a.033.033 0 0 0 .028-.037.032.032 0 0 0-.035-.03c-.001 0-.294.04-.448-.27a.03.03 0 0 0-.043-.013.034.034 0 0 0-.014.045c.175.351.511.305.512.305M6.462 17.24a.034.034 0 0 0 .015-.044.031.031 0 0 0-.042-.015s-.169.088-.359-.178a.03.03 0 0 0-.044-.006.034.034 0 0 0-.006.046c.221.31.435.198.436.197M6.292 16.818a.034.034 0 0 0 0-.047.03.03 0 0 0-.044 0s-.163.17-.293-.08c-.009-.015-.028-.021-.043-.012a.034.034 0 0 0-.013.045c.171.326.392.095.393.094M6.142 16.428a.034.034 0 0 0-.001-.047.03.03 0 0 0-.045.002s-.151.172-.294-.04a.031.031 0 0 0-.044-.008.034.034 0 0 0-.008.046c.187.278.391.048.392.047M5.985 16.072a.033.033 0 0 0-.02-.043.031.031 0 0 0-.04.021s-.055.175-.24.041a.03.03 0 0 0-.044.009.034.034 0 0 0 .008.046c.254.183.335-.073.336-.074M5.834 15.74a.034.034 0 0 0-.02-.042c-.017-.006-.035.004-.04.022 0 0-.065.225-.205.033-.01-.014-.03-.018-.044-.006a.034.034 0 0 0-.006.046c.216.296.315-.052.316-.054" fill="#FCEE1F"/><path d="M10 19.28h-.002c-.048-.034-1.02-.7-2.206-.727l.126 2.212s1.102.084 2.081.73c.98-.646 2.082-.73 2.082-.73l.126-2.212c-1.186.027-2.158.692-2.206.726l-.002.002H10z" stroke="#FCEE1F" stroke-width="1.04" stroke-miterlimit="2.61"/><path fill-rule="evenodd" clip-rule="evenodd" d="M10 19.28h-.002c-.048-.034-1.02-.7-2.206-.727l.126 2.212s1.102.084 2.081.73H10c.98-.646 2.081-.73 2.081-.73l.126-2.212c-1.186.027-2.157.692-2.206.726l-.002.002H10z" fill="#EB2127"/><path d="M11.42 19.892c0-.05-.014-.089-.042-.115-.024-.024-.061-.035-.11-.035-.101 0-.152.048-.152.145 0 .096.049.146.147.146a.147.147 0 0 0 .114-.045.202.202 0 0 0 .032-.048.106.106 0 0 0 .012-.048m-.55.41h.261c0 .059.045.088.134.088.073 0 .118-.026.135-.079a.63.63 0 0 0 .03-.212c-.054.07-.134.104-.24.104a.352.352 0 0 1-.078-.008l-.047-.012a.323.323 0 0 1-.16-.127.28.28 0 0 1-.05-.161c0-.11.042-.195.123-.252a.493.493 0 0 1 .292-.086c.145 0 .254.045.327.134.072.088.108.213.108.374 0 .215-.071.364-.213.449a.449.449 0 0 1-.236.06.641.641 0 0 1-.188-.026.293.293 0 0 1-.142-.09.234.234 0 0 1-.056-.156m-.738-.122h.23v-.364l-.23.364zm-.236 0l.411-.604h.32v.604h.15v.184h-.15v.187h-.27v-.187h-.461v-.184zm-.355-.288c0-.05-.014-.089-.042-.115-.025-.024-.061-.035-.11-.035-.102 0-.153.048-.153.145 0 .096.05.146.148.146a.147.147 0 0 0 .113-.045.188.188 0 0 0 .033-.048.106.106 0 0 0 .01-.048m-.55.41h.262c0 .059.045.088.134.088.073 0 .117-.026.135-.079a.632.632 0 0 0 .03-.212c-.054.07-.134.104-.24.104a.351.351 0 0 1-.078-.008l-.047-.012a.323.323 0 0 1-.16-.127.28.28 0 0 1-.05-.161c0-.11.042-.195.123-.252a.493.493 0 0 1 .292-.086c.145 0 .254.045.327.134.072.088.108.213.108.374 0 .215-.071.364-.213.449a.448.448 0 0 1-.236.06.639.639 0 0 1-.188-.026.293.293 0 0 1-.142-.09.234.234 0 0 1-.056-.156zm-.697-.569a.8.8 0 0 0 .28-.156h.225v.975h-.268v-.723a1.056 1.056 0 0 1-.237.121v-.217z" fill="#FCEE1F"/><path fill-rule="evenodd" clip-rule="evenodd" d="M10.34 12.661l-.095 4.508 1.33.5v.103H8.432v-.096l1.336-.512-.26-4.49H9.5l-2.455-1.146v-.103h5.612v.065l-2.318 1.171z" fill="url(#k)"/><path fill-rule="evenodd" clip-rule="evenodd" d="M9.543 13.191l-.047.018-.061.023-.062.026-.061.03-.061.031-.06.036-.06.041-.059.046-.057.052-.055.057-.075.091-.067.096-.06.099-.053.103-.044.106-.035.11-.025.111-.015.113-.005.115.006.116.018.115.03.116.042.113.055.112.067.109.045.059v.002l.014.02-.01.085-.008.13.002.125.01.12.02.113.03.107.037.102.045.096.053.09.06.082.066.077.072.07.077.065.082.058.086.052.09.047.094.042.096.036.098.032.1.026.103.022.104.018.105.014.106.01.106.005.106.001.106-.001.104-.006.104-.009.103-.012.1-.015 1.018-.188-.948-.076-.005-.002-.009-.003-.014-.006-.02-.009-.029-.01-.036-.01-.036-.004-.126-.008-.12-.012-.12-.016-.119-.02-.114-.027-.11-.033-.104-.039-.098-.045-.09-.053-.082-.061-.074-.07-.064-.077-.056-.088-.045-.1-.022-.071.042.006.072.01.072.007.071.006.07.002h.072l.07-.003.071-.007.071-.01.07-.016.072-.02.07-.023.072-.029.073-.034.105-.06.098-.074.09-.082.08-.09.07-.098.058-.104.048-.109.035-.112.023-.116.008-.118-.005-.118-.022-.117-.038-.115-.056-.11-.073-.104-.09-.094-.038-.034-.039-.03-.04-.029-.04-.025-.043-.023-.043-.021-.044-.02-.045-.015-.045-.015-.047-.012-.047-.009-.047-.007-.047-.005-.049-.002h-.064l-.007.283h-.002v.535l.005.002.041.021.034.025.027.026.02.028.014.03.008.03.004.03-.002.031-.008.032-.013.03-.019.03-.026.03-.034.028-.043.025-.044.019-.04.006-.053.005-.051.005-.05.002h-.047l-.045-.002-.044-.004-.042-.006-.04-.008-.037-.01-.036-.01-.034-.014-.032-.015c-.061-.029-.07-.02-.073-.061l-.05-.85.004-.002-.044-.913v.001zm.92-.578l-.024.04-.027.04-.033.042-.037.04-.01.008-.027 1.015a.907.907 0 0 0 .056-.032l.044-.028.042-.028.043-.029.045-.03.095-.066.09-.07.086-.073.08-.076.073-.079.066-.082.06-.086.054-.089.047-.093.038-.095.031-.1.024-.101.015-.105.008-.107-.002-.11-.01-.123-.02-.064-.017-.053-.018-.053-.02-.054-.02-.055-.022-.055-.024-.056-.025-.056-.028-.057-.031-.058-.033-.058-.037-.059-.04-.058-.043-.06-.047-.06-.05-.057-.085-.1-.085-.098-.085-.098-.084-.096-.083-.095-.08-.093-.079-.091-.075-.09-.07-.087-.067-.085-.062-.082-.056-.08-.05-.076-.042-.073-.036-.069-.027-.064-.019-.056-.011-.052-.005-.05v-.049l.007-.046.011-.045.017-.043.02-.043.027-.04.03-.04.036-.038.04-.037.044-.034.047-.031.037-.021.002.001.03.03.032.031.032.033.034.035.035.035.037.035.04.034.044.03.047.029.053.023.057.016.062.006.063-.005.18-.043-.036-.13.086.038.081.036.065.027.24.08-.071-.321-.043-.11-.057-.101-.07-.092-.08-.082-.091-.073-.099-.063-.107-.051-.112-.042-.117-.03-.121-.017-.124-.006-.126.006-.126.02-.125.033-.122.048-.088.044-.082.05-.076.053-.07.06-.063.064-.058.068-.05.073-.044.077-.037.08-.03.084-.022.086-.016.09-.008.09-.001.093.006.095.013.096.02.092.028.09.036.09.044.089.05.088.056.089.063.09.068.09.074.092.08.095.084.097.089.1.094.104.098.107.103.112.104.113.05.064.049.067.046.065.042.064.04.063.036.062.033.06.03.059.025.057.022.056.019.055.015.052.01.052.008.049.004.047v.046l-.004.045-.007.043-.011.042-.015.042-.019.041h.001z" fill="#FEDD00"/><path fill-rule="evenodd" clip-rule="evenodd" d="M11.046 9.435c-.079-.54-.79-.844-1.372-.58-.437.198-.634.598-.555 1.069.074.433.482.84 1.065 1.48.584.745.707 1.34-.217 1.76-.333.151-.657.182-.914.47-.388.437-.501 1.06-.078 1.568v.005l.013.019c-.229 1.405 1.197 1.676 2.192 1.475-.068 0-.096-.042-.164-.045-.662-.034-1.396-.205-1.492-.997.402.076.719.11 1.068-.067.522-.264.768-.997.303-1.423a.82.82 0 0 0-.614-.21v.556c.378.103.391.54.01.673-.315.052-.571.016-.75-.132.011-.063.037-.173.087-.275l-.039-.677h-.002s-.18.118-.299.36c-.002-.056 0-.117.004-.18.046-.354.434-.376.823-.53.136-.053.228-.124.349-.205.505-.335.77-.766.703-1.33-.085-.272-.18-.555-.447-.858-.448-.53-.94-1.03-1.088-1.412-.142-.364.083-.669.414-.816.19.135.333.428.579.347l-.076-.265s.472.22.497.22" fill="url(#l)"/><path d="M10.63 9.254c.05.05.097.104.144.158.164.189.323.37.568.377.204.006.175.057-.002.053-.265-.005-.432-.197-.606-.396-.056-.064-.112-.129-.173-.188l-.012-.042.082.038z" fill="url(#m)"/><path fill-rule="evenodd" clip-rule="evenodd" d="M17.7 7.162l.114.347h.364l-.295.214.113.347-.295-.214-.295.214.113-.347-.295-.214h.364l.113-.347z" fill="#EB2127"/></g><defs><linearGradient id="b" y1="13" x2="20" y2="13" gradientUnits="userSpaceOnUse"><stop stop-color="#2A6444"/><stop offset=".19" stop-color="#2A6444"/><stop offset=".65" stop-color="#194F34"/><stop offset="1" stop-color="#0B3D27"/></linearGradient><linearGradient id="c" x1="1.208" y1="14.725" x2="18.792" y2="14.725" gradientUnits="userSpaceOnUse"><stop stop-color="#2A6444"/><stop offset=".19" stop-color="#2A6444"/><stop offset=".65" stop-color="#194F34"/><stop offset="1" stop-color="#0B3D27"/></linearGradient><linearGradient id="d" x1="3.44" y1="14.845" x2="16.559" y2="14.845" gradientUnits="userSpaceOnUse"><stop stop-color="#2A6444"/><stop offset=".19" stop-color="#2A6444"/><stop offset=".65" stop-color="#194F34"/><stop offset="1" stop-color="#0B3D27"/></linearGradient><linearGradient id="f" x1="1.391" y1="16.082" x2="9.385" y2="16.082" gradientUnits="userSpaceOnUse"><stop stop-color="#2A6444"/><stop offset=".19" stop-color="#2A6444"/><stop offset=".65" stop-color="#194F34"/><stop offset="1" stop-color="#0B3D27"/></linearGradient><linearGradient id="h" x1="10.368" y1="16.13" x2="18.294" y2="16.13" gradientUnits="userSpaceOnUse"><stop stop-color="#2A6444"/><stop offset=".19" stop-color="#2A6444"/><stop offset=".65" stop-color="#194F34"/><stop offset="1" stop-color="#0B3D27"/></linearGradient><linearGradient id="i" x1="10" y1="15.525" x2="16.222" y2="15.525" gradientUnits="userSpaceOnUse"><stop stop-color="#2A6444"/><stop offset=".19" stop-color="#2A6444"/><stop offset=".65" stop-color="#194F34"/><stop offset="1" stop-color="#0B3D27"/></linearGradient><linearGradient id="j" x1="3.778" y1="15.525" x2="10" y2="15.525" gradientUnits="userSpaceOnUse"><stop stop-color="#2A6444"/><stop offset=".19" stop-color="#2A6444"/><stop offset=".65" stop-color="#194F34"/><stop offset="1" stop-color="#0B3D27"/></linearGradient><linearGradient id="k" x1="7.046" y1="14.598" x2="12.658" y2="14.598" gradientUnits="userSpaceOnUse"><stop stop-color="#2A6444"/><stop offset=".19" stop-color="#2A6444"/><stop offset=".65" stop-color="#194F34"/><stop offset="1" stop-color="#0B3D27"/></linearGradient><linearGradient id="l" x1="8.706" y1="12.759" x2="11.18" y2="12.759" gradientUnits="userSpaceOnUse"><stop stop-color="#2A6444"/><stop offset=".19" stop-color="#2A6444"/><stop offset=".65" stop-color="#194F34"/><stop offset="1" stop-color="#0B3D27"/></linearGradient><linearGradient id="m" x1="10.549" y1="9.529" x2="11.485" y2="9.529" gradientUnits="userSpaceOnUse"><stop stop-color="#2A6444"/><stop offset=".19" stop-color="#2A6444"/><stop offset=".65" stop-color="#194F34"/><stop offset="1" stop-color="#0B3D27"/></linearGradient><clipPath id="a"><path fill="#fff" d="M0 0h20v26H0z"/></clipPath></defs></svg>