<svg width="486" height="104" viewBox="0 0 486 104" fill="none" xmlns="http://www.w3.org/2000/svg"><g clip-path="url(#a)"><path fill-rule="evenodd" clip-rule="evenodd" d="M40 .374C28.675 5.602 16.33 9.666.345 9.58 2.035 51.426-7.236 87.25 40 103.624 87.236 87.251 77.965 51.428 79.655 9.58 63.669 9.666 51.325 5.602 40 .374z" fill="#FCEE1F"/><path d="M21.815 6.643c6.503-1.659 12.424-3.985 18.09-6.6L40 0l.096.043c5.665 2.615 11.586 4.94 18.09 6.6 6.502 1.66 13.585 2.655 21.577 2.611H80l-.009.235c-.276 6.828-.26 13.493-.246 19.939.076 33.277.14 60.769-39.671 74.57h-.148C.116 90.198.179 62.706.255 29.429.269 22.99.285 16.332.01 9.51v-.02L0 9.253h.237c7.992.043 15.075-.95 21.578-2.61zM40 .501c-5.661 2.607-11.577 4.926-18.073 6.583C15.458 8.734 8.414 9.732.47 9.708c.266 6.746.251 13.34.237 19.72C.632 62.508.57 89.84 40 103.543c39.43-13.704 39.368-41.035 39.292-74.115-.014-6.38-.029-12.974.237-19.72-7.94.022-14.987-.974-21.456-2.624C51.577 5.427 45.661 3.108 40 .501z" fill="url(#b)"/><path fill-rule="evenodd" clip-rule="evenodd" d="M40 1.567l-.574.264-1.084.484-1.09.477-1.099.468-1.108.46-1.116.45-1.126.44-1.135.428-1.147.42-1.158.406-1.168.394-1.18.382-1.193.368-1.204.353-1.22.34-1.231.323-1.246.309-1.26.29-1.277.277-1.292.257-1.305.24-1.324.22-1.342.201-1.356.183-1.376.163-1.392.14-1.412.12-1.433.096-1.45.075-1.47.051-1.491.029h-.27l.091 2.69.076 3.893.007.732h76.71l.007-.732.078-3.892.088-2.691h-.269l-1.492-.029-1.47-.05-1.45-.076-1.43-.096-1.412-.12-1.394-.14L68.235 10l-1.357-.183-1.34-.2-1.323-.22-1.308-.241-1.29-.257-1.278-.276-1.26-.291-1.246-.31L56.6 7.7l-1.219-.34-1.204-.352-1.192-.368-1.181-.382-1.169-.394-1.157-.406-1.147-.42-1.134-.428-1.127-.44-1.116-.45-1.107-.46-1.1-.468-1.09-.477-1.084-.484L40 1.567z" fill="#EB2127"/><path d="M40 1.567l-.574.264-1.084.484-1.09.477-1.099.468-1.108.46-1.116.45-1.126.44-1.135.428-1.147.42-1.158.406-1.168.394-1.18.382-1.193.368-1.204.353-1.22.34-1.231.323-1.246.309-1.26.29-1.277.277-1.292.257-1.305.24-1.324.22-1.342.201-1.356.183-1.376.163-1.392.14-1.412.12-1.433.096-1.45.075-1.47.051-1.491.029h-.27l.091 2.69.076 3.893.007.732h76.71l.007-.732.078-3.892.088-2.691h-.269l-1.492-.029-1.47-.05-1.45-.076-1.43-.096-1.412-.12-1.394-.14L68.235 10l-1.356-.183-1.34-.2-1.324-.22-1.308-.241-1.29-.257-1.278-.276-1.26-.291-1.246-.31L56.6 7.7l-1.219-.34-1.204-.352-1.192-.368-1.181-.382-1.169-.394-1.157-.406-1.147-.42-1.134-.428-1.127-.44-1.116-.45-1.107-.46-1.1-.468-1.09-.477-1.084-.484L40 1.567z" stroke="#EB2127" stroke-width=".22" stroke-miterlimit="2.61"/><path fill-rule="evenodd" clip-rule="evenodd" d="M40 1.567l-.17.078v6.384l-2.646-5.21-.296.127 2.438 4.803-5.092-3.703-.306.123-.048.02 5.11 3.714-8.572-2.41-.53.187 8.223 2.311-11.926-1.095-.363.112-.462.136 12.651 1.16-36.518 3 .011.323 35.688-2.933L1.61 15.92l.007.327L37.21 9.02 9.788 17.99h1.038l27.32-8.938-16.998 8.938h.694l16.62-8.74-11.082 8.74h.522l11.014-8.687-7.053 8.687h.415l7.173-8.837L36 17.99h.347l3.482-8.92v8.92h.33V9.07l3.482 8.92h.345L40.54 9.153l7.173 8.837h.415l-7.054-8.687 11.014 8.687h.522L41.53 9.25l16.619 8.74h.693L41.844 9.052l27.32 8.938h1.039L42.779 9.02l35.603 7.228.007-.327-35.59-7.227 35.696 2.933.011-.323-36.527-3 12.66-1.162-.461-.134-.365-.114L41.88 7.991l8.227-2.313-.53-.186L41 7.902l5.113-3.717-.042-.016-.31-.125-5.097 3.705 2.44-4.807-.296-.126-2.648 5.213V1.641L40 1.567z" fill="#FCEE1F"/><path d="M4.856 21.086l-.022-2.158v-.213h70.333v.213l-.023 2.158-.01 3.818.006 3.761.007 3.697v3.631h-.002l-.025 3.562-.058 3.493-.104 3.416v.003l-.161 3.335v.005l-.23 3.251v.005l-.308 3.167v.007l-.4 3.076v.009l-.498 2.983v.008l-.608 2.89v.01l-.728 2.794v.01l-.856 2.697-.004.01-.99 2.601-.005.011-1.137 2.507-.008.012-1.294 2.416-.008.013-1.464 2.328-.01.013-1.648 2.246-.01.012-1.85 2.167-.009.013-2.066 2.09-.01.01-2.301 2.017-.011.009-2.554 1.94-.01.01-2.827 1.865-.01.007-3.114 1.785-.01.006-3.418 1.7-.01.005-3.737 1.614-.009.004-2.566.958h-.146l-2.566-.958-.01-.004-3.736-1.614-.01-.005-3.417-1.7-.011-.006-3.113-1.785-.011-.007-2.825-1.866-.01-.009-2.554-1.94-.01-.01-2.301-2.016-.011-.01-2.066-2.09-.01-.013-1.848-2.167-.01-.012-1.648-2.245-.01-.012-1.464-2.328-.007-.013-1.295-2.416-.007-.013-1.136-2.506-.005-.01-.99-2.601-.004-.011-.854-2.697v-.01l-.728-2.794v-.011l-.61-2.89v-.007l-.5-2.983v-.01l-.4-3.075v-.008l-.31-3.166v-.005l-.231-3.251v-.006l-.163-3.334v-.003l-.104-3.414-.058-3.492-.025-3.563-.002-3.633.007-3.697.006-3.76-.01-3.82-.01-.001zm.4-1.948l.02 1.946.01 3.822-.006 3.76-.007 3.698v3.63l.027 3.56.058 3.487.104 3.41.163 3.33.23 3.252.308 3.159.397 3.063.499 2.982.605 2.884.72 2.774.853 2.693.986 2.59 1.13 2.491 1.29 2.404 1.453 2.311 1.644 2.237 1.833 2.147 2.066 2.091 2.288 2.004 2.537 1.928 2.81 1.856 3.108 1.782 3.405 1.695 3.733 1.612 2.481.927 2.483-.927 3.733-1.612 3.406-1.695 3.106-1.782 2.81-1.856 2.536-1.928 2.288-2.004 2.066-2.09 1.832-2.148 1.644-2.237 1.457-2.315 1.284-2.394 1.134-2.498.986-2.59.853-2.692.72-2.774.607-2.884.498-2.982.398-3.063.308-3.16.23-3.25.16-3.33.105-3.41.058-3.487.025-3.56v-3.63l-.005-3.698-.005-3.76.008-3.821.019-1.948H5.257z" fill="url(#c)"/><path fill-rule="evenodd" clip-rule="evenodd" d="M15.364 57.896l.443 2.651.527 2.508.616 2.368.706 2.23.8 2.1.898 1.978 1.004 1.875 1.123 1.785 1.26 1.717 1.42 1.662 1.605 1.625 1.822 1.596 2.068 1.572L32 85.11l2.646 1.518 2.974 1.48 2.382 1.028 2.382-1.028 2.974-1.48 2.646-1.518 2.344-1.549 2.068-1.572 1.822-1.596 1.605-1.624 1.42-1.663 1.26-1.717 1.123-1.785 1.004-1.874.898-1.98.798-2.097.706-2.23.616-2.37.527-2.508.443-2.65.36-2.788.286-2.924.217-3.056.153-3.18.102-3.3.057-3.415.025-3.524V32.08l-.001-2.492h-51.67l-.005 2.492v3.627l.027 3.524.058 3.415.1 3.3.156 3.18.217 3.056.285 2.924.361 2.789h-.002zm-.395.058l.444 2.665.531 2.525.62 2.387.711 2.252.81 2.121.907 2.003 1.017 1.897 1.138 1.81 1.277 1.738 1.437 1.684 1.625 1.644 1.844 1.616 2.09 1.589 2.365 1.56 2.668 1.53 2.994 1.49 2.55 1.101 2.55-1.1 2.994-1.491 2.667-1.53 2.366-1.562 2.089-1.589 1.844-1.615 1.625-1.645 1.438-1.684 1.278-1.74 1.138-1.81 1.016-1.899.909-2.002.807-2.122.711-2.251.62-2.388.53-2.526.445-2.666.363-2.802.285-2.935.217-3.065.154-3.188.1-3.305.058-3.42.026-3.527v-3.629l-.004-2.891H13.768l-.005 2.891v3.629l.027 3.526.058 3.419.1 3.305.156 3.188.217 3.065.287 2.935.363 2.803-.002.009z" fill="url(#d)"/><path d="M39.902 3.907a4.087 4.087 0 0 1 4.085 4.088 4.087 4.087 0 0 1-4.085 4.088 4.087 4.087 0 0 1-4.085-4.088 4.087 4.087 0 0 1 4.085-4.088z" stroke="#FCEE1F" stroke-width="1.97" stroke-miterlimit="2.61"/><path fill-rule="evenodd" clip-rule="evenodd" d="M39.902 3.907a4.087 4.087 0 0 1 4.085 4.088 4.087 4.087 0 0 1-4.085 4.088 4.087 4.087 0 0 1-4.085-4.088 4.087 4.087 0 0 1 4.085-4.088z" fill="#EB2127"/><path fill-rule="evenodd" clip-rule="evenodd" d="M39.903 3.907h.07v2.98l.387-2.955c.047.006.094.011.14.018l-.386 2.957.768-2.882c.045.01.092.023.137.036l-.77 2.887 1.136-2.763c.044.018.089.036.13.055l-1.137 2.766 1.486-2.595.123.07-1.488 2.6 1.813-2.384.114.085-1.815 2.385 2.109-2.13.101.099-2.113 2.132 2.371-1.841c.03.036.06.074.087.112l-2.377 1.843 2.596-1.521c.025.04.048.08.072.122l-2.6 1.524 2.777-1.175.056.13-2.78 1.175 2.91-.804c.012.045.027.09.038.137l-2.913.804 2.992-.42c.007.046.015.093.02.14l-2.996.421 3.027-.029.002.116v.027l-3.029.027 3.007.365-.018.141-3.009-.367 2.936.754c-.01.047-.023.092-.034.137l-2.938-.753 2.817 1.13a3.804 3.804 0 0 1-.052.131l-2.82-1.131 2.648 1.485a1.71 1.71 0 0 1-.07.123l-2.65-1.487 2.433 1.818a4.407 4.407 0 0 1-.085.114l-2.436-1.82 2.178 2.12c-.032.034-.065.068-.1.101l-2.177-2.122 1.883 2.384c-.036.03-.074.06-.112.089L40.477 8.88l1.56 2.61c-.04.025-.08.049-.123.072l-1.56-2.611 1.208 2.79a4.39 4.39 0 0 1-.13.056l-1.208-2.792.836 2.922-.137.038-.836-2.924.45 3.004-.141.02-.45-3.006.058 3.035h-.143l-.056-3.037-.336 3.013c-.047-.005-.093-.01-.14-.018l.337-3.014-.724 2.94c-.047-.011-.092-.024-.137-.036L39.529 9l-1.098 2.819a4.245 4.245 0 0 1-.132-.053l1.098-2.817-1.45 2.646-.123-.07 1.454-2.65-1.78 2.434a4.938 4.938 0 0 1-.114-.085l1.782-2.434-2.077 2.18a2.497 2.497 0 0 1-.1-.1l2.08-2.18-2.34 1.89a2.69 2.69 0 0 1-.09-.113L38.98 8.58l-2.56 1.565c-.026-.04-.05-.081-.073-.122l2.563-1.566-2.738 1.218a2.788 2.788 0 0 1-.056-.131l2.74-1.218-2.87.853c-.013-.046-.027-.09-.038-.138l2.873-.851-2.954.472c-.008-.047-.015-.094-.02-.141l2.95-.47-2.98.085c0-.044-.005-.089-.005-.134v-.009l2.984-.083-2.964-.304.017-.14 2.965.305-2.897-.685c.011-.047.022-.092.035-.138l2.898.687-2.783-1.055c.016-.045.034-.089.053-.132l2.784 1.057-2.62-1.406.069-.125 2.622 1.41-2.415-1.735c.027-.04.056-.078.083-.116L39.06 7.27l-2.168-2.033.097-.103 2.169 2.035-1.887-2.297c.036-.03.072-.061.11-.09l1.958 2.385-1.593-2.64c.04-.025.081-.05.123-.074l1.609 2.67-1.194-2.876c.043-.018.087-.038.132-.054l1.132 2.736-.776-2.858.137-.036.782 2.888-.398-2.964.141-.018.398 2.973V3.907H39.903z" fill="#FCEE1F"/><path fill-rule="evenodd" clip-rule="evenodd" d="M9.611 28.649l.45 1.388h1.457l-1.18.856.45 1.388-1.177-.858-1.18.858.45-1.388-1.179-.856H9.16l.452-1.388z" fill="#EB2127"/><path d="M69.006 27.33v-5.097h1.85l.332 2.527.344-2.527h1.85v5.097h-1.134v-3.963l-.67 3.963h-.766l-.657-3.963-.013 3.963h-1.136zm-2.097-1.811h.587l-.274-2.494-.313 2.494zm-1.415 1.81l.942-5.096h1.555l.957 5.097h-1.231l-.107-.906h-.823l-.121.906h-1.172zm-3.4 0v-5.096h1.28l.942 3.006.015-3.006h1.134v5.097H64.19l-.95-3.15-.013 3.15h-1.134zm-4.339-4.113v-.983h2.691v.983h-.76v4.114h-1.174v-4.113h-.757zm-1.977 4.605h1.098v.754h-1.098v-.754zm-.35-5.9l.529-.868h.897l.459.868h-.663l-.28-.486-.32.486h-.624.002zm-.389.305h2.608v.983h-1.434v1.02h1.255v.983h-1.255v1.134h1.49v.984h-2.665v-5.104h.001zm-1.455.007h1.174v5.097h-1.174v-5.097zm-2.388 5.097l-.776-5.097h1.2l.319 3.624.4-3.624h1.18l-.867 5.097h-1.456zm-4.316-2.015l-.955-3.082h1.21l.327 1.723.356-1.723h1.193l-.957 2.998v2.099H46.88v-2.015zm-5.955 2.015v-5.097h1.282l.943 3.006.014-3.006h1.134v5.097h-1.275l-.95-3.15-.012 3.15h-1.136zm-2.066-1.811h.587l-.275-2.501-.312 2.5zm-.632-3.596l.529-.868h.9l.458.868h-.663l-.28-.486-.32.486h-.626.002zm.16.305h1.555l.965 5.103H39.67l-.107-.905h-.823l-.121.905h-1.172l.942-5.103h-.002zm-3.99 3.712v-3.707h1.173v3.72c0 .178.017.309.05.388.032.085.127.128.29.128.11 0 .195-.034.255-.1.056-.066.083-.203.083-.416v-3.72h1.173v3.707c0 .45-.135.808-.408 1.072-.272.267-.639.4-1.103.4-.464 0-.825-.131-1.098-.395-.276-.264-.414-.623-.414-1.079m-3.265 0v-2.315c0-.48.143-.851.427-1.11.267-.243.628-.365 1.085-.365.457 0 .816.125 1.096.378.276.25.414.616.414 1.097v2.315c0 .566-.22.987-.665 1.263l.453.734-.951.098-.174-.319-.171-.301c-.239 0-.45-.033-.632-.094a1.304 1.304 0 0 1-.484-.302c-.268-.264-.401-.623-.401-1.079m1.174-2.416v2.52a.7.7 0 0 0 .075.355c.051.072.138.11.262.11a.3.3 0 0 0 .293-.179.868.868 0 0 0 .045-.285v-2.52a.87.87 0 0 0-.04-.294c-.05-.114-.15-.171-.298-.171-.14 0-.238.055-.294.164a.97.97 0 0 0-.044.3zM25.92 27.33v-5.097h1.282l.943 3.006.014-3.006h1.134v5.097h-1.275l-.95-3.15-.012 3.15H25.92zm-2.17.491h1.099v.754H23.75v-.754zm-.35-5.9l.532-.868h.897l.459.868h-.663l-.28-.486-.32.486h-.624zm-.388.305h2.608v.983h-1.434v1.02h1.255v.983h-1.255v1.134h1.49v.984h-2.665v-5.104h.001zm-1.455.007h1.174v5.097h-1.174v-5.097zM19.17 27.33l-.777-5.097h1.199l.32 3.624.4-3.624h1.18l-.867 5.097h-1.456zm-5.416-1.392v-2.315c0-.48.142-.851.426-1.11.267-.243.628-.365 1.085-.365.457 0 .816.125 1.096.376.277.252.414.617.414 1.097v.472H15.6v-.573a.87.87 0 0 0-.04-.294c-.05-.114-.15-.172-.298-.172s-.238.056-.294.164a.97.97 0 0 0-.043.3v2.518c0 .153.025.27.075.357.051.073.138.109.262.109.14 0 .237-.06.293-.179a.871.871 0 0 0 .045-.287v-.747h1.174v.645c0 .452-.136.81-.408 1.074-.273.267-.64.401-1.104.401-.464 0-.825-.132-1.098-.396-.276-.264-.413-.623-.413-1.079m-2.29 1.882h1.098v.753h-1.098v-.753zm-.973-4.204c0-.48.142-.85.426-1.111.267-.24.63-.363 1.085-.363.455 0 .815.122 1.096.37.282.25.423.618.423 1.102v2.323c0 .446-.136.804-.41 1.071-.273.268-.641.401-1.109.401-.468 0-.825-.131-1.098-.395-.276-.264-.413-.624-.413-1.08V23.61v.003zm1.173 2.424c0 .153.026.27.076.357.05.073.138.109.262.109.14 0 .237-.06.293-.179a.871.871 0 0 0 .045-.287V23.51a.87.87 0 0 0-.04-.294c-.05-.114-.15-.172-.298-.172-.14 0-.238.056-.296.164-.027.089-.042.19-.042.302v2.525zm-4.438 1.29V22.23h1.173v1.906h.676V22.23h1.174v5.096H9.073v-2.169h-.676v2.169H7.224z" fill="#EB2127"/><mask id="e" style="mask-type:luminance" maskUnits="userSpaceOnUse" x="6" y="33" width="33" height="63"><path d="M36.052 93.018l-.724 1.704.95.443.755-1.775 1.85-2.176-.964-.45-.906 1.323.355-1.58-.978-.455-.336 2.968-.002-.002zm-3.59-2.892l-.228-.115.45-.967.18.092c.167.085.255.18.263.286 0 .077-.038.2-.116.367l-.116.224-.09.112a.262.262 0 0 1-.159.052.404.404 0 0 1-.186-.052m-2.351 1.96l.933.478.853-1.833.173.089c.129.065.206.14.233.224.027.088.013.191-.041.307l-.318.68c-.025.055-.062.133-.103.234-.047.1-.089.208-.128.327-.036.145-.05.24-.035.293l.923.472a.446.446 0 0 1 .035-.304.9.9 0 0 1 .046-.128c.017-.034.035-.074.055-.118l.14-.301.349-.75a.756.756 0 0 0 .06-.52.713.713 0 0 0-.284-.442c.27.045.482.004.643-.124.125-.107.251-.297.38-.57.176-.377.205-.69.091-.94-.115-.247-.38-.477-.796-.688l-1.232-.629-1.975 4.242-.002.001zm-2.592-3.706l1.404-1.805-.963 2.092-.44-.287zm-1.91.728l.88.575.514-.65.618.404-.343.763.924.605 1.67-4.473-1.166-.762-3.097 3.538zm-1.275-5.877l.529.432-2.24 3.002.819.67 2.24-3.001.528.433.537-.717-1.877-1.534-.536.717v-.002zm-4.692.673l.748.755 3.131-3.394-.747-.755-3.132 3.394zm-3.113-3.497l1.45 1.686.647-.61-.755-.877 2.703-2.549-.695-.807-3.35 3.157zm-2.032-2.966l.596.891 3.693-2.707-.596-.89-3.693 2.706zm-3.13-5.833l.472.929 3.1-1.712-2.82 2.261.318.625 3.373-1.174-3.095 1.722.471.929 3.98-2.216-.769-1.513-2.116.817 1.834-1.37-.767-1.512-3.98 2.216v-.002zm-2.36-7.775l.277 1.01 3.371-.999-3.209 1.598.186.681 3.533-.416-3.368 1.012.276 1.01 4.334-1.3-.451-1.649-2.232.338 2.065-.94-.451-1.646-4.334 1.301h.003zm.844-4.476l2.221-.116-2.13.65-.091-.534zm-1.616.069l.807-.035.126.752-.77.244.189 1.124 4.292-1.693-.238-1.419-4.583-.041.18 1.07-.003-.002zm-.69-6.539l.088 1.047 2.776-.242-2.702 1.13.098 1.177 4.491-.412-.088-1.048-2.65.23 2.576-1.114-.1-1.182-4.491.413.002.001zm3.415-5.1l.036.702-3.634.199.055 1.086 3.633-.2.036.704.869-.047-.125-2.49-.869.047h-.001zM7.15 43.143l.083 2.467.869-.033-.047-1.38 1.002-.036.038 1.162.868-.033-.038-1.162.894-.032.044 1.326.868-.032-.08-2.415-4.507.165.006.003zm-.053-3.686l.037 1.087 4.505-.164-.036-1.086-4.505.164v-.001zm-.193-4.538l.09 1.346 4.551.472-.072-1.09-3.222-.137 3.177-.528-.074-1.108-4.45 1.047v-.002z" fill="#fff"/></mask><path d="M38.884 33.871H6.907v61.293h31.977V33.871z" fill="url(#f)" mask="url(#e)"/><mask id="g" style="mask-type:luminance" maskUnits="userSpaceOnUse" x="41" y="33" width="33" height="63"><path d="M43.578 90.219l.796 2.242-1.369-1.957-1.564.783 2.194 4.232.96-.48-1.696-3.295 2.262 3.012.647-.323-1.14-3.573 1.707 3.29.96-.482-2.193-4.232-1.564.783zm2.882-1.486l2.633 3.983 2.12-1.353-.508-.769-1.186.758-.585-.888 1-.638-.507-.768-1 .638-.522-.791 1.14-.728-.507-.769-2.074 1.325h-.004zm4.92-2.237l.142-.101c.25-.18.457-.161.62.058l1.388 1.879c.16.219.115.417-.136.596l-.14.102-1.875-2.536.002.002zm-.042-.969l-1.342.958 2.84 3.842 1.342-.958c.271-.193.437-.43.499-.71.07-.329-.013-.654-.25-.974l-1.35-1.827c-.24-.325-.488-.522-.744-.595a.87.87 0 0 0-.226-.03c-.239 0-.497.097-.77.292m2.124-1.566l3.235 3.529.829-.732-3.235-3.53-.827.733h-.002zm4.078-3.423c-.356.02-.686.177-.988.475-.305.3-.468.618-.484.956-.018.358.136.696.457 1.012l1.553 1.525c.305.3.64.447 1 .438.36-.006.694-.16 1.003-.463.31-.305.468-.636.471-.992.005-.352-.143-.678-.446-.976l-.431-.425-.788.774.5.492c.069.066.123.14.163.218.043.116.016.219-.076.31-.083.082-.166.117-.247.102a.68.68 0 0 1-.291-.184l-1.689-1.66a.916.916 0 0 1-.171-.227c-.036-.108-.007-.21.086-.303.1-.098.205-.125.315-.084.066.031.14.087.224.168l.383.376.787-.773-.316-.31c-.305-.3-.627-.45-.96-.45h-.055m2.41-2.126l2.047 1.194-.336.438-1.71-1.632zm-1.047.14l3.323 3.56.67-.872-.616-.598.472-.613.745.429.705-.918-4.408-2.146-.889 1.159h-.002zm2.1-2.865l4.145 2.447 1.197-1.958-.8-.471-.623 1.019-3.344-1.975-.574.938zm3.03-5.7l3.295 1.241c.188.07.301.141.34.212.039.074.039.159.003.255-.056.14-.127.211-.211.208-.084 0-.205-.028-.362-.087l-3.292-1.242-.399 1.023 3.282 1.238c.402.152.767.152 1.096 0 .325-.148.567-.423.724-.822.157-.403.164-.768.02-1.095-.141-.326-.412-.562-.811-.714l-3.281-1.238-.4 1.02h-.003zm1.47-4.34l2.751.738-2.985.125-.314 1.155 4.67 1.229.278-1.022-2.882-.771 3.118-.096.315-1.147-4.67-1.23-.278 1.022-.002-.002zm.685-2.553l4.76.825.194-1.078-4.76-.824-.194 1.077zm.735-4.328l3.365.783-3.448-.116-.139 1.11 4.889-.14.168-1.348-4.698-1.38-.137 1.091zm.372-2.517l4.822.33.177-2.477-.93-.063-.1 1.386-1.072-.074.083-1.168-.93-.063-.083 1.168-.957-.066.095-1.333-.93-.064-.173 2.426-.002-.002zm1.208-5.3l.008-.214c.007-.195.057-.318.153-.37.072-.033.204-.047.394-.04l.26.02.144.041c.107.062.157.174.152.331l-.01.268-1.1-.038v.002zm-.512-1.426c-.181.211-.28.562-.298 1.048l-.051 1.444 4.83.166.04-1.093-2.085-.073.007-.202c.005-.15.041-.257.106-.316.073-.062.174-.09.307-.085l.775.027c.063.002.152.004.266.004.112.003.233 0 .362-.011.152-.024.248-.053.29-.087l.037-1.08a.446.446 0 0 1-.3.09.922.922 0 0 1-.138.007c-.04 0-.085-.004-.132-.006l-.343-.012-.855-.03a.763.763 0 0 0-.514.156.722.722 0 0 0-.29.454c-.075-.277-.207-.466-.397-.568-.155-.075-.386-.12-.697-.132h-.083c-.386 0-.666.1-.836.299m2.693-4.753c-.101.054-.35.293-.75.72l-.39.48c-.238.276-.435.414-.588.412a.367.367 0 0 1-.271-.105.406.406 0 0 1-.085-.276c.002-.14.063-.234.179-.288a.98.98 0 0 1 .357-.047l.26.004.018-1.023-.435-.007c-.383-.008-.684.1-.901.323-.219.222-.33.564-.34 1.021-.009.452.1.799.32 1.041.222.246.56.373 1.011.38a1.5 1.5 0 0 0 .456-.058c.144-.053.27-.121.379-.203.072-.057.258-.256.554-.594l.365-.464c.233-.26.46-.39.679-.386.101 0 .186.037.258.105a.365.365 0 0 1 .11.282c-.002.138-.054.239-.157.3-.074.042-.191.062-.35.06l-.358-.006-.018 1.058.52.009c.307.005.571-.093.793-.29.278-.249.423-.616.432-1.104.009-.511-.132-.903-.421-1.178a1.142 1.142 0 0 0-.786-.329h-.048c-.318 0-.582.054-.791.165m-2.73-2.158l4.834.083.02-1.095-4.835-.083-.02 1.095zm.11-2.96l.931.032.025-.706 3.9.134.039-1.096-3.899-.133.026-.709-.932-.032-.089 2.508-.002.002zm.245-5.216l1.614.416-1.647.22-.06 1.126 2.968-.739 1.909.098.058-1.093-1.989-.104-2.792-1.037-.06 1.111-.001.002z" fill="#fff"/></mask><path d="M73.145 33.328H41.441v62.191h31.704V33.328z" fill="url(#h)" mask="url(#g)"/><path d="M39.903 4.91l.875 2.203 2.366.154-1.822 1.516.583 2.297-2.002-1.265-2.005 1.265.585-2.297-1.824-1.516 2.366-.154.878-2.203z" stroke="#EB2127" stroke-width="1.97" stroke-miterlimit="2.61"/><path fill-rule="evenodd" clip-rule="evenodd" d="M39.903 4.91l.875 2.203 2.366.154-1.822 1.516.583 2.297-2.002-1.265-2.005 1.265.585-2.297-1.824-1.516 2.366-.154.878-2.203z" fill="#FEDD00"/><path d="M41.88 11.087l-1.975-1.301.065-1.431 1.91 2.732zm1.226-3.764l-1.861 1.463-1.337-.516 3.198-.947zm-3.201-2.411l.874 2.201-.874 1.135V4.912zm-3.23 2.36l2.361-.16.814 1.18-3.174-1.02zm1.23 3.777l.604-2.29 1.378-.395-1.981 2.685z" stroke="#EB2127" stroke-width=".79" stroke-miterlimit="2.61"/><path fill-rule="evenodd" clip-rule="evenodd" d="M41.88 11.087l-1.975-1.301.065-1.431 1.91 2.732zm1.226-3.764l-1.861 1.463-1.337-.516 3.198-.947zm-3.201-2.411l.874 2.201-.874 1.135V4.912zm-3.23 2.36l2.361-.16.814 1.18-3.174-1.02zm1.23 3.777l.604-2.29 1.378-.394-1.981 2.684z" fill="#FEDD00"/><path fill-rule="evenodd" clip-rule="evenodd" d="M47.852 74.354c.178-1.26 1.058-5.942 4.307-6.53.646 1.233.529 3.082.529 3.082s.352-2.281.821-2.836c.47-2.465 1.293-8.072 4.053-10.353l-.06-.493s-2.467-3.82-.881-8.628c.704.123.881.432.881.432s.61-1.852-2.366-3.882c.121-.609.703-.634 1.138-.406.435.227 1.09.735 1.09.735l.339-.253s-.847-2.575-.354-8.02c.04-.27.473-.186 1.006.352.532.539 2.85 2.52 2.815 9.112.724-.587 1.085-.759 1.282-1.207.526 1.623.592 6.385-.296 10.733-.1.31.264.034.264.034s.953-1.587 2.466-2.071c-.263.759-.197.793-.197 1.173s0 .587-.691 1.138c-.692.553-2.927 2.106-3.355 3.969-.428 1.863 1.316 1.173 1.677 1.207.361.034 1.317-.208.724 1.346-.592 1.553-2.237 3.244-3.52 4.556-.56.553-.064 1.38.494 1.657.23.208.36-.171.525-.38.165-.207.396-.136.493.209.1.345.165.88.526 1 .361.122-.248.536-.641.605-.394.068-1.201.224-2.04-.138-.839-.363-1.184-.144-1.213.197-.029.342-.823.437-.823.437s1.65.523 1.945 1.524c.164 1.194-2.933 2.584-3.64 2.825-1.005.343-2.41.672-4.311.834-.396.138-.593.519-.33.725.264.208.777 1.395-.407 2.306-.174.132-.484-.708-.603-1.4l-.342 5.988s-4.847.373-9.16 3.219v-9.75l.008-.007c.188-.13 3.505-2.402 7.843-3.038" fill="url(#i)"/><path d="M51.869 68.37a.129.129 0 0 1 .139-.117c.07.007.119.074.112.146 0 .005-.183 1.726-.587 2.291-.06.084-.125.17-.206.279-.582.777-1.887 2.523-2.15 3.826a.127.127 0 0 1-.149.102c-.069-.014-.112-.084-.097-.157.274-1.364 1.605-3.144 2.197-3.936.09-.12.165-.218.203-.273.362-.506.536-2.156.538-2.16z" fill="#FCEE1F"/><path d="M48.771 72.16c-.002-.073.053-.136.121-.138a.13.13 0 0 1 .132.129c0 .005.076 2.132.15 2.468a.132.132 0 0 1-.096.16.127.127 0 0 1-.151-.1c-.08-.36-.157-2.514-.157-2.52M49.562 70.403a.123.123 0 0 1 .175-.038c.058.04.075.123.037.185 0 0-.336.527-.313 1.236.013.377.118.62.208.831.088.208.164.387.152.63a.129.129 0 0 1-.134.125c-.07-.003-.123-.067-.12-.14.012-.18-.053-.331-.13-.507-.099-.233-.212-.5-.229-.93a2.651 2.651 0 0 1 .354-1.392zM50.237 69.77a.123.123 0 0 1 .179-.01.14.14 0 0 1 .01.188s-.245.282-.223.681c.023.434.374 1.323.374 1.325a.134.134 0 0 1-.069.173.124.124 0 0 1-.164-.072c0-.002-.367-.933-.394-1.412-.029-.51.287-.872.287-.874M50.72 69.398a.128.128 0 0 1 .153-.097.13.13 0 0 1 .092.16s-.162.658.381 1.304a.137.137 0 0 1-.01.188.123.123 0 0 1-.18-.011c-.631-.75-.438-1.538-.436-1.542M51.648 70.528a.127.127 0 0 1-.138-.12.132.132 0 0 1 .114-.144s.52-.045.603-.459c.098-.49.074-.737.074-.74a.132.132 0 0 1 .114-.144.127.127 0 0 1 .137.12s.028.289-.079.816c-.121.608-.827.67-.829.67M50.566 72.221a.135.135 0 0 1 .096-.159c.069-.016.135.03.152.101 0 0 .063.31.18.362.027.012.049.023.07.034.093.047.143.072.465-.085a.123.123 0 0 1 .168.063.135.135 0 0 1-.06.177c-.431.214-.52.169-.682.085-.018-.009-.038-.02-.06-.028-.24-.109-.33-.548-.33-.55M50.042 73.237a.13.13 0 0 1-.142-.114.131.131 0 0 1 .108-.148s.46-.065.634.218l.005.01c.015.021.029.043.047.063a.77.77 0 0 0 .067.065c.123.103.292.164.448.105a.125.125 0 0 1 .162.08.136.136 0 0 1-.076.169c-.249.096-.51.005-.693-.148a.717.717 0 0 1-.168-.193l-.004-.004v-.004h-.001c-.085-.143-.387-.1-.387-.1z" fill="#FCEE1F"/><path d="M49.02 74.659c-.07-.004-.122-.067-.119-.14a.13.13 0 0 1 .134-.126c.002 0 .668.047.766-.282a.126.126 0 0 1 .159-.086c.041.012.07.047.083.086.061.205.164.295.267.33.11.037.233.02.31.008.07-.01.134.04.143.112a.132.132 0 0 1-.108.15c-.101.015-.26.038-.424-.018a.61.61 0 0 1-.33-.272c-.297.28-.88.238-.882.238M49.763 75.908a.135.135 0 0 1 .047-.18.122.122 0 0 1 .171.048l.383.697a.135.135 0 0 1-.047.181.122.122 0 0 1-.171-.049l-.383-.697zM50.111 77.137a.14.14 0 0 1 .007-.188.123.123 0 0 1 .18.009s.489.544.1 1.534a.124.124 0 0 1-.164.072.134.134 0 0 1-.069-.173c.327-.833-.052-1.254-.052-1.254M49.774 77.323a.128.128 0 0 1 .144-.11c.069.01.116.079.105.151 0 0-.072.46.05 1.08a.132.132 0 0 1-.097.156.127.127 0 0 1-.15-.103c-.132-.668-.052-1.172-.052-1.174zM51.041 75.376a.126.126 0 0 1-.162-.08.134.134 0 0 1 .076-.169s.297-.117.455.132c.047.074.13.199.242.298a.526.526 0 0 0 .386.154.13.13 0 0 1 .136.123.129.129 0 0 1-.118.14c-.231.017-.42-.086-.567-.214a1.655 1.655 0 0 1-.289-.353c-.047-.072-.157-.029-.157-.029" fill="#FCEE1F"/><path d="M50.254 76.15c-.008.072-.07.126-.14.117-.07-.007-.119-.074-.111-.146 0-.005.137-2.112 8.39-3.497a.128.128 0 0 1 .144.11c.011.073-.036.141-.105.152-8.06 1.352-8.177 3.258-8.177 3.264" fill="#FCEE1F"/><path d="M51.997 74.712a.134.134 0 0 1-.101-.156.126.126 0 0 1 .148-.105s.616.123.713.528c.034.146.092.31.188.435a.507.507 0 0 0 .388.215c.07.004.123.067.12.141a.128.128 0 0 1-.134.125.748.748 0 0 1-.571-.314 1.451 1.451 0 0 1-.235-.537c-.057-.239-.513-.33-.514-.33M53.336 74.272a.139.139 0 0 1 0-.188.121.121 0 0 1 .18 0s.252.266.517.313c.2.034.31.215.421.403.096.159.197.327.341.347a.131.131 0 0 1 .109.148.127.127 0 0 1-.143.114c-.262-.036-.395-.258-.522-.468-.083-.137-.16-.267-.249-.284-.347-.061-.655-.385-.657-.385M54.58 73.806a.132.132 0 0 1 .096-.159.127.127 0 0 1 .152.1c0 .001.159.76.957.809a.13.13 0 0 1 .12.14c-.004.071-.064.13-.134.124-.992-.06-1.19-1.012-1.19-1.016M55.845 73.63a.137.137 0 0 1-.006-.187.121.121 0 0 1 .18-.006s.414.409.575.635c.11.153.27.135.27.135a.128.128 0 0 1 .138.118.133.133 0 0 1-.112.146s-.301.034-.498-.24c-.146-.204-.547-.598-.547-.6zM56.638 73.409a.136.136 0 0 1 .052-.18.124.124 0 0 1 .172.057c0 .003.565 1.142.92.253a.126.126 0 0 1 .167-.073.135.135 0 0 1 .068.174c-.565 1.417-1.378-.226-1.38-.231zM57.233 72.825c-.007.072-.07.126-.139.117-.069-.007-.12-.074-.112-.146 0-.002.09-.851.569-.815a.13.13 0 0 1 .117.143c-.005.074-.065.128-.135.122-.237-.018-.3.579-.3.579zM56.544 73.052a.13.13 0 0 1-.128.132.127.127 0 0 1-.125-.133c0-.002 0-.817.562-1.258a.122.122 0 0 1 .177.027.138.138 0 0 1-.026.186c-.46.363-.46 1.046-.46 1.048M55.623 73.278c.007.073-.044.14-.112.147a.128.128 0 0 1-.14-.118c0-.002-.084-.773.358-1.113.356-.273.52-.67.522-.67a.125.125 0 0 1 .166-.069.134.134 0 0 1 .065.175s-.193.461-.603.777c-.323.25-.256.87-.256.871zM54.658 73.41a.137.137 0 0 1-.042.183.123.123 0 0 1-.175-.044s-.363-.601.022-.972c.09-.087.173-.153.247-.213.156-.123.26-.206.273-.398.005-.072.067-.128.135-.122a.13.13 0 0 1 .118.142c-.022.31-.164.423-.374.59a2.781 2.781 0 0 0-.23.196c-.229.22.022.636.022.636M53.203 74.005a.136.136 0 0 1-.047.18.125.125 0 0 1-.173-.048c0-.002-.383-.68.15-1.21.227-.223.346-.343.417-.435a.93.93 0 0 0 .139-.29.125.125 0 0 1 .162-.08c.065.025.1.101.076.17-.056.16-.09.25-.18.365-.083.11-.208.233-.441.462-.386.383-.107.882-.105.884M52.556 72.284a.122.122 0 0 1-.177.027.138.138 0 0 1-.027-.186c.003-.005 1.295-1.836 1.323-2.076.006-.042.018-.134.05-.282.028-.143.073-.338.144-.59.355-1.273 1.345-3.971 4.047-8.337.493-1.085.935-2.014.935-2.015a.124.124 0 0 1 .17-.06.137.137 0 0 1 .057.179c0 .004-.444.93-.937 2.017l-.007.014c-2.689 4.345-3.671 7.017-4.023 8.277-.067.24-.112.432-.14.571-.026.136-.04.22-.045.259-.038.31-1.369 2.197-1.372 2.202" fill="#FCEE1F"/><path d="M55.244 66.106c.012.072-.03.143-.101.155a.126.126 0 0 1-.148-.105c0-.003-.2-1.053-.053-2.934a.127.127 0 0 1 .138-.122c.07.006.122.071.115.143-.146 1.845.047 2.86.047 2.863M56.276 64.28a.132.132 0 0 1-.086.165c-.067.022-.137-.02-.157-.09 0-.004-.305-1.067-.199-1.567.076-.362.157-.551.193-.627v-1.468a.13.13 0 0 1 .127-.133c.07 0 .126.06.126.133v1.502c0 .025-.007.05-.02.072 0 0-.086.136-.18.579-.092.432.195 1.433.195 1.435M56.917 62.804c-.02.07-.09.11-.157.089a.135.135 0 0 1-.085-.167c0-.002.239-.798.096-1.7v-.007c-.12-.76.074-1.54.186-1.994.029-.115.05-.207.061-.27a.126.126 0 0 1 .147-.11c.068.013.115.08.104.154-.01.07-.036.17-.066.293-.107.434-.291 1.178-.181 1.885v.004a4.534 4.534 0 0 1-.103 1.82M57.81 61.273a.129.129 0 0 1-.135.123.13.13 0 0 1-.117-.142l.296-4.04c.006-.072.067-.128.136-.122a.13.13 0 0 1 .117.142l-.296 4.038v.001zM58.246 59.553a.124.124 0 0 1-.164.074.136.136 0 0 1-.07-.173c0-.006.635-1.643.731-2.3.1-.677.197-1.75.197-1.754.007-.072.069-.126.137-.12a.132.132 0 0 1 .114.145c0 .004-.1 1.097-.199 1.768-.1.688-.745 2.355-.747 2.358M51.803 74.408a.128.128 0 0 1-.148.106c-.069-.012-.114-.083-.101-.155 0-.002.148-.855.881-1.623.166-.173.022-.023.07-.074.69-.726 1.306-1.375 3.596-1.738a.13.13 0 0 1 .145.112.133.133 0 0 1-.107.151c-2.207.351-2.796.97-3.453 1.663-.096.1.049-.05-.07.074-.678.71-.811 1.482-.811 1.484M53.122 71.628a.128.128 0 0 1-.156-.094.134.134 0 0 1 .09-.162c.006 0 2.137-.579 3.166-2.38l.004-.007c.148-.259.316-.535.5-.823.186-.293.388-.592.6-.896 1.096-1.567 2.49-3.217 3.521-3.866.495-.312.885-.506 1.185-.654.509-.25.728-.36.728-.712a.13.13 0 0 1 .126-.133c.07 0 .126.06.126.133 0 .519-.261.649-.872.953-.296.146-.68.338-1.163.641-.998.629-2.366 2.25-3.445 3.795a25.4 25.4 0 0 0-.595.886 17.183 17.183 0 0 0-.498.82c-1.085 1.896-3.312 2.498-3.317 2.5z" fill="#FCEE1F"/><path d="M55.485 70.499a.138.138 0 0 1-.034-.184.125.125 0 0 1 .175-.037c.004.002 1.017.732 1.441-.03a.124.124 0 0 1 .173-.049.14.14 0 0 1 .047.183c-.561 1.011-1.798.119-1.802.117zM56.618 68.95a.137.137 0 0 1-.042-.182.122.122 0 0 1 .173-.044c.004.002 1.248.828 2.093-.195a.122.122 0 0 1 .18-.013c.052.05.059.132.012.188-.988 1.197-2.414.252-2.418.248M57.361 68.007a.124.124 0 0 1-.168.063.135.135 0 0 1-.06-.177c0-.004.458-1.037 2.23-1.037.07 0 .126.06.126.133 0 .075-.058.134-.127.134-1.61 0-1.999.884-2 .886M58.655 65.987a.136.136 0 0 1-.029-.187.123.123 0 0 1 .177-.03c.002 0 .73.556 1.59.348a.127.127 0 0 1 .15.1.132.132 0 0 1-.095.159c-.973.235-1.791-.389-1.793-.39zM59.502 64.951a.136.136 0 0 1-.03-.184c.039-.06.118-.075.174-.033.004.002.929.696 1.498.43a.124.124 0 0 1 .166.067.135.135 0 0 1-.065.175c-.701.328-1.743-.455-1.745-.457M60.58 63.767a.133.133 0 0 1 .09-.16.125.125 0 0 1 .153.095c0 .002.188.788.865.788.07 0 .127.06.127.134a.13.13 0 0 1-.127.134c-.874 0-1.109-.985-1.109-.987M61.318 63.185a.132.132 0 0 1-.094.16.126.126 0 0 1-.151-.098c0-.002-.17-.716.44-.898.403-.121.401-.39.401-.39a.13.13 0 0 1 .128-.133c.07 0 .127.06.125.134 0 0 0 .47-.585.645-.376.112-.264.58-.264.58z" fill="#FCEE1F"/><path d="M60.616 63.733a.128.128 0 0 1-.126.132.13.13 0 0 1-.127-.132c0-.004 0-1.223.444-1.923a.125.125 0 0 1 .177-.038.139.139 0 0 1 .037.184c-.403.633-.403 1.771-.403 1.775M59.347 64.973c.009.072-.04.139-.109.15a.13.13 0 0 1-.142-.114c0-.004-.156-1.137.289-1.325.269-.112.541-.368.632-.457l.135-1.283c.007-.072.07-.127.14-.118.068.008.118.075.111.147l-.14 1.325a.13.13 0 0 1-.037.086s-.37.389-.748.548c-.26.108-.133 1.039-.133 1.043" fill="#FCEE1F"/><path d="M58.36 66.1a.13.13 0 0 1-.126.132.13.13 0 0 1-.127-.133c0-.002 0-.702.441-1.473a3.957 3.957 0 0 0 .477-1.424.13.13 0 0 1 .139-.12c.07.008.119.073.114.147 0 .002-.074.768-.511 1.534-.405.708-.405 1.335-.405 1.337" fill="#FCEE1F"/><path d="M57.586 67.224c-.008.073-.07.127-.14.118-.07-.007-.118-.074-.111-.147 0-.007.218-2.211.91-2.616a.122.122 0 0 1 .171.052.136.136 0 0 1-.048.18c-.576.337-.78 2.408-.782 2.413z" fill="#FCEE1F"/><path d="M56.103 69.606a.128.128 0 0 1-.151.101.132.132 0 0 1-.096-.159c0-.007.493-2.288 1.064-3.207.05-.186.119-.405.206-.642.088-.246.195-.515.32-.8.633-1.459 1.684-3.232 2.784-3.727a.123.123 0 0 1 .166.07.134.134 0 0 1-.067.174c-1.031.465-2.039 2.18-2.654 3.593-.12.275-.224.54-.313.782-.085.237-.153.45-.202.631a.176.176 0 0 1-.018.049c-.551.867-1.039 3.128-1.04 3.135" fill="#FCEE1F"/><path d="M58.913 62.755a.126.126 0 0 1-.17.064.135.135 0 0 1-.06-.178c.006-.012 2.12-4.67 3.255-6.306a.123.123 0 0 1 .177-.03.14.14 0 0 1 .029.187c-1.122 1.617-3.226 6.253-3.231 6.265M58.359 63.467c-.017.073-.083.118-.152.102a.133.133 0 0 1-.096-.16c.002-.012.912-4.194.773-5.95-.005-.073.047-.138.116-.143a.13.13 0 0 1 .137.12c.143 1.795-.776 6.019-.778 6.031z" fill="#FCEE1F"/><path d="M58.987 61.563a.126.126 0 0 1-.164.077.138.138 0 0 1-.074-.171c.002-.006.695-1.896.627-2.977-.019-.29-.042-.536-.062-.755-.06-.667-.1-1.093.074-1.457a.124.124 0 0 1 .17-.06.136.136 0 0 1 .056.18c-.141.294-.105.692-.049 1.312.02.227.043.484.062.764.072 1.139-.642 3.083-.643 3.088M60.238 58.637a.122.122 0 0 1-.177.025.138.138 0 0 1-.025-.186c.003-.004 1.11-1.53 1.246-2.167a.126.126 0 0 1 .152-.101.132.132 0 0 1 .095.159c-.146.694-1.287 2.266-1.29 2.27zM62.015 46.196a.125.125 0 0 1 .152-.1c.069.017.11.088.096.16-.006.023-1.725 7.953-2.281 11.318-.013.072-.078.121-.146.109a.132.132 0 0 1-.103-.154c.554-3.365 2.279-11.31 2.284-11.33" fill="#FCEE1F"/><path d="M60.179 56.313a.125.125 0 0 1-.166-.07.136.136 0 0 1 .067-.174c.001 0 .88-.382 1.41-1.88a.126.126 0 0 1 .163-.08c.065.026.099.102.075.17-.567 1.607-1.547 2.032-1.55 2.032M60.83 53.916a.122.122 0 0 1-.178.019.14.14 0 0 1-.018-.188c0-.002.498-.638 1.437-1.565a.123.123 0 0 1 .179.005.137.137 0 0 1-.005.188c-.925.913-1.413 1.538-1.414 1.54M61.008 52.182a.13.13 0 0 1-.128-.132.13.13 0 0 1 .126-.134s.582 0 .82-.502a5.146 5.146 0 0 0 .372-1.117.128.128 0 0 1 .15-.105.133.133 0 0 1 .1.157s-.113.591-.396 1.184c-.309.649-1.042.649-1.044.649zM61.371 50.474a.121.121 0 0 1-.179 0 .136.136 0 0 1 0-.188c.002-.002.853-.895.954-1.32.105-.442.105-1.116.105-1.118a.13.13 0 0 1 .126-.134.13.13 0 0 1 .126.134c0 .002 0 .707-.114 1.182-.117.495-1.016 1.438-1.02 1.442M61.328 46.59a.125.125 0 0 1 .166-.07.134.134 0 0 1 .067.173c0 .004-.434 1.063.132 1.2.068.017.11.089.095.16a.127.127 0 0 1-.151.099c-.862-.208-.31-1.558-.307-1.562M60.715 47.432a.127.127 0 0 1 .14-.115c.071.009.12.074.11.148 0 .01-.425 3.638.032 3.83a.136.136 0 0 1 .07.173.124.124 0 0 1-.164.074c-.64-.27-.19-4.097-.188-4.108" fill="#FCEE1F"/><path d="M60.637 53.712a.135.135 0 0 1-.096.16.125.125 0 0 1-.15-.102c-.001-.009-.66-3.123-.66-3.55 0-.426.137-.88.411-.977l-.027-.047c-.14-.246-.372-.647-.211-1.124.245-.735.984-2.928.986-2.935a.127.127 0 0 1 .162-.081.134.134 0 0 1 .078.17l-.988 2.933c-.119.36.072.696.19.9.061.105.106.184.106.26 0 .112-.054.174-.186.174-.178 0-.267.38-.267.73 0 .4.652 3.482.654 3.491" fill="#FCEE1F"/><path d="M60.433 46.672c.069.01.118.08.107.151a.128.128 0 0 1-.145.112c-.001 0-.778-.092.262-3.075a.125.125 0 0 1 .163-.08c.065.026.1.101.076.17-.934 2.676-.465 2.722-.463 2.722z" fill="#FCEE1F"/><path d="M60.216 45.72a.137.137 0 0 1-.018.185.12.12 0 0 1-.177-.02s-.372-.433.47-3.366c.02-.07.09-.11.157-.09a.136.136 0 0 1 .085.166c-.804 2.797-.518 3.12-.517 3.122" fill="#FCEE1F"/><path d="M60.094 44.382a.137.137 0 0 1-.036.184.125.125 0 0 1-.177-.036s-.361-.533.312-3.009a.127.127 0 0 1 .157-.092c.067.02.107.094.087.164-.641 2.357-.347 2.787-.345 2.789M59.685 43.525a.13.13 0 0 1-.126.132.13.13 0 0 1-.126-.133c0-.002 0-.743.498-2.657a.125.125 0 0 1 .155-.092c.067.02.107.092.089.163-.49 1.88-.49 2.586-.49 2.587z" fill="#FCEE1F"/><path d="M57.343 39.517a.136.136 0 0 1 .05-.18.122.122 0 0 1 .17.052c.002.003.696 1.326 1.164 1.418.052.011.09.053.1.105.032.136.077.311.127.515.459 1.818 1.495 5.926.663 10.545a.128.128 0 0 1-.148.107c-.069-.013-.114-.084-.101-.156.822-4.561-.204-8.629-.66-10.429-.04-.168-.079-.316-.111-.45-.571-.22-1.254-1.521-1.255-1.527" fill="#FCEE1F"/><path d="M57.361 40.992a.14.14 0 0 1 .007-.188.121.121 0 0 1 .18.007c.001.002.745.851 1.39 1.29.057.04.076.123.038.185a.123.123 0 0 1-.175.04c-.672-.458-1.438-1.33-1.44-1.334zM57.44 42.661a.137.137 0 0 1-.019-.186.124.124 0 0 1 .179-.021c.003.002.986.833 1.632.833.07 0 .127.06.127.133a.13.13 0 0 1-.127.134c-.735 0-1.786-.889-1.79-.893M57.625 43.507a.13.13 0 0 1 .11-.148.128.128 0 0 1 .14.116s.057.5.436.614c.488.147 1.297.888 1.298.891a.14.14 0 0 1 .013.188.121.121 0 0 1-.179.013c-.001-.002-.769-.705-1.202-.835-.542-.163-.618-.835-.618-.837M57.652 44.54a.137.137 0 0 1 .02-.187.122.122 0 0 1 .177.022s.342.455.706.614c.416.18 1.09.853 1.091.855.05.05.053.134.005.188a.123.123 0 0 1-.178.005c-.002 0-.641-.638-1.015-.802-.425-.186-.806-.696-.807-.696M57.834 45.517a.135.135 0 0 1 .056-.18.123.123 0 0 1 .17.06s.267.563.764.655c.665.123.665.887.665.889a.13.13 0 0 1-.127.134.13.13 0 0 1-.128-.132s0-.546-.455-.63c-.623-.115-.946-.793-.946-.796" fill="#FCEE1F"/><path d="M58.43 46.755c-.066-.026-.098-.103-.075-.172a.127.127 0 0 1 .165-.078c.003 0 1.12.441 1.231 1.139a.133.133 0 0 1-.104.153c-.07.013-.134-.036-.147-.11-.087-.546-1.069-.932-1.07-.932zM58.642 47.788a.14.14 0 0 1 .012-.188.123.123 0 0 1 .18.013c0 .002.57.694.821.615a.124.124 0 0 1 .157.088.136.136 0 0 1-.085.166c-.408.129-1.083-.694-1.085-.695M58.947 49.005a.137.137 0 0 1-.005-.188.121.121 0 0 1 .179-.006s.554.546.66 1.034a.132.132 0 0 1-.095.159.127.127 0 0 1-.152-.1c-.09-.408-.587-.898-.588-.9" fill="#FCEE1F"/><path d="M57.71 46.014a.139.139 0 0 1 .036-.184.122.122 0 0 1 .175.037c.002.004.905 1.406 1.337 5.028a.132.132 0 0 1-.11.148.127.127 0 0 1-.141-.115c-.425-3.559-1.293-4.909-1.295-4.912" fill="#FCEE1F"/><path d="M57.793 49.384a.137.137 0 0 1-.002-.188.121.121 0 0 1 .179-.002c.005.008 2.196 2.198 1.085 5.762a.124.124 0 0 1-.159.085c-.066-.022-.102-.098-.08-.168 1.061-3.407-1.016-5.483-1.021-5.49" fill="#FCEE1F"/><path d="M59.238 52.102a.134.134 0 0 1 .109-.15.13.13 0 0 1 .142.114c0 .009.394 3.06.685 3.943a.134.134 0 0 1-.078.168.126.126 0 0 1-.16-.081c-.3-.91-.696-3.985-.698-3.994zM56.66 49.095a.128.128 0 0 1 .144-.112c.069.01.117.08.106.152 0 .005-.263 1.717.842 2.877l.007.009c.166.177.307.381.425.607.117.226.21.472.283.728.37 1.305.215 2.92-.027 3.681a.127.127 0 0 1-.159.085.135.135 0 0 1-.081-.168c.231-.728.38-2.273.023-3.522a3.619 3.619 0 0 0-.263-.678 2.364 2.364 0 0 0-.381-.545c-.002-.002-.006-.004-.008-.008-1.197-1.255-.913-3.099-.912-3.104" fill="#FCEE1F"/><path d="M57.168 49.426a.126.126 0 0 1 .156-.094c.068.02.108.092.09.162 0 0-.134.512.032.772.242.381-.094.969-.095.97a.125.125 0 0 1-.174.047.14.14 0 0 1-.045-.182s.255-.446.103-.687c-.23-.361-.067-.986-.067-.988zM57.906 50.004c-.013-.072.03-.143.099-.155a.126.126 0 0 1 .148.104c0 .004.302 1.587.045 2.397a.126.126 0 0 1-.159.085.135.135 0 0 1-.081-.169c.236-.742-.052-2.258-.054-2.262" fill="#FCEE1F"/><path d="M58.76 50.95a.123.123 0 0 1 .17-.051.136.136 0 0 1 .05.18c-.002.006-.913 1.675.178 2.087.065.026.1.102.076.17a.125.125 0 0 1-.163.08c-1.376-.52-.317-2.461-.314-2.469M56.276 51.533c0-.072.054-.134.125-.134a.13.13 0 0 1 .128.132s0 .593 1.008.593c.07 0 .126.06.126.133a.13.13 0 0 1-.126.134c-1.26 0-1.26-.855-1.26-.856M56.522 52.527c-.005-.072.047-.138.115-.143a.13.13 0 0 1 .138.121s.041.551.466.551c.574 0 .836 0 1.217.344a.14.14 0 0 1 .014.188.122.122 0 0 1-.179.014c-.308-.278-.541-.278-1.052-.278-.661 0-.72-.794-.72-.795M56.327 53.523a.13.13 0 0 1 .101-.154.126.126 0 0 1 .147.107s.081.511.715.511c.814 0 1.342.997 1.343 1a.136.136 0 0 1-.048.18.123.123 0 0 1-.172-.05c0-.002-.457-.864-1.123-.864-.847 0-.963-.729-.963-.732M56.78 54.695a.135.135 0 0 1 .06-.177.126.126 0 0 1 .17.063c0 .002.415.92.693.962a.645.645 0 0 1 .338.164c.24.215.403.624.365 1.115-.006.073-.067.129-.138.121-.07-.005-.12-.07-.115-.142.032-.403-.092-.727-.277-.891a.476.476 0 0 0-.102-.07.338.338 0 0 0-.105-.035c-.414-.062-.885-1.106-.887-1.11M57.558 37.544c.005-.073.067-.129.137-.121.07.005.121.07.116.142 0 .006-.155 1.835.805 2.212.065.026.1.102.074.17a.125.125 0 0 1-.162.078c-1.143-.45-.972-2.476-.97-2.483M58.877 38.577a.133.133 0 0 1 .104-.153c.069-.013.134.036.147.108 0 .004.236 1.413-.073 2.31a.125.125 0 0 1-.162.08.136.136 0 0 1-.076-.17c.285-.83.061-2.173.06-2.178M59.467 39.804a.131.131 0 0 1 .121-.139c.07-.003.128.053.132.127 0 .003.069 1.314-.444 2.279a.124.124 0 0 1-.172.052.136.136 0 0 1-.049-.18c.475-.899.412-2.135.412-2.139zM53.755 70.298a.133.133 0 0 1-.112-.148c.01-.072.07-.125.141-.116.004 0 1.176.161 1.792-1.078a.124.124 0 0 1 .171-.056.136.136 0 0 1 .054.178c-.699 1.406-2.042 1.222-2.046 1.222M54.152 68.963a.135.135 0 0 1-.06-.177.124.124 0 0 1 .169-.064c.002 0 .675.355 1.434-.708a.124.124 0 0 1 .176-.027.138.138 0 0 1 .026.186c-.885 1.238-1.743.79-1.746.788M54.831 67.271a.137.137 0 0 1-.002-.188.121.121 0 0 1 .18-.001s.65.68 1.171-.315a.122.122 0 0 1 .172-.052.138.138 0 0 1 .05.18c-.684 1.305-1.567.38-1.57.376M55.431 65.714a.137.137 0 0 1 .004-.188c.05-.05.13-.05.178.005 0 .002.607.687 1.176-.157.04-.06.12-.074.177-.033.058.042.07.125.03.185-.747 1.111-1.563.19-1.565.188zM56.062 64.286a.134.134 0 0 1 .078-.168.126.126 0 0 1 .16.083c0 .002.22.698.961.165a.123.123 0 0 1 .177.034c.04.06.025.142-.033.184-1.014.732-1.341-.293-1.341-.296M56.663 62.958a.134.134 0 0 1 .083-.167c.067-.021.137.019.159.089 0 .002.258.902.82.132.043-.058.122-.07.176-.025a.136.136 0 0 1 .024.186c-.863 1.183-1.262-.21-1.264-.215" fill="#FCEE1F"/><path fill-rule="evenodd" clip-rule="evenodd" d="M32.148 74.354c-.18-1.26-1.059-5.942-4.31-6.53-.646 1.233-.528 3.082-.528 3.082s-.352-2.281-.822-2.836c-.47-2.465-1.293-8.072-4.052-10.353l.057-.493s2.467-3.82.882-8.628c-.705.123-.882.432-.882.432s-.61-1.852 2.366-3.882c-.12-.609-.702-.634-1.138-.406-.435.227-1.088.735-1.088.735l-.34-.253s.849-2.575.354-8.02c-.04-.27-.473-.186-1.008.352-.532.539-2.848 2.52-2.815 9.112-.724-.587-1.085-.759-1.282-1.207-.528 1.623-.593 6.385.296 10.733.1.31-.264.034-.264.034s-.953-1.587-2.467-2.071c.264.759.197.793.197 1.173s0 .587.69 1.138c.692.553 2.927 2.106 3.355 3.969.428 1.863-1.316 1.173-1.677 1.207-.361.034-1.317-.208-.724 1.346.592 1.553 2.237 3.244 3.52 4.556.56.553.064 1.38-.494 1.657-.23.208-.36-.171-.525-.38-.165-.207-.394-.136-.493.209-.1.345-.165.88-.528 1-.36.122.248.536.642.605.395.068 1.2.224 2.038-.138.84-.363 1.185-.144 1.214.197.029.342.823.437.823.437s-1.65.523-1.945 1.524c-.164 1.194 2.933 2.584 3.64 2.825 1.005.343 2.41.672 4.312.834.395.138.592.519.328.725-.263.208-.776 1.395.409 2.306.173.132.483-.708.603-1.4l.34 5.988s4.848.373 9.16 3.219h.002v-9.75l-.009-.007c-.188-.13-3.505-2.402-7.843-3.038" fill="url(#j)"/><path d="M28.132 68.37a.129.129 0 0 0-.14-.117c-.07.007-.119.074-.111.146 0 .005.182 1.726.587 2.291.06.084.124.17.205.279.582.777 1.888 2.523 2.15 3.826a.127.127 0 0 0 .15.102c.068-.014.111-.084.097-.157-.275-1.364-1.606-3.144-2.198-3.936-.09-.12-.164-.218-.202-.273-.363-.506-.537-2.156-.538-2.16z" fill="#FCEE1F"/><path d="M31.253 71.983c.002-.073-.053-.136-.123-.138a.13.13 0 0 0-.132.129c0 .005-.076 2.132-.15 2.47a.133.133 0 0 0 .096.159.127.127 0 0 0 .152-.1c.079-.359.157-2.513.157-2.519M30.438 70.403a.123.123 0 0 0-.175-.038.138.138 0 0 0-.036.185s.336.527.313 1.236c-.013.377-.118.62-.208.831-.089.208-.165.387-.152.63a.129.129 0 0 0 .134.125c.07-.003.122-.067.119-.14-.01-.18.054-.331.13-.507.1-.233.213-.5.23-.93a2.651 2.651 0 0 0-.355-1.392zM29.762 69.77a.123.123 0 0 0-.178-.01.14.14 0 0 0-.011.188s.245.282.224.681c-.024.434-.374 1.323-.374 1.325a.134.134 0 0 0 .069.173.124.124 0 0 0 .164-.072c0-.002.367-.933.394-1.412.028-.51-.288-.872-.288-.874M29.28 69.398a.128.128 0 0 0-.153-.097.13.13 0 0 0-.092.16s.163.658-.38 1.304a.137.137 0 0 0 .01.188.123.123 0 0 0 .179-.011c.632-.75.439-1.538.437-1.542M28.354 70.528a.128.128 0 0 0 .137-.12.132.132 0 0 0-.113-.144s-.52-.045-.604-.459c-.097-.49-.074-.737-.074-.74a.132.132 0 0 0-.113-.144.127.127 0 0 0-.138.12s-.027.289.08.816c.12.608.827.67.829.67M29.434 72.221a.135.135 0 0 0-.098-.159c-.068-.016-.135.03-.151.101 0 0-.063.31-.18.362-.028.012-.05.023-.071.034-.092.047-.143.072-.464-.085a.123.123 0 0 0-.168.063.135.135 0 0 0 .06.177c.43.214.52.169.682.085.018-.009.038-.02.06-.028.24-.109.33-.548.33-.55zM29.96 73.237a.128.128 0 0 0 .14-.114.131.131 0 0 0-.108-.148s-.46-.065-.634.218l-.005.01c-.015.021-.03.043-.047.063a.77.77 0 0 1-.067.065c-.123.103-.293.164-.448.105a.125.125 0 0 0-.163.08.136.136 0 0 0 .076.169c.25.096.511.005.694-.148a.717.717 0 0 0 .168-.193l.003-.004v-.004h.002c.085-.143.387-.1.388-.1z" fill="#FCEE1F"/><path d="M30.98 74.659c.07-.004.123-.067.12-.14a.129.129 0 0 0-.134-.126c-.002 0-.669.047-.766-.282a.125.125 0 0 0-.242 0c-.061.205-.164.295-.267.33-.11.037-.233.02-.31.008a.126.126 0 0 0-.144.112.133.133 0 0 0 .109.15c.1.015.26.038.424-.018a.61.61 0 0 0 .33-.272c.297.28.88.238.882.238M30.237 75.908a.135.135 0 0 0-.047-.18.123.123 0 0 0-.171.048l-.383.697a.135.135 0 0 0 .047.181.122.122 0 0 0 .171-.049l.383-.697zM29.889 77.137a.139.139 0 0 0-.007-.188.123.123 0 0 0-.179.009s-.49.544-.101 1.534c.027.069.101.1.164.072a.134.134 0 0 0 .069-.173c-.327-.833.052-1.254.052-1.254M30.228 77.323a.128.128 0 0 0-.144-.11c-.069.01-.116.079-.105.151 0 0 .072.46-.05 1.08a.133.133 0 0 0 .097.156.127.127 0 0 0 .15-.103c.132-.668.052-1.172.052-1.174zM28.96 75.376a.126.126 0 0 0 .163-.08.134.134 0 0 0-.076-.169s-.297-.117-.455.132a1.41 1.41 0 0 1-.242.298.526.526 0 0 1-.386.154.13.13 0 0 0-.136.123.129.129 0 0 0 .118.14c.231.017.42-.086.567-.214.137-.123.235-.266.289-.353.047-.072.157-.029.157-.029" fill="#FCEE1F"/><path d="M29.746 76.15c.007.072.07.126.14.117.07-.007.118-.074.111-.146 0-.005-.137-2.112-8.39-3.497a.128.128 0 0 0-.145.11c-.01.073.037.141.105.152 8.06 1.352 8.177 3.258 8.177 3.264" fill="#FCEE1F"/><path d="M28.006 74.712a.134.134 0 0 0 .1-.156.126.126 0 0 0-.147-.105s-.616.123-.714.528c-.034.146-.092.31-.188.435a.507.507 0 0 1-.388.215c-.07.004-.123.067-.119.141a.128.128 0 0 0 .134.125.747.747 0 0 0 .57-.314c.123-.163.194-.362.235-.537.058-.239.513-.33.515-.33M26.664 74.272a.139.139 0 0 0 0-.188.121.121 0 0 0-.179 0s-.252.266-.52.313c-.2.034-.307.215-.42.403-.096.159-.197.327-.342.347a.131.131 0 0 0-.108.148c.009.072.072.125.143.114.261-.036.395-.258.521-.468.084-.137.161-.267.25-.284.346-.061.655-.385.657-.385M25.42 73.806a.132.132 0 0 0-.096-.159.127.127 0 0 0-.152.1c0 .001-.159.76-.957.809a.13.13 0 0 0-.12.14c.005.071.064.13.135.124.99-.06 1.19-1.012 1.19-1.016M24.155 73.63a.137.137 0 0 0 .006-.187.121.121 0 0 0-.179-.006s-.415.409-.576.635c-.11.153-.27.135-.27.135a.128.128 0 0 0-.138.118.133.133 0 0 0 .112.146s.301.034.498-.24c.146-.204.547-.598.55-.6M23.362 73.409a.136.136 0 0 0-.052-.18.124.124 0 0 0-.172.057c0 .003-.565 1.142-.92.253a.126.126 0 0 0-.167-.073.135.135 0 0 0-.068.174c.565 1.417 1.377-.226 1.38-.231zM22.767 72.825c.007.072.07.126.139.117.07-.007.119-.074.112-.146 0-.002-.09-.851-.57-.815a.13.13 0 0 0-.117.143c.006.074.066.128.136.122.236-.018.3.579.3.579zM23.456 73.052a.13.13 0 0 0 .128.132c.07 0 .127-.06.125-.133 0-.002 0-.817-.561-1.258a.122.122 0 0 0-.177.027.138.138 0 0 0 .025.186c.46.363.46 1.046.46 1.048M24.378 73.278c-.008.073.043.14.111.147a.128.128 0 0 0 .14-.118c0-.002.084-.773-.358-1.113-.356-.273-.52-.67-.522-.67a.126.126 0 0 0-.168-.069.134.134 0 0 0-.065.175s.193.461.603.777c.323.25.257.87.257.871M25.342 73.41a.136.136 0 0 0 .04.183c.06.04.137.02.175-.044 0 0 .363-.601-.022-.972a3.557 3.557 0 0 0-.247-.213c-.156-.123-.26-.206-.273-.398-.006-.072-.067-.128-.136-.122a.13.13 0 0 0-.117.142c.022.31.164.423.374.59.069.054.148.117.23.196.227.22-.022.636-.022.636M26.797 74.005a.135.135 0 0 0 .047.18c.06.037.137.015.173-.048 0-.002.383-.68-.15-1.21a5.124 5.124 0 0 1-.417-.435.93.93 0 0 1-.139-.29.125.125 0 0 0-.162-.08.136.136 0 0 0-.076.17c.056.16.092.25.18.365.084.11.208.233.441.462.387.383.107.882.105.884M27.444 72.284c.041.06.12.07.177.027a.138.138 0 0 0 .027-.186c-.004-.005-1.295-1.836-1.324-2.076a3.701 3.701 0 0 0-.049-.282 8.313 8.313 0 0 0-.144-.59c-.356-1.273-1.345-3.971-4.049-8.337-.493-1.085-.935-2.014-.935-2.015a.124.124 0 0 0-.17-.06.137.137 0 0 0-.058.179c0 .004.443.93.938 2.017l.007.014c2.689 4.345 3.671 7.017 4.023 8.277.067.24.112.432.14.571.026.136.039.22.044.259.038.31 1.37 2.197 1.373 2.202z" fill="#FCEE1F"/><path d="M24.757 66.106c-.013.072.03.143.1.155a.126.126 0 0 0 .148-.105c0-.003.2-1.053.05-2.934a.127.127 0 0 0-.137-.122c-.07.006-.121.071-.116.143.146 1.845-.047 2.86-.047 2.863M23.724 64.28c-.02.071.018.145.085.165.067.022.137-.02.157-.09 0-.004.305-1.067.199-1.567a2.794 2.794 0 0 0-.193-.627v-1.468a.13.13 0 0 0-.127-.133.13.13 0 0 0-.126.133v1.502c0 .025.007.05.02.072 0 0 .086.136.18.579.092.432-.195 1.433-.195 1.435zM23.082 62.804c.02.07.09.11.157.089a.135.135 0 0 0 .085-.167c0-.002-.238-.798-.096-1.7v-.007c.12-.76-.074-1.54-.186-1.994a4.145 4.145 0 0 1-.06-.27.126.126 0 0 0-.147-.11.134.134 0 0 0-.105.154c.01.07.036.17.067.293.106.434.29 1.178.18 1.885v.004a4.534 4.534 0 0 0 .103 1.82M22.19 61.273a.129.129 0 0 0 .135.123.13.13 0 0 0 .117-.142l-.296-4.04c-.006-.072-.067-.128-.136-.122a.13.13 0 0 0-.117.142l.296 4.038v.001zM21.754 59.553c.025.069.1.101.164.074a.135.135 0 0 0 .07-.173c-.001-.006-.635-1.643-.73-2.3-.1-.677-.198-1.75-.198-1.754-.007-.072-.068-.126-.137-.12a.132.132 0 0 0-.114.145c0 .004.1 1.097.199 1.768.101.688.746 2.355.748 2.358M28.197 74.408c.012.072.08.12.148.106.069-.012.114-.083.101-.155 0-.002-.148-.855-.881-1.623-.166-.173-.022-.023-.07-.074-.69-.726-1.306-1.375-3.596-1.738a.13.13 0 0 0-.145.112c-.01.072.038.14.107.151 2.207.351 2.796.97 3.453 1.663.096.1-.049-.05.07.074.677.71.811 1.482.811 1.484M26.88 71.628a.128.128 0 0 0 .155-.094.134.134 0 0 0-.09-.162c-.005 0-2.136-.579-3.166-2.38l-.003-.007a19.432 19.432 0 0 0-.5-.823 25.798 25.798 0 0 0-.6-.896c-1.096-1.567-2.49-3.217-3.521-3.866a12.043 12.043 0 0 0-1.185-.654c-.51-.25-.728-.36-.728-.712a.13.13 0 0 0-.126-.133.13.13 0 0 0-.127.133c0 .519.262.649.872.953.297.146.681.338 1.163.641 1 .629 2.366 2.25 3.446 3.795.211.302.412.6.594.886a17.267 17.267 0 0 1 .499.82c1.085 1.896 3.312 2.498 3.317 2.5z" fill="#FCEE1F"/><path d="M24.517 70.499a.138.138 0 0 0 .034-.184.124.124 0 0 0-.175-.037c-.004.002-1.017.732-1.441-.03a.124.124 0 0 0-.173-.049.139.139 0 0 0-.047.183c.561 1.011 1.798.119 1.802.117zM23.384 68.95a.137.137 0 0 0 .042-.182.122.122 0 0 0-.174-.044c-.003.002-1.248.828-2.093-.195a.122.122 0 0 0-.178-.013.137.137 0 0 0-.013.188c.988 1.197 2.414.252 2.418.248M22.638 68.007c.03.067.105.094.168.063.063-.03.09-.11.06-.177 0-.004-.457-1.037-2.229-1.037a.13.13 0 0 0-.126.133.13.13 0 0 0 .126.134c1.611 0 2 .884 2.001.886M21.347 65.987a.136.136 0 0 0 .03-.187.123.123 0 0 0-.178-.03c-.002 0-.73.556-1.589.348a.127.127 0 0 0-.151.1.132.132 0 0 0 .095.159c.974.235 1.792-.389 1.793-.39zM20.5 64.951a.138.138 0 0 0 .031-.184.122.122 0 0 0-.175-.033c-.004.002-.928.696-1.497.43a.124.124 0 0 0-.166.067.135.135 0 0 0 .065.175c.7.328 1.742-.455 1.744-.457M19.422 63.767a.132.132 0 0 0-.09-.16.124.124 0 0 0-.154.095c0 .002-.188.788-.865.788a.13.13 0 0 0-.127.134.13.13 0 0 0 .127.134c.874 0 1.109-.985 1.109-.987M18.682 63.185a.132.132 0 0 0 .094.16.126.126 0 0 0 .151-.098c0-.002.17-.716-.44-.898-.403-.121-.401-.39-.401-.39a.13.13 0 0 0-.128-.133c-.07 0-.127.06-.125.134 0 0 0 .47.585.645.376.112.264.58.264.58z" fill="#FCEE1F"/><path d="M19.384 63.733c0 .074.056.132.126.132a.13.13 0 0 0 .127-.132c0-.004 0-1.223-.444-1.923a.125.125 0 0 0-.177-.038.138.138 0 0 0-.036.184c.402.633.402 1.771.402 1.775M20.654 64.973c-.01.072.04.139.108.15a.13.13 0 0 0 .143-.114c0-.004.155-1.137-.29-1.325-.268-.112-.54-.368-.631-.457l-.136-1.283c-.007-.072-.07-.127-.139-.118-.068.008-.119.075-.112.147l.141 1.325a.13.13 0 0 0 .036.086s.37.389.748.548c.26.108.134 1.039.134 1.043" fill="#FCEE1F"/><path d="M21.64 66.1a.13.13 0 0 0 .126.132.13.13 0 0 0 .127-.133c0-.002 0-.702-.441-1.473a3.957 3.957 0 0 1-.477-1.424.13.13 0 0 0-.139-.12.131.131 0 0 0-.114.147c0 .002.074.768.511 1.534.405.708.405 1.335.405 1.337" fill="#FCEE1F"/><path d="M22.416 67.224c.008.073.07.127.14.118.07-.007.118-.074.111-.147 0-.007-.218-2.211-.91-2.616a.122.122 0 0 0-.171.052.136.136 0 0 0 .048.18c.576.337.78 2.408.782 2.413z" fill="#FCEE1F"/><path d="M23.9 69.606a.127.127 0 0 0 .151.101.132.132 0 0 0 .096-.159c0-.007-.493-2.288-1.064-3.207a7.985 7.985 0 0 0-.206-.642 13.108 13.108 0 0 0-.32-.8c-.633-1.459-1.684-3.232-2.784-3.727a.123.123 0 0 0-.166.07.134.134 0 0 0 .067.174c1.03.465 2.038 2.18 2.654 3.593.12.275.224.54.313.782.085.237.153.45.202.631a.14.14 0 0 0 .02.049c.55.867 1.038 3.128 1.04 3.135" fill="#FCEE1F"/><path d="M21.087 62.755c.03.067.106.094.17.064a.135.135 0 0 0 .06-.178c-.006-.012-2.12-4.67-3.255-6.306a.123.123 0 0 0-.177-.03.14.14 0 0 0-.029.187c1.122 1.617 3.225 6.253 3.23 6.265M21.643 63.467a.126.126 0 0 0 .152.102.132.132 0 0 0 .095-.16c-.001-.012-.912-4.194-.773-5.95.006-.073-.047-.138-.115-.143a.13.13 0 0 0-.137.12c-.143 1.795.776 6.019.778 6.031z" fill="#FCEE1F"/><path d="M21.014 61.563a.126.126 0 0 0 .164.077.138.138 0 0 0 .074-.171c-.002-.006-.695-1.896-.627-2.977.018-.29.042-.536.062-.755.06-.667.099-1.093-.074-1.457a.124.124 0 0 0-.17-.06.134.134 0 0 0-.056.18c.14.294.105.692.049 1.312-.02.227-.044.484-.062.764-.072 1.139.641 3.083.643 3.088M19.761 58.637c.042.058.121.07.177.025a.138.138 0 0 0 .026-.186c-.004-.004-1.11-1.53-1.246-2.167a.126.126 0 0 0-.152-.101.132.132 0 0 0-.096.159c.146.694 1.288 2.266 1.291 2.27zM17.984 46.196a.126.126 0 0 0-.152-.1.132.132 0 0 0-.095.16c.005.023 1.724 7.953 2.28 11.318.013.072.078.121.147.109a.132.132 0 0 0 .103-.154c-.555-3.365-2.28-11.31-2.285-11.33" fill="#FCEE1F"/><path d="M19.823 56.313a.125.125 0 0 0 .167-.07.136.136 0 0 0-.067-.174c-.002 0-.881-.382-1.41-1.88a.126.126 0 0 0-.163-.08.136.136 0 0 0-.076.17c.567 1.607 1.548 2.032 1.55 2.032M19.17 53.916a.122.122 0 0 0 .18.019.138.138 0 0 0 .018-.188c0-.002-.499-.638-1.438-1.565a.123.123 0 0 0-.179.005.137.137 0 0 0 .006.188c.924.913 1.412 1.538 1.414 1.54M18.994 52.182a.13.13 0 0 0 .128-.132.13.13 0 0 0-.127-.134s-.581 0-.82-.502a5.14 5.14 0 0 1-.371-1.117.128.128 0 0 0-.15-.105.133.133 0 0 0-.1.157s.112.591.396 1.184c.309.649 1.042.649 1.044.649zM18.631 50.474c.049.052.13.052.179 0a.137.137 0 0 0 0-.188c-.002-.002-.852-.895-.954-1.32-.106-.442-.106-1.116-.106-1.118a.13.13 0 0 0-.127-.134.13.13 0 0 0-.126.134c0 .002 0 .707.114 1.182.117.495 1.017 1.438 1.02 1.442M18.672 46.59a.125.125 0 0 0-.166-.07.134.134 0 0 0-.067.173c0 .004.434 1.063-.131 1.2-.07.017-.11.089-.096.16.016.07.083.115.151.099.862-.208.31-1.558.308-1.562M19.285 47.432c-.01-.072-.07-.124-.141-.115a.131.131 0 0 0-.11.148c0 .01.426 3.638-.03 3.83a.136.136 0 0 0-.071.173c.025.068.099.101.164.074.64-.27.19-4.097.188-4.108" fill="#FCEE1F"/><path d="M19.363 53.712a.134.134 0 0 0 .096.16.124.124 0 0 0 .15-.102c.001-.009.66-3.123.66-3.55 0-.426-.137-.88-.411-.977l.027-.047c.14-.246.372-.647.211-1.124l-.986-2.935a.126.126 0 0 0-.16-.081.134.134 0 0 0-.078.17c.001.007.77 2.288.986 2.933.119.36-.073.696-.19.9-.061.105-.107.184-.107.26 0 .112.055.174.186.174.18 0 .268.38.268.73 0 .4-.652 3.482-.654 3.491" fill="#FCEE1F"/><path d="M19.566 46.672a.133.133 0 0 0-.106.151.13.13 0 0 0 .144.112c.002 0 .779-.092-.261-3.075a.125.125 0 0 0-.163-.08.136.136 0 0 0-.076.17c.934 2.676.464 2.722.462 2.722z" fill="#FCEE1F"/><path d="M19.784 45.72a.137.137 0 0 0 .018.185.12.12 0 0 0 .177-.02s.372-.433-.47-3.366a.127.127 0 0 0-.157-.09.135.135 0 0 0-.085.166c.804 2.797.518 3.12.517 3.122" fill="#FCEE1F"/><path d="M19.908 44.382a.136.136 0 0 0 .034.184.125.125 0 0 0 .177-.036s.361-.533-.313-3.009a.128.128 0 0 0-.157-.092.134.134 0 0 0-.086.164c.64 2.357.347 2.787.345 2.789zM20.314 43.525a.13.13 0 0 0 .127.132.13.13 0 0 0 .126-.133c0-.002 0-.743-.498-2.657a.125.125 0 0 0-.156-.092.134.134 0 0 0-.088.163c.49 1.88.49 2.586.49 2.587z" fill="#FCEE1F"/><path d="M22.657 39.517a.136.136 0 0 0-.05-.18.122.122 0 0 0-.17.052c-.003.003-.696 1.326-1.164 1.418a.131.131 0 0 0-.1.105c-.031.136-.077.311-.127.515-.459 1.818-1.495 5.926-.663 10.545.013.072.08.12.148.107.069-.013.114-.084.101-.156-.821-4.561.204-8.629.66-10.429.043-.168.079-.316.111-.45.571-.22 1.254-1.521 1.256-1.527" fill="#FCEE1F"/><path d="M22.638 40.992a.14.14 0 0 0-.007-.188.121.121 0 0 0-.179.007c-.002.002-.746.851-1.39 1.29a.139.139 0 0 0-.038.185c.038.061.115.08.175.04.672-.458 1.438-1.33 1.44-1.334zM22.558 42.661a.137.137 0 0 0 .02-.186.124.124 0 0 0-.178-.021c-.004.002-.986.833-1.633.833a.13.13 0 0 0-.126.133.13.13 0 0 0 .126.134c.735 0 1.786-.889 1.79-.893M22.375 43.507a.13.13 0 0 0-.11-.148.128.128 0 0 0-.142.116s-.056.5-.435.614c-.487.147-1.296.888-1.298.891a.14.14 0 0 0-.013.188.121.121 0 0 0 .179.013c.002-.002.77-.705 1.203-.835.541-.163.617-.835.617-.837M22.35 44.54a.136.136 0 0 0-.022-.187.122.122 0 0 0-.177.022s-.342.455-.706.614c-.416.18-1.09.853-1.091.855a.139.139 0 0 0-.006.188.123.123 0 0 0 .18.005s.64-.638 1.014-.802c.424-.186.805-.696.807-.696zM22.165 45.517a.139.139 0 0 0-.056-.18.123.123 0 0 0-.17.06s-.267.563-.764.655c-.664.123-.664.887-.664.889 0 .074.056.134.124.134a.13.13 0 0 0 .129-.132s0-.546.455-.63c.62-.115.946-.793.946-.796z" fill="#FCEE1F"/><path d="M21.572 46.755c.065-.026.097-.103.074-.172a.126.126 0 0 0-.165-.078c-.003 0-1.12.441-1.231 1.139a.133.133 0 0 0 .104.153c.069.013.134-.036.147-.11.086-.546 1.069-.932 1.07-.932zM21.358 47.788a.14.14 0 0 0-.012-.188.123.123 0 0 0-.18.013c0 .002-.57.694-.821.615a.124.124 0 0 0-.157.088c-.02.07.018.145.085.166.408.129 1.083-.694 1.085-.695M21.053 49.005a.14.14 0 0 0 .005-.188.121.121 0 0 0-.179-.006s-.554.546-.66 1.034a.132.132 0 0 0 .095.159.127.127 0 0 0 .152-.1c.09-.408.587-.898.588-.9" fill="#FCEE1F"/><path d="M22.29 46.014a.139.139 0 0 0-.036-.184.123.123 0 0 0-.175.037c-.002.004-.905 1.406-1.337 5.028-.009.072.042.14.11.148.07.01.134-.043.141-.115.425-3.559 1.293-4.909 1.295-4.912" fill="#FCEE1F"/><path d="M22.207 49.384c.05-.05.05-.135.001-.188a.121.121 0 0 0-.178-.002c-.006.008-2.195 2.198-1.086 5.762.022.07.094.108.16.085.066-.022.102-.098.08-.168-1.061-3.407 1.015-5.483 1.02-5.49" fill="#FCEE1F"/><path d="M20.764 52.102a.134.134 0 0 0-.108-.15.13.13 0 0 0-.143.114c0 .009-.394 3.06-.684 3.943-.022.069.012.145.077.168a.125.125 0 0 0 .161-.081c.3-.91.695-3.985.697-3.994zM23.341 49.095a.129.129 0 0 0-.144-.112.133.133 0 0 0-.107.152c0 .005.264 1.717-.841 2.877 0 0-.006.005-.008.009a2.704 2.704 0 0 0-.424.607 3.832 3.832 0 0 0-.284.728c-.37 1.305-.214 2.92.027 3.681a.127.127 0 0 0 .16.085.135.135 0 0 0 .08-.168c-.23-.728-.378-2.273-.023-3.522.069-.24.156-.47.264-.678.105-.202.231-.388.38-.545l.008-.008c1.198-1.255.914-3.099.914-3.104" fill="#FCEE1F"/><path d="M22.834 49.426c-.019-.07-.089-.114-.156-.094a.134.134 0 0 0-.09.162s.133.512-.033.772c-.242.381.094.969.096.97a.125.125 0 0 0 .174.047.14.14 0 0 0 .045-.182s-.255-.446-.103-.687c.229-.361.067-.986.067-.988zM22.095 50.004c.013-.072-.03-.143-.101-.155a.126.126 0 0 0-.148.104c0 .004-.302 1.587-.045 2.397.021.07.094.106.159.085a.135.135 0 0 0 .08-.169c-.236-.742.053-2.258.055-2.262z" fill="#FCEE1F"/><path d="M21.242 50.95a.125.125 0 0 0-.173-.051.136.136 0 0 0-.05.18c.003.006.913 1.675-.178 2.087a.136.136 0 0 0-.076.17.125.125 0 0 0 .163.08c1.376-.52.318-2.461.314-2.469M23.726 51.533c0-.072-.056-.134-.125-.134a.13.13 0 0 0-.128.132s0 .593-1.008.593a.13.13 0 0 0-.126.133.13.13 0 0 0 .126.134c1.26 0 1.263-.855 1.263-.856M23.478 52.527c.006-.072-.047-.138-.115-.143a.13.13 0 0 0-.138.121s-.04.551-.466.551c-.574 0-.836 0-1.217.344a.14.14 0 0 0-.014.188.122.122 0 0 0 .179.014c.308-.278.541-.278 1.052-.278.661 0 .72-.794.72-.795M23.673 53.523a.132.132 0 0 0-.103-.154.126.126 0 0 0-.146.107s-.082.511-.715.511c-.815 0-1.342.997-1.344 1a.136.136 0 0 0 .049.18.123.123 0 0 0 .171-.05c0-.002.457-.864 1.123-.864.847 0 .963-.729.963-.732M23.22 54.695a.134.134 0 0 0-.06-.177.126.126 0 0 0-.17.063c0 .002-.415.92-.693.962a.643.643 0 0 0-.338.164c-.24.215-.403.624-.365 1.115.006.073.067.129.138.121.07-.005.12-.07.115-.142-.032-.403.092-.727.276-.891a.476.476 0 0 1 .103-.07.337.337 0 0 1 .105-.035c.414-.062.885-1.106.887-1.11M22.441 37.544c-.005-.073-.066-.129-.137-.121-.07.005-.12.07-.115.142 0 .006.155 1.835-.806 2.212a.133.133 0 0 0-.074.17.125.125 0 0 0 .163.078c1.143-.45.971-2.476.97-2.483M21.125 38.577a.135.135 0 0 0-.105-.153c-.069-.013-.134.036-.146.108 0 .004-.237 1.413.072 2.31a.125.125 0 0 0 .162.08.136.136 0 0 0 .076-.17c-.285-.83-.061-2.173-.06-2.178M20.534 39.804a.131.131 0 0 0-.12-.139c-.071-.003-.129.053-.133.127 0 .003-.068 1.314.445 2.279.034.065.11.086.171.052a.135.135 0 0 0 .049-.18c-.475-.899-.412-2.135-.412-2.139zM26.247 70.298a.131.131 0 0 0 .11-.148c-.01-.072-.07-.125-.141-.116-.004 0-1.176.161-1.792-1.078a.124.124 0 0 0-.171-.056.136.136 0 0 0-.054.178c.699 1.406 2.042 1.222 2.046 1.222M25.848 68.963c.063-.03.09-.11.06-.177a.124.124 0 0 0-.169-.064c-.001 0-.675.355-1.433-.708a.124.124 0 0 0-.177-.027.138.138 0 0 0-.026.186c.885 1.238 1.743.79 1.747.788M25.168 67.271c.05-.05.05-.135.002-.188a.121.121 0 0 0-.179-.001s-.65.68-1.172-.315a.122.122 0 0 0-.171-.052.138.138 0 0 0-.05.18c.684 1.305 1.567.38 1.568.376M24.569 65.714a.135.135 0 0 0-.005-.188.121.121 0 0 0-.18.005c0 .002-.606.687-1.175-.157a.124.124 0 0 0-.177-.033.136.136 0 0 0-.03.185c.747 1.111 1.563.19 1.565.188M23.939 64.286a.134.134 0 0 0-.078-.168.126.126 0 0 0-.16.083c0 .002-.221.698-.962.165a.123.123 0 0 0-.177.034.136.136 0 0 0 .033.184c1.015.732 1.342-.293 1.344-.296M23.337 62.958a.135.135 0 0 0-.083-.167c-.067-.021-.138.019-.16.089 0 .002-.258.902-.82.132-.042-.058-.122-.07-.176-.025a.136.136 0 0 0-.023.186c.863 1.183 1.262-.21 1.264-.215" fill="#FCEE1F"/><path d="M40 77.122l-.01-.005c-.193-.134-4.079-2.796-8.821-2.906l.504 8.848s4.404.338 8.323 2.924h.002c3.919-2.586 8.323-2.924 8.323-2.924l.504-8.848c-4.742.11-8.629 2.77-8.822 2.906l-.007.005H40z" stroke="#FCEE1F" stroke-width="1.04" stroke-miterlimit="2.61"/><path fill-rule="evenodd" clip-rule="evenodd" d="M40 77.122l-.01-.005c-.193-.134-4.079-2.796-8.821-2.906l.504 8.848s4.404.338 8.323 2.924H40c3.918-2.586 8.323-2.924 8.323-2.924l.504-8.848c-4.742.11-8.629 2.77-8.822 2.906l-.009.005H40z" fill="#EB2127"/><path d="M45.681 79.567c0-.2-.056-.354-.167-.46-.1-.093-.246-.14-.44-.14-.407 0-.611.194-.611.58 0 .387.196.586.59.586.191 0 .343-.06.455-.18a.81.81 0 0 0 .13-.192.426.426 0 0 0 .045-.192m-2.2 1.637h1.046c0 .237.18.355.535.355.29 0 .471-.105.54-.315.032-.097.06-.22.085-.372.021-.134.032-.293.032-.48-.213.28-.533.417-.955.417-.116 0-.22-.011-.314-.033-.053-.01-.114-.027-.186-.045-.027-.007-.078-.033-.157-.072a1.294 1.294 0 0 1-.485-.436 1.117 1.117 0 0 1-.196-.647c0-.44.162-.777.49-1.007.324-.229.712-.343 1.168-.343.58 0 1.013.18 1.305.535.287.354.432.853.432 1.498 0 .859-.284 1.455-.849 1.795-.27.162-.585.242-.944.242a2.56 2.56 0 0 1-.754-.107 1.17 1.17 0 0 1-.568-.36.937.937 0 0 1-.226-.625m-2.95-.484h.922v-1.456l-.923 1.456zm-.945 0l1.647-2.416h1.282v2.416h.596v.736h-.596v.748H41.43v-.749h-1.843v-.735zm-1.418-1.155c0-.2-.056-.354-.168-.46-.1-.093-.245-.14-.44-.14-.409 0-.613.194-.613.58 0 .387.197.586.59.586.192 0 .344-.06.456-.18a.756.756 0 0 0 .128-.192.426.426 0 0 0 .045-.192m-2.2 1.637h1.046c0 .237.179.355.535.355.29 0 .47-.105.54-.315.032-.097.06-.22.085-.372.021-.134.032-.293.032-.48-.213.28-.533.417-.955.417-.116 0-.22-.011-.314-.033-.053-.01-.114-.027-.186-.045a1.356 1.356 0 0 1-.157-.072 1.293 1.293 0 0 1-.485-.436 1.117 1.117 0 0 1-.196-.647c0-.44.162-.777.49-1.007.324-.229.712-.343 1.167-.343.58 0 1.014.18 1.306.535.287.354.432.853.432 1.498 0 .859-.284 1.455-.85 1.795a1.792 1.792 0 0 1-.944.242c-.272 0-.523-.036-.753-.107a1.17 1.17 0 0 1-.568-.36.935.935 0 0 1-.224-.625zm-2.791-2.273c.399-.123.77-.333 1.12-.625h.9v3.9h-1.074v-2.892a4.235 4.235 0 0 1-.462.271c-.17.087-.33.16-.484.213v-.867z" fill="#FCEE1F"/><path fill-rule="evenodd" clip-rule="evenodd" d="M41.362 50.645l-.38 18.03 5.323 2.005v.406h-12.58v-.381l5.343-2.048-1.04-17.96h-.025l-9.818-4.584V45.7h22.447v.262l-9.27 4.684z" fill="url(#k)"/><path fill-rule="evenodd" clip-rule="evenodd" d="M38.172 52.765l-.187.069-.246.096-.245.103-.246.115-.244.129-.242.144-.238.163-.235.184-.227.206-.22.232-.3.363-.272.381-.242.398-.209.412-.175.425-.14.437-.1.446-.062.454-.018.459.026.462.072.463.119.46.168.454.218.447.27.435.18.237v.01l.056.08-.043.338-.031.523.007.498.044.477.08.454.116.43.15.407.18.383.212.358.24.332.266.308.287.281.309.257.327.233.345.21.359.188.374.166.384.144.394.127.403.107.41.088.415.07.419.055.422.038.425.021.424.008.423-.008.419-.021.415-.036.41-.05.403-.06 4.072-.752-3.794-.304-.02-.005-.034-.013-.056-.024-.083-.036-.114-.043-.143-.038-.144-.016-.504-.033-.484-.047-.48-.063-.472-.083-.457-.107-.438-.13-.418-.155-.391-.183-.362-.213-.328-.244-.295-.276-.258-.311-.22-.353-.183-.397-.088-.286.168.026.289.037.287.031.285.022.284.01h.283l.284-.014.282-.027.283-.043.284-.06.283-.078.284-.095.285-.114.292-.138.421-.243.392-.291.358-.33.32-.36.277-.391.237-.416.19-.435.142-.45.09-.465.035-.47-.024-.473-.086-.468-.154-.46-.222-.44-.292-.417-.358-.376-.155-.136-.154-.121-.159-.112-.164-.101-.168-.094-.173-.083-.177-.076-.18-.065-.181-.058-.187-.047-.187-.038-.188-.029-.19-.02-.193-.009h-.191l-.065.004-.031 1.13h-.005V58.6l.018.007.166.087.135.097.107.107.08.112.055.117.034.12.013.123-.007.124-.03.125-.051.123-.078.121-.105.117-.135.113-.17.1-.177.075-.163.023-.21.024-.205.016-.197.01h-.19l-.182-.008-.175-.016-.166-.024-.159-.03-.152-.039-.142-.047-.136-.052-.128-.061c-.245-.114-.284-.082-.293-.244l-.202-3.398.018-.01-.177-3.651-.002.005zm3.677-2.315l-.092.163-.11.163-.13.162-.15.161-.036.035-.112 4.056c.076-.037.15-.079.226-.124l.175-.112.17-.114.17-.116.178-.119.381-.266.363-.28.342-.29.317-.304.293-.317.267-.329.242-.343.213-.356.186-.37.156-.383.124-.396.094-.407.062-.42.028-.43-.005-.44-.042-.488-.079-.258-.069-.212-.072-.213-.076-.215-.081-.219-.088-.22-.096-.224-.103-.226-.112-.228-.123-.231-.133-.233-.147-.234-.159-.234-.173-.237-.188-.239-.199-.233-.339-.398-.341-.393-.34-.39-.338-.386-.33-.38-.323-.371-.313-.365-.3-.358-.283-.35-.267-.339-.246-.329-.224-.318-.198-.305-.172-.291-.143-.277-.11-.255-.074-.224-.045-.21-.02-.2.004-.193.025-.186.045-.18.065-.173.085-.17.105-.164.123-.16.142-.15.16-.146.174-.135.188-.127.15-.084.007.007.121.115.125.127.13.134.135.139.141.14.15.14.16.134.174.124.19.112.21.093.229.063.245.025.255-.018.72-.173-.146-.523.343.154.327.143.26.108.96.32-.286-1.285-.17-.437-.228-.405-.28-.369-.323-.329-.363-.29-.395-.25-.426-.208-.45-.164-.47-.12-.483-.072-.495-.023-.502.025-.504.08-.5.133-.488.19-.354.177-.327.197-.303.217-.28.237-.255.256-.23.275-.201.291-.175.307-.149.322-.119.334-.09.345-.062.356-.032.364-.005.372.023.378.052.386.08.365.114.364.144.357.173.356.2.355.227.354.25.358.273.363.297.368.316.378.337.389.358.4.375.415.394.43.412.448.413.452.199.256.197.266.184.262.172.257.159.251.144.246.132.24.117.237.103.23.089.223.074.217.06.212.043.204.028.197.015.19v.184l-.015.179-.028.173-.044.168-.06.167-.073.164.003-.002z" fill="#FEDD00"/><path fill-rule="evenodd" clip-rule="evenodd" d="M44.186 37.74c-.316-2.159-3.164-3.377-5.488-2.322-1.748.794-2.54 2.395-2.221 4.276.294 1.733 1.928 3.365 4.258 5.919 2.338 2.983 2.828 5.36-.867 7.042-1.331.605-2.63.728-3.655 1.881-1.553 1.748-2.007 4.243-.313 6.271l-.003.02.054.076c-.914 5.62 4.79 6.706 8.767 5.9-.269 0-.382-.166-.655-.179-2.648-.135-5.584-.822-5.969-3.988 1.61.304 2.877.44 4.275-.268 2.086-1.057 3.07-3.986 1.212-5.692a3.279 3.279 0 0 0-2.458-.842v2.226c1.512.41 1.566 2.163.043 2.693-1.262.206-2.288.063-3.005-.53.047-.249.15-.69.352-1.098l-.157-2.707h-.007s-.724.471-1.197 1.44a5.716 5.716 0 0 1 .018-.72c.182-1.416 1.733-1.506 3.29-2.121.544-.215.91-.499 1.396-.822 2.02-1.34 3.081-3.062 2.812-5.317-.338-1.091-.722-2.22-1.786-3.434-1.795-2.117-3.762-4.122-4.356-5.649-.567-1.456.334-2.674 1.658-3.263.757.538 1.333 1.711 2.315 1.39l-.303-1.061s1.887.878 1.986.878" fill="url(#l)"/><path d="M42.522 37.014c.199.204.387.42.573.633.657.755 1.293 1.483 2.272 1.51.818.022.702.226-.006.212-1.062-.022-1.73-.79-2.423-1.585-.224-.257-.45-.515-.694-.752l-.047-.168.325.15z" fill="url(#m)"/><path fill-rule="evenodd" clip-rule="evenodd" d="M70.802 28.649l.452 1.388h1.457l-1.179.856.45 1.388-1.18-.858-1.179.858.452-1.388-1.18-.856h1.458l.45-1.388z" fill="#EB2127"/></g><path d="M110.928 83.2l3.98-11.458h1.939l-5 13.508h-1.383l.464-2.05zm-3.72-11.458l3.943 11.458.492 2.05h-1.383l-4.991-13.508h1.939zm15.533 3.47V85.25h-1.726V75.212h1.726zm-1.856-2.663c0-.278.084-.513.251-.705.173-.191.426-.287.76-.287.328 0 .579.096.752.287a.995.995 0 0 1 .269.705c0 .266-.09.495-.269.687-.173.185-.424.278-.752.278-.334 0-.587-.093-.76-.278a1.01 1.01 0 0 1-.251-.687zm11.246 12.886c-.698 0-1.332-.117-1.901-.352a4.31 4.31 0 0 1-1.457-1.011 4.507 4.507 0 0 1-.928-1.54 5.659 5.659 0 0 1-.324-1.948v-.39c0-.817.12-1.543.361-2.18.242-.644.569-1.188.984-1.633a4.205 4.205 0 0 1 1.41-1.011 4.052 4.052 0 0 1 1.633-.344c.717 0 1.336.124 1.855.371.526.248.956.594 1.29 1.04.334.439.581.958.742 1.558a7.43 7.43 0 0 1 .241 1.948v.77h-7.496v-1.4h5.78v-.13a4.312 4.312 0 0 0-.278-1.3 2.334 2.334 0 0 0-.743-1.038c-.34-.272-.804-.409-1.391-.409a2.332 2.332 0 0 0-1.921.975 3.647 3.647 0 0 0-.547 1.178c-.13.464-.195.999-.195 1.605v.39c0 .476.065.924.195 1.345.136.414.331.779.584 1.094.26.316.573.563.937.743.372.179.792.269 1.262.269.606 0 1.12-.124 1.54-.371a3.802 3.802 0 0 0 1.104-.993l1.039.826c-.216.327-.491.64-.825.937a3.947 3.947 0 0 1-1.234.723c-.483.186-1.055.279-1.717.279zm12.583-10.223v1.317h-5.428v-1.317h5.428zm-3.591-2.44h1.717v9.992c0 .34.052.597.157.77a.759.759 0 0 0 .409.343c.167.056.346.083.538.083.142 0 .29-.012.445-.037.161-.03.281-.055.362-.074l.009 1.401a3.993 3.993 0 0 1-.538.12 4.087 4.087 0 0 1-.789.066c-.42 0-.807-.084-1.159-.25-.353-.168-.634-.446-.844-.836-.205-.396-.307-.928-.307-1.596v-9.982zm9.79 4.583v7.895h-1.716V75.212h1.623l.093 2.143zm-.408 2.496l-.714-.028a6.03 6.03 0 0 1 .306-1.902 4.743 4.743 0 0 1 .835-1.53 3.71 3.71 0 0 1 1.28-1.003 3.78 3.78 0 0 1 1.661-.362c.494 0 .94.068 1.336.205.395.13.733.34 1.011.63.284.291.501.668.649 1.132.149.458.223 1.018.223 1.68v6.577h-1.726v-6.596c0-.526-.077-.947-.232-1.262a1.422 1.422 0 0 0-.677-.696c-.297-.148-.662-.222-1.095-.222-.426 0-.816.09-1.169.269-.346.179-.646.426-.899.742a3.714 3.714 0 0 0-.585 1.085 3.969 3.969 0 0 0-.204 1.28zm17.583 3.683v-5.168c0-.396-.081-.739-.241-1.03a1.583 1.583 0 0 0-.705-.686c-.316-.16-.706-.241-1.169-.241-.433 0-.814.074-1.142.222a1.986 1.986 0 0 0-.76.585c-.18.241-.269.5-.269.78h-1.717c0-.36.093-.715.279-1.068.185-.352.451-.67.798-.955.352-.291.773-.52 1.261-.687a4.977 4.977 0 0 1 1.652-.26c.729 0 1.373.124 1.929.371a2.894 2.894 0 0 1 1.318 1.123c.321.495.482 1.116.482 1.865v4.675c0 .334.028.69.084 1.067.061.378.151.702.269.975v.148h-1.791a3.212 3.212 0 0 1-.204-.789 6.425 6.425 0 0 1-.074-.927zm.297-4.37l.018 1.206h-1.735c-.488 0-.924.04-1.308.12a2.999 2.999 0 0 0-.965.344c-.259.155-.457.35-.593.584a1.55 1.55 0 0 0-.204.808c0 .315.071.603.213.862.142.26.356.467.64.622.291.148.646.223 1.067.223.526 0 .99-.112 1.392-.334.402-.223.72-.495.955-.817.241-.321.371-.634.39-.937l.733.826c-.044.26-.161.547-.353.863a4.152 4.152 0 0 1-1.902 1.624 3.685 3.685 0 0 1-1.466.278c-.68 0-1.277-.133-1.79-.4a3.067 3.067 0 0 1-1.188-1.066 2.826 2.826 0 0 1-.417-1.513c0-.538.105-1.01.315-1.419.211-.414.514-.758.91-1.03.395-.278.872-.488 1.428-.63a7.547 7.547 0 0 1 1.865-.214h1.995zm8.296-1.957v8.043h-1.726V75.212h1.633l.093 1.995zm-.353 2.644l-.798-.028c.007-.687.096-1.32.269-1.902.174-.588.43-1.098.771-1.53.34-.434.763-.768 1.271-1.003.507-.241 1.094-.362 1.762-.362.47 0 .903.068 1.299.205.396.13.739.337 1.03.621.291.285.516.65.677 1.095.161.445.241.983.241 1.614v6.689h-1.716v-6.606c0-.525-.09-.946-.269-1.261a1.539 1.539 0 0 0-.742-.687c-.322-.148-.699-.222-1.132-.222-.507 0-.931.09-1.271.269-.34.179-.612.426-.817.742a3.35 3.35 0 0 0-.445 1.085 6.11 6.11 0 0 0-.13 1.28zm6.504-.947l-1.151.353c.007-.55.096-1.08.269-1.587a4.32 4.32 0 0 1 .77-1.354 3.653 3.653 0 0 1 1.253-.937c.495-.235 1.061-.353 1.698-.353a4.39 4.39 0 0 1 1.428.214c.421.142.773.362 1.058.658.291.291.51.665.659 1.123.148.458.222 1.002.222 1.633v6.596h-1.725v-6.615c0-.563-.09-.999-.269-1.308a1.405 1.405 0 0 0-.743-.659c-.315-.13-.692-.194-1.131-.194-.378 0-.712.065-1.002.194-.291.13-.535.31-.733.538-.198.223-.35.48-.455.77-.099.291-.148.6-.148.928zm19.282-7.162h1.735l4.426 11.012 4.416-11.012h1.744l-5.492 13.508h-1.355l-5.474-13.508zm-.565 0h1.53l.251 8.239v5.269h-1.781V71.742zm11.912 0h1.53V85.25h-1.781v-5.27l.251-8.238zm8.75 3.47V85.25h-1.725V75.212h1.725zm-1.855-2.663c0-.278.083-.513.25-.705.174-.191.427-.287.761-.287.328 0 .578.096.752.287a.995.995 0 0 1 .269.705c0 .266-.09.495-.269.687-.174.185-.424.278-.752.278-.334 0-.587-.093-.761-.278a1.01 1.01 0 0 1-.25-.687zM229.302 71v14.25h-1.726V71h1.726zm7.09 4.212V85.25h-1.726V75.212h1.726zm-1.856-2.663c0-.278.084-.513.251-.705.173-.191.426-.287.76-.287.328 0 .579.096.752.287a.995.995 0 0 1 .269.705c0 .266-.09.495-.269.687-.173.185-.424.278-.752.278-.334 0-.587-.093-.76-.278a1.01 1.01 0 0 1-.251-.687zm11.284 2.663v1.317h-5.428v-1.317h5.428zm-3.591-2.44h1.717v9.992c0 .34.052.597.157.77a.759.759 0 0 0 .409.343c.167.056.346.083.538.083.142 0 .29-.012.445-.037.161-.03.281-.055.362-.074l.009 1.401a3.993 3.993 0 0 1-.538.12 4.087 4.087 0 0 1-.789.066c-.42 0-.807-.084-1.159-.25-.353-.168-.634-.446-.844-.836-.205-.396-.307-.928-.307-1.596v-9.982zm13.993 10.762v-5.168c0-.396-.081-.739-.241-1.03a1.583 1.583 0 0 0-.705-.686c-.316-.16-.706-.241-1.169-.241-.433 0-.814.074-1.142.222a1.986 1.986 0 0 0-.76.585c-.18.241-.269.5-.269.78h-1.717c0-.36.093-.715.279-1.068.185-.352.451-.67.798-.955.352-.291.773-.52 1.261-.687a4.98 4.98 0 0 1 1.652-.26c.729 0 1.373.124 1.929.371a2.894 2.894 0 0 1 1.318 1.123c.321.495.482 1.116.482 1.865v4.675c0 .334.028.69.084 1.067.061.378.151.702.269.975v.148H256.5a3.257 3.257 0 0 1-.204-.789 6.425 6.425 0 0 1-.074-.927zm.297-4.37l.018 1.206h-1.735c-.488 0-.924.04-1.308.12a2.999 2.999 0 0 0-.965.344c-.259.155-.457.35-.593.584a1.55 1.55 0 0 0-.204.808c0 .315.071.603.213.862.142.26.356.467.64.622.291.148.646.223 1.067.223.526 0 .99-.112 1.392-.334.402-.223.72-.495.955-.817.241-.321.371-.634.39-.937l.733.826c-.044.26-.161.547-.353.863a4.152 4.152 0 0 1-1.902 1.624 3.683 3.683 0 0 1-1.465.278c-.681 0-1.278-.133-1.791-.4a3.067 3.067 0 0 1-1.188-1.066 2.826 2.826 0 0 1-.417-1.513c0-.538.105-1.01.315-1.419.211-.414.514-.758.91-1.03.395-.278.872-.488 1.428-.63a7.547 7.547 0 0 1 1.865-.214h1.995zm8.305-2.375v8.461h-1.716V75.212h1.67l.046 1.577zm3.136-1.633l-.009 1.596a2.491 2.491 0 0 0-.409-.056 4.313 4.313 0 0 0-.426-.018 2.76 2.76 0 0 0-1.049.185 2.18 2.18 0 0 0-.77.52 2.51 2.51 0 0 0-.501.798 3.85 3.85 0 0 0-.232 1.002l-.482.278c0-.606.059-1.175.176-1.707a4.668 4.668 0 0 1 .566-1.41c.254-.415.575-.736.965-.965.396-.235.866-.353 1.41-.353.124 0 .266.016.427.047.161.025.272.052.334.083zm7.044 9.055l2.792-9h1.837L275.607 86.8a6.497 6.497 0 0 1-.371.798c-.149.29-.341.566-.576.826-.235.26-.519.47-.853.63-.328.168-.721.251-1.178.251a3.11 3.11 0 0 1-.52-.055 5.022 5.022 0 0 1-.445-.093l-.01-1.392c.05.006.127.013.232.019.112.012.189.018.232.018.39 0 .721-.052.993-.157.272-.1.501-.27.687-.51.191-.236.355-.56.491-.975l.715-1.948zm-2.051-9l2.607 7.794.446 1.809-1.234.63-3.693-10.232h1.874zm18.708-3.469h1.735l4.425 11.012 4.416-11.012h1.744l-5.492 13.508h-1.354l-5.474-13.508zm-.566 0h1.531l.25 8.239v5.269h-1.781V71.742zm11.912 0h1.531V85.25h-1.781v-5.27l.25-8.238zm11.052 13.694c-.699 0-1.333-.118-1.902-.353a4.31 4.31 0 0 1-1.457-1.011 4.49 4.49 0 0 1-.927-1.54 5.635 5.635 0 0 1-.325-1.948v-.39c0-.817.12-1.543.362-2.18a4.879 4.879 0 0 1 .983-1.633 4.205 4.205 0 0 1 1.41-1.011 4.052 4.052 0 0 1 1.633-.344c.717 0 1.336.124 1.855.371.526.248.956.594 1.29 1.04.334.439.581.958.742 1.558a7.43 7.43 0 0 1 .241 1.948v.77h-7.496v-1.4h5.78v-.13a4.282 4.282 0 0 0-.278-1.3 2.34 2.34 0 0 0-.742-1.038c-.341-.272-.804-.409-1.392-.409a2.335 2.335 0 0 0-1.92.975 3.648 3.648 0 0 0-.548 1.178c-.13.464-.195.999-.195 1.605v.39c0 .476.065.924.195 1.345.136.414.331.779.585 1.094.259.316.572.563.937.743.371.179.791.269 1.261.269.607 0 1.12-.124 1.54-.371a3.802 3.802 0 0 0 1.104-.993l1.04.826c-.217.327-.492.64-.826.937a3.935 3.935 0 0 1-1.234.723c-.482.186-1.055.279-1.716.279zm14.706-2.134V71h1.726v14.25h-1.577l-.149-1.948zm-6.753-2.96v-.195c0-.767.092-1.462.278-2.087.192-.63.461-1.172.807-1.624.353-.451.77-.797 1.252-1.039a3.564 3.564 0 0 1 1.633-.37c.631 0 1.182.11 1.652.333a3.18 3.18 0 0 1 1.206.956c.334.414.597.915.788 1.503.192.587.325 1.252.399 1.995v.853a8.734 8.734 0 0 1-.399 1.985 4.668 4.668 0 0 1-.788 1.503c-.328.415-.73.733-1.206.956-.477.216-1.033.325-1.67.325a3.454 3.454 0 0 1-1.615-.38 3.817 3.817 0 0 1-1.252-1.068 5.213 5.213 0 0 1-.807-1.614 7.092 7.092 0 0 1-.278-2.032zm1.725-.195v.195c0 .501.05.971.149 1.41.105.44.266.826.482 1.16.216.334.492.597.826.789.334.185.733.278 1.196.278.569 0 1.036-.12 1.401-.362.371-.241.668-.56.891-.955.223-.396.396-.826.519-1.29v-2.236a4.957 4.957 0 0 0-.324-.983 3.041 3.041 0 0 0-.538-.854 2.336 2.336 0 0 0-.807-.603c-.316-.148-.69-.222-1.123-.222-.47 0-.875.099-1.215.296-.334.192-.61.458-.826.798a3.695 3.695 0 0 0-.482 1.17c-.099.438-.149.909-.149 1.41zm13.761-4.935V85.25h-1.726V75.212h1.726zm-1.856-2.663c0-.278.084-.513.251-.705.173-.191.426-.287.76-.287.328 0 .579.096.752.287a.995.995 0 0 1 .269.705c0 .266-.09.495-.269.687-.173.185-.424.278-.752.278-.334 0-.587-.093-.76-.278a1.01 1.01 0 0 1-.251-.687zm11.098 11.476c.408 0 .786-.083 1.132-.25.346-.167.631-.396.853-.687a1.91 1.91 0 0 0 .381-1.01h1.633a3.063 3.063 0 0 1-.603 1.66 4.125 4.125 0 0 1-1.438 1.234 4.177 4.177 0 0 1-1.958.464c-.754 0-1.413-.133-1.976-.4a3.922 3.922 0 0 1-1.392-1.094 4.897 4.897 0 0 1-.825-1.596 6.712 6.712 0 0 1-.269-1.92v-.39c0-.674.089-1.311.269-1.911a4.882 4.882 0 0 1 .825-1.605 3.923 3.923 0 0 1 1.392-1.095c.563-.266 1.222-.399 1.976-.399.786 0 1.472.161 2.06.483a3.544 3.544 0 0 1 1.382 1.299c.34.544.526 1.162.557 1.855h-1.633a2.475 2.475 0 0 0-.353-1.123 2.2 2.2 0 0 0-.816-.797c-.34-.204-.739-.306-1.197-.306-.526 0-.968.105-1.327.315a2.334 2.334 0 0 0-.844.835 3.907 3.907 0 0 0-.445 1.16c-.087.42-.13.85-.13 1.29v.389c0 .439.043.872.13 1.299.086.426.232.813.436 1.16.21.346.492.624.844.834.359.204.804.306 1.336.306zm14.317-.491v-5.168c0-.396-.08-.739-.241-1.03a1.583 1.583 0 0 0-.705-.686c-.315-.16-.705-.241-1.169-.241-.433 0-.813.074-1.141.222a1.99 1.99 0 0 0-.761.585 1.283 1.283 0 0 0-.269.78h-1.716c0-.36.093-.715.278-1.068.186-.352.452-.67.798-.955a3.99 3.99 0 0 1 1.262-.687 4.975 4.975 0 0 1 1.651-.26c.73 0 1.373.124 1.93.371a2.887 2.887 0 0 1 1.317 1.123c.322.495.483 1.116.483 1.865v4.675c0 .334.027.69.083 1.067.062.378.152.702.269.975v.148h-1.79a3.167 3.167 0 0 1-.204-.789 6.295 6.295 0 0 1-.075-.927zm.297-4.37l.019 1.206h-1.735c-.489 0-.925.04-1.308.12a2.99 2.99 0 0 0-.965.344 1.63 1.63 0 0 0-.594.584 1.55 1.55 0 0 0-.204.808c0 .315.071.603.213.862.143.26.356.467.641.622.29.148.646.223 1.066.223.526 0 .99-.112 1.392-.334.402-.223.721-.495.956-.817.241-.321.371-.634.389-.937l.733.826c-.043.26-.161.547-.352.863a4.15 4.15 0 0 1-1.902 1.623 3.688 3.688 0 0 1-1.466.279c-.68 0-1.277-.133-1.791-.4a3.057 3.057 0 0 1-1.187-1.066 2.827 2.827 0 0 1-.418-1.513c0-.538.106-1.01.316-1.419.21-.414.513-.758.909-1.03a4.32 4.32 0 0 1 1.429-.63 7.535 7.535 0 0 1 1.865-.214h1.994zM369.808 71v14.25h-1.726V71h1.726zm20.396.742h1.781v9.138c0 1.015-.225 1.859-.677 2.533a4.223 4.223 0 0 1-1.8 1.522 5.83 5.83 0 0 1-2.421.5c-.915 0-1.744-.166-2.486-.5a4.071 4.071 0 0 1-1.754-1.522c-.427-.674-.64-1.518-.64-2.533v-9.138h1.772v9.138c0 .705.13 1.287.39 1.745.259.457.621.797 1.085 1.02.47.223 1.014.334 1.633.334.625 0 1.169-.111 1.633-.334.47-.223.835-.563 1.094-1.02.26-.458.39-1.04.39-1.745v-9.138zm8.519 5.613v7.895h-1.716V75.212h1.623l.093 2.143zm-.408 2.496l-.715-.028c.007-.687.109-1.32.307-1.902a4.741 4.741 0 0 1 .834-1.53 3.723 3.723 0 0 1 2.941-1.365c.495 0 .941.068 1.336.205.396.13.733.34 1.012.63.284.291.501.668.649 1.132.148.458.223 1.018.223 1.68v6.577h-1.726v-6.596c0-.526-.077-.947-.232-1.262a1.427 1.427 0 0 0-.677-.696c-.297-.148-.662-.222-1.095-.222-.427 0-.816.09-1.169.269-.346.179-.646.426-.9.742a3.736 3.736 0 0 0-.584 1.085 3.969 3.969 0 0 0-.204 1.28zm13.528-4.64V85.25h-1.725V75.212h1.725zm-1.855-2.662c0-.278.083-.513.25-.705.174-.191.427-.287.761-.287.328 0 .578.096.752.287a.995.995 0 0 1 .269.705c0 .266-.09.495-.269.687-.174.185-.424.278-.752.278-.334 0-.587-.093-.761-.278a1.01 1.01 0 0 1-.25-.687zm10.133 11.152l2.746-8.49h1.753l-3.608 10.039h-1.151l.26-1.55zm-2.292-8.49l2.83 8.536.195 1.503h-1.151l-3.636-10.038h1.762zm14.948 10.225c-.698 0-1.332-.118-1.901-.353a4.31 4.31 0 0 1-1.457-1.011 4.507 4.507 0 0 1-.928-1.54 5.659 5.659 0 0 1-.324-1.948v-.39c0-.817.12-1.543.361-2.18.242-.644.569-1.188.984-1.633a4.205 4.205 0 0 1 1.41-1.011 4.052 4.052 0 0 1 1.633-.344c.717 0 1.336.124 1.855.371.526.248.956.594 1.29 1.04.334.439.581.958.742 1.558a7.43 7.43 0 0 1 .241 1.948v.77h-7.496v-1.4h5.78v-.13a4.312 4.312 0 0 0-.278-1.3 2.334 2.334 0 0 0-.743-1.038c-.34-.272-.804-.409-1.391-.409a2.332 2.332 0 0 0-1.921.975 3.647 3.647 0 0 0-.547 1.178c-.13.464-.195.999-.195 1.605v.39c0 .476.065.924.195 1.345.136.414.331.779.585 1.094.259.316.572.563.937.743.371.179.791.269 1.261.269.606 0 1.12-.124 1.54-.371a3.802 3.802 0 0 0 1.104-.993l1.039.826c-.216.327-.491.64-.825.937a3.947 3.947 0 0 1-1.234.723c-.483.186-1.055.279-1.717.279zm10.096-8.647v8.461h-1.716V75.212h1.67l.046 1.577zm3.136-1.633L446 76.752a2.465 2.465 0 0 0-.408-.056 4.335 4.335 0 0 0-.427-.018c-.396 0-.745.062-1.048.185a2.17 2.17 0 0 0-.77.52 2.475 2.475 0 0 0-.501.798 3.81 3.81 0 0 0-.232 1.002l-.483.278c0-.606.059-1.175.177-1.707a4.641 4.641 0 0 1 .565-1.41 2.78 2.78 0 0 1 .965-.965c.396-.235.866-.353 1.41-.353.124 0 .266.016.427.047.161.025.272.052.334.083zm9.901 7.431c0-.247-.055-.476-.167-.686-.105-.217-.324-.411-.658-.585-.328-.179-.823-.334-1.485-.463a11.807 11.807 0 0 1-1.512-.418 4.585 4.585 0 0 1-1.141-.584 2.454 2.454 0 0 1-.714-.808 2.25 2.25 0 0 1-.251-1.085c0-.396.087-.77.26-1.123.179-.352.43-.664.751-.937a3.657 3.657 0 0 1 1.179-.64 4.76 4.76 0 0 1 1.53-.232c.804 0 1.491.143 2.06.427.569.285 1.005.665 1.308 1.141.303.47.455.993.455 1.568h-1.717c0-.278-.083-.547-.25-.807a1.848 1.848 0 0 0-.715-.659c-.309-.173-.689-.26-1.141-.26-.476 0-.862.075-1.159.223-.291.142-.504.325-.64.547-.13.223-.195.458-.195.706 0 .185.031.352.092.5.069.143.186.276.353.4.167.117.402.228.705.334.303.105.69.21 1.16.315.822.186 1.5.408 2.031.668.532.26.928.578 1.188.956.26.377.39.834.39 1.373a2.673 2.673 0 0 1-1.067 2.152c-.34.26-.749.464-1.225.612-.47.142-.999.214-1.586.214-.885 0-1.633-.158-2.245-.474-.613-.315-1.077-.723-1.392-1.224a2.934 2.934 0 0 1-.473-1.587h1.725c.025.47.161.845.409 1.123.247.272.55.467.909.584.359.112.714.167 1.067.167.47 0 .863-.062 1.178-.185.322-.124.566-.294.733-.51.167-.217.25-.464.25-.743zm8.306-7.375V85.25h-1.726V75.212h1.726zm-1.856-2.663c0-.278.084-.513.251-.705.173-.191.427-.287.761-.287.327 0 .578.096.751.287a.995.995 0 0 1 .269.705c0 .266-.09.495-.269.687-.173.185-.424.278-.751.278-.334 0-.588-.093-.761-.278a1.01 1.01 0 0 1-.251-.687zm11.284 2.663v1.317h-5.427v-1.317h5.427zm-3.591-2.44h1.717v9.992c0 .34.052.597.157.77a.759.759 0 0 0 .409.343c.167.056.346.083.538.083.142 0 .29-.012.445-.037.161-.03.282-.055.362-.074l.009 1.401a3.993 3.993 0 0 1-.538.12 4.083 4.083 0 0 1-.788.066c-.421 0-.808-.084-1.16-.25-.353-.168-.634-.446-.844-.836-.204-.396-.307-.928-.307-1.596v-9.982zm10.894 11.439l2.793-9h1.837L481.55 86.8a6.213 6.213 0 0 1-.371.798c-.148.29-.34.566-.575.826-.235.26-.519.47-.853.63-.328.168-.721.251-1.179.251a3.1 3.1 0 0 1-.519-.055 5.066 5.066 0 0 1-.446-.093l-.009-1.392c.05.006.127.013.232.019.111.012.189.018.232.018.39 0 .721-.052.993-.157.272-.1.501-.27.686-.51.192-.236.356-.56.492-.975l.714-1.948zm-2.05-9l2.607 7.794.445 1.809-1.234.63-3.692-10.232h1.874z" fill="#D2FFE7"/><path d="M126.539 37.172V43.5h-13.828v-6.328h13.828zm-11.203-13.547V57.75h-8.016V23.625h8.016zm16.617 0V57.75h-8.015V23.625h8.015zm31.334 14.508v5.156c0 2.453-.304 4.61-.914 6.469-.609 1.86-1.476 3.422-2.601 4.687a10.98 10.98 0 0 1-4.008 2.836c-1.531.625-3.235.938-5.11.938-1.89 0-3.609-.313-5.156-.938a10.98 10.98 0 0 1-4.008-2.836c-1.125-1.265-1.992-2.828-2.601-4.687-.61-1.86-.914-4.016-.914-6.469v-5.156c0-2.453.304-4.617.914-6.492.609-1.875 1.469-3.438 2.578-4.688a10.98 10.98 0 0 1 4.008-2.836c1.547-.64 3.265-.96 5.156-.96 1.875 0 3.586.32 5.133.96a10.735 10.735 0 0 1 4.008 2.836c1.109 1.25 1.968 2.813 2.578 4.688.625 1.875.937 4.039.937 6.492zm-8.133 5.156v-5.203c0-1.531-.093-2.836-.281-3.914-.187-1.078-.469-1.953-.844-2.625-.375-.672-.843-1.164-1.406-1.477-.562-.312-1.226-.468-1.992-.468-.797 0-1.477.156-2.039.468-.563.313-1.031.805-1.406 1.477-.36.672-.625 1.547-.797 2.625-.172 1.078-.258 2.383-.258 3.914v5.203c0 1.516.086 2.813.258 3.89.172 1.063.437 1.938.797 2.626.375.687.851 1.195 1.429 1.523.578.313 1.258.469 2.039.469.75 0 1.407-.156 1.969-.469.578-.328 1.047-.836 1.406-1.523.375-.688.657-1.563.844-2.625.188-1.078.281-2.375.281-3.89zm-8.718 19.852c0-1 .406-1.836 1.218-2.508.813-.656 1.868-.985 3.164-.985 1.297 0 2.352.329 3.165.985.812.672 1.218 1.508 1.218 2.508s-.406 1.828-1.218 2.484c-.813.672-1.868 1.008-3.165 1.008-1.296 0-2.351-.336-3.164-1.008-.812-.656-1.218-1.484-1.218-2.484zm38.834-16.946h8.015c.016 2.563-.484 4.75-1.5 6.563a9.807 9.807 0 0 1-4.242 4.078c-1.828.922-3.969 1.383-6.422 1.383-1.984 0-3.742-.344-5.273-1.032a10.249 10.249 0 0 1-3.867-3c-1.047-1.312-1.836-2.898-2.368-4.757-.531-1.875-.796-4-.796-6.375v-4.758c0-2.36.281-4.477.843-6.352.578-1.875 1.391-3.468 2.438-4.78a10.54 10.54 0 0 1 3.844-3c1.515-.688 3.203-1.032 5.062-1.032 2.609 0 4.813.492 6.609 1.476 1.813.97 3.204 2.375 4.172 4.22.969 1.827 1.485 4.023 1.547 6.585h-8.015c.078-1.484-.016-2.648-.282-3.492-.265-.86-.734-1.461-1.406-1.805-.656-.36-1.531-.539-2.625-.539-.75 0-1.383.149-1.898.445-.516.297-.93.79-1.243 1.477-.312.672-.539 1.563-.679 2.672-.141 1.11-.211 2.469-.211 4.078v4.805c0 1.64.055 3.015.164 4.125.109 1.11.312 2.008.609 2.695.313.672.735 1.156 1.266 1.453.547.297 1.25.445 2.109.445.907 0 1.68-.148 2.321-.445.64-.312 1.125-.867 1.453-1.664.328-.812.453-1.969.375-3.469zm37.754 3.516l5.25-26.086h9l-9.469 34.125h-5.766l.985-8.04zm-4.406-26.086l5.273 26.086 1.031 8.039h-5.836l-9.422-34.125h8.954zm31.521 0V57.75h-7.992V23.625h7.992zm27.139 27.797v6.328h-14.93v-6.328h14.93zm-12.141-27.797V57.75h-8.015V23.625h8.015zm10.196 13.547v6.117h-12.985v-6.117h12.985zm2.015-13.547v6.352h-15v-6.352h15zm-7.101-9.14l6.796 6.585v.305h-5.953l-3.047-3.188-3 3.188h-5.859v-.398l6.68-6.493h4.383zm-6.446 48.421c0-1 .407-1.836 1.219-2.508.813-.656 1.867-.984 3.164-.984 1.297 0 2.352.328 3.164.984.813.672 1.219 1.508 1.219 2.508s-.406 1.828-1.219 2.485c-.812.671-1.867 1.007-3.164 1.007-1.297 0-2.351-.335-3.164-1.007-.812-.657-1.219-1.485-1.219-2.485zm43.241-39.281V57.75h-7.993l-8.554-21.234V57.75h-8.016V23.625h8.016l8.554 21.234V23.625h7.993zm35.972 28.5l8.414 7.547-4.992 4.312-8.226-7.547 4.804-4.312zm8.461-13.992v5.133c0 2.468-.304 4.632-.914 6.492-.609 1.86-1.484 3.422-2.625 4.687a10.98 10.98 0 0 1-4.008 2.836c-1.546.625-3.257.938-5.132.938-1.891 0-3.61-.313-5.157-.938a10.976 10.976 0 0 1-4.007-2.836c-1.125-1.265-1.993-2.828-2.602-4.687-.609-1.86-.914-4.024-.914-6.492v-5.133c0-2.469.305-4.633.914-6.492.609-1.875 1.469-3.438 2.578-4.688a10.624 10.624 0 0 1 4.008-2.836c1.547-.64 3.266-.96 5.156-.96 1.875 0 3.586.32 5.133.96a10.624 10.624 0 0 1 4.008 2.836c1.14 1.25 2.015 2.813 2.625 4.688.625 1.859.937 4.023.937 6.492zm-8.156 5.133v-5.18c0-1.531-.094-2.836-.281-3.914-.188-1.078-.477-1.953-.867-2.625-.375-.672-.852-1.164-1.43-1.477-.563-.312-1.219-.468-1.969-.468-.797 0-1.476.156-2.039.468-.562.313-1.023.805-1.383 1.477-.359.672-.625 1.547-.797 2.625-.171 1.078-.257 2.383-.257 3.914v5.18c0 1.515.086 2.812.257 3.89.172 1.078.438 1.961.797 2.649.375.687.844 1.195 1.407 1.523.562.313 1.242.469 2.039.469.75 0 1.406-.156 1.968-.469.578-.328 1.055-.836 1.43-1.523.375-.688.656-1.57.844-2.649.187-1.078.281-2.375.281-3.89zm29.201-19.641h8.039v23.227c0 2.656-.476 4.828-1.429 6.515-.953 1.672-2.289 2.899-4.008 3.68-1.719.781-3.75 1.172-6.094 1.172-2.328 0-4.359-.39-6.094-1.172-1.734-.781-3.093-2.008-4.078-3.68-.969-1.687-1.453-3.86-1.453-6.515V23.625h8.063v23.227c0 1.406.125 2.476.375 3.21.265.72.664 1.204 1.195 1.454s1.195.375 1.992.375c.813 0 1.477-.125 1.992-.375.516-.25.891-.735 1.125-1.453.25-.735.375-1.805.375-3.211V23.625zm26.998 7.172l-6.351 26.953h-8.625l10.523-34.125h5.391l-.938 7.172zm4.969 26.953l-6.351-26.953-1.055-7.172h5.484l10.547 34.125h-8.625zm.258-12.727v6.352h-14.789v-6.352h14.789zm-3.68-30.539l6.797 6.586v.305h-5.953l-3.047-3.188-3 3.188h-5.859v-.398l6.679-6.493h4.383zm41.108 9.141V57.75h-7.992l-8.555-21.234V57.75h-8.016V23.625h8.016l8.555 21.234V23.625h7.992zm26.082 0l4.383 14.813 4.406-14.813h8.602l-8.907 21.867V57.75h-8.156V45.492l-8.93-21.867h8.602z" fill="#FFFEEA"/><defs><linearGradient id="b" y1="51.999" x2="80" y2="51.999" gradientUnits="userSpaceOnUse"><stop stop-color="#2A6444"/><stop offset=".19" stop-color="#2A6444"/><stop offset=".65" stop-color="#194F34"/><stop offset="1" stop-color="#0B3D27"/></linearGradient><linearGradient id="c" x1="4.832" y1="58.899" x2="75.167" y2="58.899" gradientUnits="userSpaceOnUse"><stop stop-color="#2A6444"/><stop offset=".19" stop-color="#2A6444"/><stop offset=".65" stop-color="#194F34"/><stop offset="1" stop-color="#0B3D27"/></linearGradient><linearGradient id="d" x1="13.763" y1="59.381" x2="66.238" y2="59.381" gradientUnits="userSpaceOnUse"><stop stop-color="#2A6444"/><stop offset=".19" stop-color="#2A6444"/><stop offset=".65" stop-color="#194F34"/><stop offset="1" stop-color="#0B3D27"/></linearGradient><linearGradient id="f" x1="5.562" y1="64.329" x2="37.538" y2="64.329" gradientUnits="userSpaceOnUse"><stop stop-color="#2A6444"/><stop offset=".19" stop-color="#2A6444"/><stop offset=".65" stop-color="#194F34"/><stop offset="1" stop-color="#0B3D27"/></linearGradient><linearGradient id="h" x1="41.473" y1="64.52" x2="73.177" y2="64.52" gradientUnits="userSpaceOnUse"><stop stop-color="#2A6444"/><stop offset=".19" stop-color="#2A6444"/><stop offset=".65" stop-color="#194F34"/><stop offset="1" stop-color="#0B3D27"/></linearGradient><linearGradient id="i" x1="40" y1="62.101" x2="64.888" y2="62.101" gradientUnits="userSpaceOnUse"><stop stop-color="#2A6444"/><stop offset=".19" stop-color="#2A6444"/><stop offset=".65" stop-color="#194F34"/><stop offset="1" stop-color="#0B3D27"/></linearGradient><linearGradient id="j" x1="15.111" y1="62.101" x2="39.999" y2="62.101" gradientUnits="userSpaceOnUse"><stop stop-color="#2A6444"/><stop offset=".19" stop-color="#2A6444"/><stop offset=".65" stop-color="#194F34"/><stop offset="1" stop-color="#0B3D27"/></linearGradient><linearGradient id="k" x1="28.185" y1="58.393" x2="50.632" y2="58.393" gradientUnits="userSpaceOnUse"><stop stop-color="#2A6444"/><stop offset=".19" stop-color="#2A6444"/><stop offset=".65" stop-color="#194F34"/><stop offset="1" stop-color="#0B3D27"/></linearGradient><linearGradient id="l" x1="34.822" y1="51.036" x2="44.72" y2="51.036" gradientUnits="userSpaceOnUse"><stop stop-color="#2A6444"/><stop offset=".19" stop-color="#2A6444"/><stop offset=".65" stop-color="#194F34"/><stop offset="1" stop-color="#0B3D27"/></linearGradient><linearGradient id="m" x1="42.197" y1="38.117" x2="45.939" y2="38.117" gradientUnits="userSpaceOnUse"><stop stop-color="#2A6444"/><stop offset=".19" stop-color="#2A6444"/><stop offset=".65" stop-color="#194F34"/><stop offset="1" stop-color="#0B3D27"/></linearGradient><clipPath id="a"><path fill="#fff" d="M0 0h80v104H0z"/></clipPath></defs></svg>